<?xml version="1.0" encoding="UTF-8"?><svg xmlns="http://www.w3.org/2000/svg" viewBox="0 0 829.12 894.54"><defs><style>.d{fill:#a2dadf;}.d,.e,.f,.g{stroke:#fff;stroke-linecap:round;stroke-linejoin:round;}.e{fill:#74a5ce;}.f{fill:#d9adc3;}.g,.h{fill:#f7d67e;}.i{fill:#fff;}.j{fill:#6b655b;}</style></defs><g id="a"><polygon class="d" points="504.47 340.92 505.04 341.34 506.39 340.6 506.67 339.16 507.76 339.32 510.26 337.53 509.78 335.6 511.12 334.92 510.92 332.98 512.82 331.8 513.87 332.08 514.83 330.65 515.18 330.28 518.48 330.77 519.45 331.98 521.32 331.52 523.14 332.42 523.74 332.3 524.72 333.14 525.35 335.62 527.26 336.35 530.4 336.41 532.17 338.16 535.49 339.73 537.91 338.85 538.63 339.51 542.1 339.26 543.47 340.29 546.69 340.38 547.43 341.52 547.42 343.22 548.62 345.28 551.02 345.93 550.8 347.08 552.73 348.52 552.92 351.28 553.45 351.73 552.97 355.78 552.9 374.1 552.83 376.99 551.66 376.69 549.8 377.88 549.36 378.93 549.26 377.14 547.87 378.06 546.51 377.48 545.74 379.01 545.24 378.21 541.83 378.75 540.37 377.91 540.38 374.58 541.96 375.85 542.17 375.05 540.41 372.93 524.72 372.83 517.51 373.45 512.65 373.29 512.67 370.34 512.59 367.98 504.65 368.16 504.65 365.46 504.51 341.69 504.47 340.92"/><polygon class="e" points="204.5 257.21 204.73 232.45 205.86 232.43 206.28 232.43 206.64 232.43 211.48 232.47 212.71 232.49 215.35 232.48 216.81 232.44 220.92 232.47 221.47 232.47 221.88 232.49 222.38 232.5 222.87 232.5 226.56 232.57 231.44 232.55 231.74 232.54 233.14 232.53 233.15 232.53 232.94 259.56 248.47 259.69 245.96 261.88 246.64 263.43 244.75 264.06 242.78 265.88 243.34 268.02 242.72 269.63 244.37 270.6 244.93 273.08 245.62 273.42 245.07 276.8 245.57 278.19 246.58 278.04 247.23 279.58 245.77 281.75 244.85 281.35 243.9 283.89 242.7 284.39 241.33 283.8 238.88 284.26 237.04 285.79 236.55 288.98 236.39 296.2 236.28 300.16 235.97 300.01 228.73 296.96 218.08 293.23 211.96 291.42 206.7 290.35 204.04 289.98 204.5 257.21"/><polygon class="f" points="584.83 438.89 585.8 437.15 604.45 437.24 603.76 441.6 602.25 443.65 600.83 443.77 600.81 447.52 600.81 450.28 601.06 450.49 601.96 450.52 604.38 450.51 611.35 450.55 611.37 451.22 611.4 453.24 615.08 453.16 617.5 453.1 618.09 453.12 627.38 453.03 638.77 452.99 641.16 454 641.61 453.74 642 455.57 643.36 457.59 643.05 459.61 645.89 462.44 647.32 463 647.2 464.1 648.12 465.91 646.21 466.35 646.01 467.63 646.04 467.64 645.69 469.44 647.15 471.72 646.72 473.79 648.77 477.26 630.14 477.21 612.87 477.21 612.06 477.21 604.02 477.22 600.98 477.2 598.57 477.3 584.93 477.3 584.92 465.69 584.93 459.09 584.92 458.45 584.95 457.54 585.66 455.64 584.94 454.86 584.84 441.33 584.83 438.89"/><polygon class="e" points="130.41 246.21 131.62 243.11 132.75 242.4 132.93 240.3 132.55 238.89 134.13 238 135.08 238.32 137.31 235.55 139.14 234.73 142.46 232 142.54 232 144.29 231.95 145.56 232.02 146.05 231.96 150.09 231.99 150.46 231.99 151.29 231.99 152.39 231.95 152.68 231.97 153.43 231.98 155.25 231.97 155.73 232.04 161.4 232.12 164.59 232.14 165.81 232.13 169.11 232.16 169.22 232.15 172.81 232.19 172.83 232.19 172.29 261.38 171.79 289.22 171.66 289.24 167.61 289.75 162.86 290.55 162.09 290.71 162.03 289.23 149.61 291.43 144.33 292.83 143.31 292.79 141.23 294.07 138.65 293.58 136.87 292.71 136.8 290.73 137.27 289.45 143.35 287.44 143.9 286.96 144.8 285.69 144.52 283.14 145.6 280.05 145.56 278.64 142.92 275.41 142.12 274.78 138.75 273.5 136.6 269.64 134.8 268.27 135.34 267.15 134.33 264.69 134.27 261.11 133.66 258.37 131.29 258.18 130.51 256.71 131.34 254.32 130.54 251.9 132.06 249.48 131.3 246.68 130.41 246.21"/><polygon class="g" points="553.44 299.76 554.38 298.83 562.58 290.4 570.95 281.7 572.7 280.1 573.87 278.15 574.94 278.35 576.25 276.94 576.38 275.4 577.73 275.78 578.67 274.73 578.67 273.15 579.77 271.96 581.13 272.72 581.7 272.16 583.96 272.75 584.18 273.84 585.59 271.49 587.57 270.61 589.16 270.74 588.83 271.67 589.42 272.35 588.39 272.84 588.71 273.59 590.17 272.56 590.88 272.64 590.43 273.95 591.37 275.11 593.13 274.51 594.11 276.43 595.14 276.21 595.85 275.04 595.66 273.4 596.44 272.38 597.6 272.71 599.18 275.54 601.52 276.86 602.17 277.73 601.82 278.32 602.38 278.88 603.52 278.96 604.74 280.33 605.04 285.93 605.81 287.92 605.9 293.56 606.28 296.97 606.77 299.73 607.22 301.67 603.13 301.74 602.64 301.73 602.89 315.37 594.46 315.54 594.44 314.03 592.12 314.23 591.07 313.46 587.62 312.76 585.48 313.89 583.09 313.91 582.13 311.73 582.26 309.2 583.14 307.48 581.22 307.61 580.59 307.41 578.81 307.2 578.37 307.59 570.44 307.65 553.42 307.81 553.44 299.76"/><polygon class="d" points="479.2 359.97 480.49 358.62 480.91 356.49 480.32 355.74 480.85 352.6 481.91 352.88 481.08 350.53 481.97 348.85 481.08 347.93 482.26 344.97 483.43 344.21 482.23 342.83 483.41 341.47 485.6 341.22 485.85 339.53 487.03 337.55 486.69 335.66 488.02 333.42 490.54 333.27 493.07 331.47 493.76 331.16 494.67 332.06 495.49 331.84 495.17 333.36 495.64 334.72 496.46 334.56 496.89 336.28 498.23 338.14 500.25 339.31 501.65 340.54 504.47 340.92 504.51 341.69 504.65 365.46 496.61 365.68 496.57 364.27 495.28 363.61 488.56 363.01 482.07 363.03 480.66 363.54 479.31 361.42 479.2 359.97"/><polygon class="d" points="552.97 355.78 553.45 351.73 552.92 351.28 553.44 351.24 555.07 351.24 556.82 349.31 559.3 348.61 562.26 348.57 562.93 347.77 563.54 345.48 564.68 344.31 568.48 343.69 571.71 341.27 572.46 340.33 591.05 339.99 592.22 343.44 594.26 346.49 595.54 347.46 595.58 350.97 595.67 360.14 595.92 371.43 596.39 372.74 598.64 376.47 598.7 378.45 599.43 381 601.45 381.59 602.87 380.81 601.92 382.51 583.03 387.65 583.48 386.33 585.01 386.37 584.03 383.29 578.17 383.35 578.14 377.92 575.48 377.98 575.38 372.61 570.03 372.69 570.01 369.51 568.55 370.07 564.89 370.13 564.63 371 562.87 369.93 560.27 371.1 557.04 371.29 554.82 372.25 552.9 374.1 552.97 355.78"/><polygon class="f" points="584.93 477.3 598.57 477.3 600.98 477.2 604.02 477.22 612.06 477.21 612.87 477.21 630.14 477.21 648.77 477.26 648.89 485.96 648.77 500.57 648.25 501.23 648.29 525.08 647.27 525.08 647.39 533.15 647.94 541.44 626.33 541.35 627.18 540.8 627.15 539.7 626.15 538.95 625.78 536.93 626.02 535.25 624.19 533.85 624.46 532.33 623.41 531.49 623.85 530.8 621.97 527.96 621.02 525.21 619.26 523.28 616.93 522.95 615.14 521.9 613.49 521.48 613.15 519.29 612.44 517.92 612.94 516.05 610.54 515.19 610.7 513.53 609.64 512.24 607.49 510.92 606.67 508.64 604.37 509.11 603.63 507.8 602.37 505.86 600.88 505.32 600.82 504.24 602.12 503.55 602.99 505 605.14 506.3 606.09 506.39 607.01 507.81 607.55 506.26 608.52 505.5 608.27 503.33 609.9 502.11 609.91 501.23 601.13 501.21 601.09 495.9 600.01 495.89 599.97 495.89 595.62 495.93 595.64 490.63 593.44 486.25 592.95 485.31 584.94 485.32 584.94 484.84 584.93 477.3"/><polygon class="g" points="497.47 550.82 497.73 550.77 500.49 552.21 500.9 554.53 501.91 554.66 502.23 554.59 502.19 553.61 502.46 553.15 503.18 552.56 504.19 552.27 505.1 552.25 505.48 551.3 506.6 549.64 508.21 547.88 508.13 546.83 508.15 546.79 508.24 546.61 509.46 545.82 510.41 545.64 511.54 544.47 511.94 543.85 512.51 541.77 512.84 541.17 515.21 541.16 515.22 541.16 520.93 541.11 553.02 541.07 552.91 568.98 552.85 580.78 537.32 580.68 537.01 580.53 537.12 564.64 522.34 564.63 521.67 564.65 521.56 564.65 521.47 564.65 521.46 564.43 521.31 564.43 515.44 564.4 514.68 564.41 513.7 564.39 513.64 564.39 512.45 564.39 505.74 564.32 503.14 561.19 501.8 560.03 501.87 559.38 500.51 555.46 499.98 554.3 499.17 553.11 497.69 551.52 497.47 550.82"/><polygon class="e" points="505.74 564.32 512.45 564.39 513.64 564.39 513.7 564.39 514.68 564.41 515.44 564.4 521.31 564.43 521.46 564.43 521.47 564.65 521.56 564.65 521.67 564.65 522.34 564.63 537.12 564.64 537.01 580.53 537.32 580.68 552.85 580.78 552.77 596.64 551.45 596.64 536.88 596.56 536.86 604.47 527.2 604.4 525.2 600.89 523.7 597.66 521.58 594.06 520.4 590.52 520 589.54 519.71 589.28 519.06 586.79 517.4 583.29 516.22 580.8 516.2 580.76 514.02 576.57 513.59 575.97 512.47 575.26 511.61 574.3 511.62 573.77 511.65 572.57 511.1 571.6 509.37 569.21 507.26 566.81 505.74 564.33 505.74 564.32"/><polygon class="d" points="532.35 421.14 549.74 421.16 561.07 421.17 561.12 432.52 561.07 456.81 561.07 458.6 560.8 477.47 560.78 480.79 558.53 481.11 557.82 479.96 555.74 479.43 552.91 480.43 552.93 477.43 553 465.3 553.02 461.37 551.95 460.45 549.59 461.01 548.6 459.32 546.89 459.09 546.3 457.34 544.84 456.62 544.1 457.48 541.55 456.42 540.36 456.55 539.58 454.8 536.44 450.77 536.73 449.7 535.31 449.03 536.25 447.99 536.5 446.61 537.42 444.89 537.38 443.39 540.46 440.07 542.17 439.62 542.59 437.39 543.8 436.5 542.98 435.55 542.72 433.86 540.88 432.64 539.52 431.02 538.41 430.3 537.93 428.85 535.41 426.94 535.06 425.66 533.63 423.19 533.47 422.18 532.35 421.14"/><polygon class="f" points="323.7 267.51 325.36 263.37 327.74 260.14 327.19 258.91 327.29 258.91 329.46 258.99 344.85 259.8 347.94 260 347.95 260 353.33 260.29 353.67 260.31 358.55 260.66 366.09 260.93 366.54 260.94 373.97 261.36 372.48 261.84 372.73 262.15 372.14 262.77 372.58 265.35 372.25 266.1 370.75 267.4 369.66 269.7 366.83 271.09 365.53 273.96 365.48 274.06 365.46 274.34 365.49 274.43 365.54 274.46 365.54 274.53 365.48 274.57 365.48 274.65 365.4 274.84 365.32 275.17 365.27 275.38 365.26 275.52 365.22 275.61 365.21 275.72 365.25 275.8 365.26 275.92 365.38 275.89 365.43 275.92 365.37 275.98 365.36 276.06 365.39 276.11 365.47 276.17 365.48 276.21 364.14 277.94 364.76 280.21 363.9 281.17 362.89 282.02 354.91 283.18 354.14 284.18 351.72 284.81 351.56 284.45 350.97 285.48 349.16 286.89 347.91 286.48 344.63 288.48 344.73 289.07 341.98 289.1 341.99 286.37 339.29 286.38 339.3 282.35 333.91 282.41 333.85 276.92 331.14 276.93 331.12 275.57 325.75 275.57 325.7 268.81 321.74 268.73 323.7 267.51"/><polygon class="d" points="514.41 397.75 522.03 397.7 524.99 397.67 524.81 384.26 524.72 372.83 540.41 372.93 542.17 375.05 541.96 375.85 540.38 374.58 540.37 377.91 541.83 378.75 545.24 378.21 545.74 379.01 546.51 377.48 547.87 378.06 549.26 377.14 549.36 378.93 549.8 377.88 551.66 376.69 552.83 376.99 552.9 374.1 554.82 372.25 557.04 371.29 560.27 371.1 562.87 369.93 564.63 371 564.89 370.13 568.55 370.07 570.01 369.51 570.03 372.69 575.38 372.61 575.48 377.98 578.14 377.92 578.17 383.35 584.03 383.29 585.01 386.37 583.48 386.33 583.03 387.65 583.65 389.28 585.06 389.9 586.17 392.04 586.25 401.98 586.43 413.11 584.78 413.11 584.82 421.14 581.82 421.17 579.96 421.07 576.54 421.09 570.07 421.08 569.54 421.19 561.07 421.17 549.74 421.16 532.35 421.14 529.96 418.62 529.92 418.62 529.84 418.67 529.62 418.69 529.53 418.62 529.4 418.61 529.32 418.57 529.24 418.46 529.07 418.3 528.84 418.29 528.76 418.26 528.66 418.13 528.57 418.11 528.39 418.11 528.34 418.08 528.29 418.02 528.3 417.9 528.21 417.82 528.24 417.6 525.77 416.76 525.14 415.79 523.74 416.28 523.08 415.53 520.54 413.12 518.25 413.05 516.56 414.06 514.35 413.38 514.41 397.75"/><polygon class="g" points="553.42 307.81 570.44 307.65 578.37 307.59 578.81 307.2 580.59 307.41 581.22 307.61 583.14 307.48 582.26 309.2 582.13 311.73 583.09 313.91 583.1 317.13 582.27 321.2 582.88 323.62 583.82 324.5 587.54 326.88 589.19 328.66 589.59 330.91 588.86 332.99 589.61 336.72 590.86 339.58 591.05 339.99 572.46 340.33 571.71 341.27 568.48 343.69 564.68 344.31 563.54 345.48 562.93 347.77 562.26 348.57 559.3 348.61 556.82 349.31 555.07 351.24 553.44 351.24 553.69 348.6 553.44 319.98 553.42 311.88 553.42 307.81"/><polygon class="d" points="511.34 324.18 513.6 323.32 514.37 320.06 515.69 318.12 517.36 316.91 519.77 316.17 520.75 315.37 521.03 313.67 520.56 312.5 521.74 312.35 528.51 312.24 545.93 311.88 546.31 313.35 545.55 314.96 543.76 315.94 543.12 318.19 542.41 319.15 540.71 320.28 539.26 321.99 536.5 322.56 535.44 325.24 532.75 329.2 531.26 329.28 529.9 328.75 529.45 330.58 528.52 331.36 527.66 331.17 526.02 332.07 523.74 332.3 523.14 332.42 521.32 331.52 519.45 331.98 518.48 330.77 515.18 330.28 514.83 330.65 514.54 329.03 512.77 328.51 511.65 327.49 511.11 326.02 511.34 324.18"/><polygon class="g" points="583.03 387.65 601.92 382.51 602.87 380.81 603.94 380.71 604.22 393.47 616.18 393.29 622.02 393.14 625.69 393.03 625.49 385.61 625.22 379.67 625.8 379.13 629.56 378.18 632.09 384.45 633.02 386.75 634 389.17 639.26 401.16 640.03 402.91 640.47 403.9 640.76 404.47 642.22 407.31 645.2 411.59 646.29 414.18 647.53 416.53 648.45 418.09 654.86 428.95 659.27 436.66 650.37 436.67 640.33 436.76 640.6 452.99 638.77 452.99 637.18 450.85 637.65 450.42 636.86 447.95 636.04 447.38 636.41 445.66 634.94 444.12 634.82 442.74 632.84 440.44 633.48 438.28 632.33 434.67 629.93 433.88 629.25 433.24 627.61 433.89 627.85 434.56 626.67 436.66 625.18 436.61 623.37 437.52 623.03 436.09 622.08 436.56 620.36 435.1 619.59 432.86 615.81 432.77 612 432.69 608.92 431.43 609.45 430.14 608.26 428.59 609.4 426.99 609.39 422.44 608.17 421.6 608.76 419.63 609.25 418.9 607.63 418.11 607.01 416.73 606.24 415.66 603.02 413.42 601.85 411.77 601.12 411.62 601.24 409.96 600.27 408.61 598.47 408.93 597.41 408.51 597.21 406.13 595.06 401.26 593.26 400.21 592.68 399.09 590.09 399.2 588.35 398.51 587.98 396.47 586.8 394.98 586.17 392.04 585.06 389.9 583.65 389.28 583.03 387.65"/><polygon class="d" points="496.69 417.33 498.89 416.14 500.17 414.67 501.96 414.38 503.11 415.09 504.94 415.38 508.16 416.65 509.01 416.26 509.69 414.74 511.03 414.92 514.35 413.38 516.56 414.06 518.25 413.05 520.54 413.12 523.08 415.53 523.74 416.28 525.14 415.79 525.77 416.76 528.24 417.6 528.21 417.82 528.3 417.9 528.29 418.02 528.34 418.08 528.39 418.11 528.57 418.11 528.66 418.13 528.76 418.26 528.84 418.29 529.07 418.3 529.24 418.46 529.32 418.57 529.4 418.61 529.53 418.62 529.62 418.69 529.84 418.67 529.92 418.62 529.96 418.62 532.35 421.14 533.47 422.18 533.63 423.19 535.06 425.66 535.41 426.94 537.93 428.85 538.41 430.3 539.52 431.02 540.88 432.64 542.72 433.86 542.98 435.55 543.8 436.5 542.59 437.39 542.17 439.62 540.46 440.07 537.38 443.39 537.42 444.89 536.5 446.61 536.25 447.99 523.82 448.15 523.77 445.49 516.62 445.51 503.64 445.54 503.66 445.42 500.15 443.11 501.28 439.8 498.71 431.26 502.04 426.17 500.93 423.66 500.44 423.38 499.22 421.77 498.27 419.91 498.1 417.89 496.41 418.12 496.69 417.33"/><polygon class="f" points="236.39 296.2 236.55 288.98 237.42 288.71 238.78 286.98 240.77 287.18 242.27 286.51 243.39 287.44 245.29 287.02 246.38 286.14 247.74 284.19 277.11 284.53 277.24 272.35 281.38 272.36 285.47 272.42 285.1 292.77 285.01 306.5 284.87 323.07 285.09 332.19 283.77 330.88 282.09 329.82 279.32 328.92 278.6 329.09 277.13 328.77 275.41 327.82 272.83 325.56 270.36 322.72 269.6 321.66 269.05 320.02 268.01 319.94 266.64 319.09 265.11 318.37 263.83 317.95 260.33 316.18 257.66 314.2 256.06 312.49 254.01 310.66 251.13 308.61 245.76 305.14 242.18 303.06 236.28 300.16 236.39 296.2"/><polygon class="e" points="569.78 659.75 571.93 659.74 571.94 661.01 577.13 660.97 577.79 660.96 584.88 660.9 584.85 651.61 592.57 651.47 592.45 643.33 599.95 643.33 604.17 643.07 615.91 643 616.17 666.68 647.41 666.1 647.46 673.86 647.46 673.89 647.96 691.17 647.95 706.71 610.09 706.9 600.1 706.9 599.8 705.68 596.37 703.74 593.72 702.76 590.94 700.34 588.35 698.8 587.65 698.52 586.31 698.46 585.95 698.45 585.16 698.84 584.41 699.55 583.7 702.13 583.24 703.15 582.72 702.98 582.34 702.49 580.44 698.48 580.08 698.08 579.32 697.62 578.93 695.45 578.44 694.51 577.84 693.83 577.5 692.86 577.66 689.84 577.43 689.47 576.88 689.29 576.48 688.78 573.33 681.44 572.75 675.71 572.29 673.83 572.11 670.79 571.8 668.14 570.8 662.96 569.88 659.99 569.78 659.75"/><polygon class="f" points="268.52 245.07 270.07 241.41 272.31 238.26 273.71 237.59 273.8 234.3 276.3 232.2 277.08 232.18 296.73 231.82 303.9 231.83 304.08 231.83 304.09 231.82 304.59 231.84 311.69 231.85 311.91 231.85 312.12 231.85 313.81 231.85 313.89 231.85 314.1 231.84 314.37 231.84 316.12 231.84 316.17 231.84 316.17 232.18 316.11 233.14 315.83 233.8 315.83 234.06 315.9 234.28 315.99 234.39 316.32 234.61 316.32 234.58 316.5 234.61 317.27 234.83 317.53 234.95 317.71 235.13 317.91 235.54 317.95 235.75 317.95 236.15 317.74 236.89 317.67 237.29 317.63 237.81 317.67 238.02 317.87 238.22 318.3 238.39 318.64 238.64 318.77 239.22 318.98 239.66 319.84 240.57 320.14 241.06 320.36 241.52 320.93 242.36 321.03 242.43 321.13 242.52 321.29 242.62 321.39 242.71 321.5 242.92 321.49 243.27 321.32 243.54 321.26 243.8 321.31 244.04 321.48 244.32 321.56 244.51 321.61 244.71 321.56 244.96 321.5 245.17 321.51 245.55 321.68 245.82 321.93 246.07 322.03 246.26 322.07 246.5 322.07 246.66 321.98 246.86 321.78 247.13 321.6 247.45 321.51 247.75 321.49 248.34 321.45 248.7 321.5 249.03 321.86 249.66 322.07 250.16 322.1 250.38 322.01 250.89 322.07 251.28 322.2 251.56 322.9 252.69 322.95 252.89 322.9 253.25 322.73 253.82 323.14 254.27 323.2 254.98 323.26 255.1 323.45 255.2 323.84 255.26 324.1 255.15 324.33 255.14 324.54 255.18 324.66 255.26 325.35 256.08 325.53 256.72 325.65 256.94 326.32 257.42 326.78 257.94 327.19 258.91 327.74 260.14 325.36 263.37 323.7 267.51 321.74 268.73 302.85 268.58 302.51 272.66 285.47 272.42 281.38 272.36 281.35 267.02 281.58 252 277.53 251.96 277.57 247.88 268.11 247.78 268.52 245.07"/><polygon class="g" points="553.34 262.21 554.03 260.7 554.46 259.37 554.37 258.25 554.24 257.82 554.09 257.64 553.87 257.22 554.08 256.79 554.17 256.48 554.21 255.53 554.26 255.38 554.5 255.22 554.77 255.25 555.11 255.22 555.95 254.82 556.37 254.26 556.46 254.09 555.95 252.9 555.46 252.21 555.47 251.88 555.55 251.76 556.02 251.42 556.76 251.3 556.99 251.41 557.79 251.94 558.13 252.36 558.31 252.5 558.9 252.81 559.07 252.84 559.08 252.84 559.49 252.65 560.4 250.96 560.45 250.6 560.41 249.85 560.38 249.36 560.43 248.95 560.62 248.66 561.43 248.06 561.96 248.07 562.34 248.23 562.58 248.66 562.64 248.73 563.46 248.99 564.55 249.15 564.92 249.04 565.13 248.86 565.24 248.69 565.48 248.61 565.77 248.66 566 248.83 566.13 249.14 566.81 250.16 567.28 250.68 567.95 251.31 569.23 251.16 569.74 251.52 570.08 251.84 570.22 251.91 571.29 251.67 572.78 251.57 572.93 251.6 574.04 252.09 574.72 253.11 574.86 253.45 575.14 253.62 575.47 253.6 575.66 253.49 575.84 253.21 576.02 253.07 576.41 253.09 576.73 253.31 577.07 253.6 577.38 253.72 577.68 253.77 577.78 253.83 577.88 253.91 577.95 254.02 578.01 254.17 578.04 254.39 578.06 254.45 578.91 255.35 579.32 255.6 579.9 255.82 581.92 255.46 582.08 255.58 582.16 255.88 582.22 255.98 582.39 256.11 583.68 256.35 583.9 256.23 583.96 256.12 584.05 255.81 584.12 255.72 584.34 255.63 584.54 255.64 584.99 255.77 585.15 255.88 585.35 256.02 585.38 256.23 585.34 256.66 585.37 256.97 585.48 257.21 585.58 257.31 585.83 257.41 586.86 257.22 587.16 256.96 587.52 256.9 587.77 257.07 587.86 257.23 587.96 257.66 588.12 257.93 588.77 258.05 588.92 257.94 589.08 257.62 589.21 257.44 589.44 257.36 590.04 257.61 590.59 257.77 591.65 257.9 591.83 257.97 592.25 258.32 592.61 258.53 593.35 258.4 593.62 258.49 593.8 258.65 593.98 258.68 594.14 258.72 594.28 258.74 594.41 258.73 594.54 258.65 594.71 258.46 594.8 258.31 594.84 258.13 594.94 257.97 595.12 257.85 595.3 257.8 595.85 257.88 596.28 257.91 596.99 257.84 598.41 257.55 598.59 257.55 598.87 257.75 599.52 258.61 599.77 258.74 600.43 258.96 600.79 259.01 601.69 259.11 602.06 259.08 602.98 259.71 603.4 260.17 603.13 262.85 602.14 269.24 602.19 273.51 602.87 276.55 602.17 277.73 601.52 276.86 599.18 275.54 597.6 272.71 596.44 272.38 595.66 273.4 595.85 275.04 595.14 276.21 594.11 276.43 593.13 274.51 591.37 275.11 590.43 273.95 590.88 272.64 590.17 272.56 588.71 273.59 588.39 272.84 589.42 272.35 588.83 271.67 589.16 270.74 587.57 270.61 585.59 271.49 584.18 273.84 583.96 272.75 581.7 272.16 581.13 272.72 579.77 271.96 578.67 273.15 578.67 274.73 577.73 275.78 576.38 275.4 576.25 276.94 574.94 278.35 573.87 278.15 572.7 280.1 570.95 281.7 562.58 290.4 554.38 298.83 553.44 299.76 553.38 291.48 553.54 291.4 554.12 290.76 554.43 290.04 554.51 289.35 554.08 288.28 554.02 287.68 554.08 287.05 554.18 286.65 554.66 285.9 554.62 285.37 554.4 284.76 554.48 284.4 554.97 283.8 555.12 283.56 555.34 282.6 555.48 281.71 555.96 280.98 556.03 280.64 556 279.81 555.93 279.4 556.11 279.08 556.2 277.45 556.12 276.97 556.03 276.85 555.87 276.44 555.92 275.75 556.33 273.99 556.95 272.74 556.74 271.47 556.42 269.91 556.13 269.17 556.06 269.1 555.23 268.75 555.19 268.7 555.26 268.09 555.1 267.29 554.66 266.56 554.37 266.22 554.18 265.86 554.25 265.49 554.21 265.28 553.99 264.71 553.68 264.49 553.41 264.14 553.34 262.21"/><path class="e" d="M542.94,626.85l.51-.47,1.76-.21,1.02,.1,1.06,.31,.55,.78,1.02,2.12,.51,.41,.55-.26,.1-.36,.4-1.39,.14-1.55,.42-1.29,1.06-2.33,.37-2.5,10.5,.03h.02l29.34,.04-.03,5.4,.09,9.82,.1,7.35v.46l.13,8.14-7.73,.14,.04,9.29-7.09,.06h-.66l-5.19,.06v-1.27h-2.15l-1.86-4.32-1.52-1.66-1.12-1.23-.06-.48-.72-.99-.96-.85-1.19-.75-1.46-.66-.61-.5-.23-.44,.07-.2-.26-1.03-.9-.4-1.31-.35-.96,.07-.38-.61,.37-1.29-.5-2.12-2.08,.36-.03-.05-1.33-2.07-.07,.13-.75,1.42,.09,1.6,.82,1.75-1.19,.11-1.85,.77h-.88l-.51-5.11-.55-1.81-.28-1.65-1.25-5.22-.97-1.5-2.54-2.48,.14-1.34Zm-6.79-.17l.69-.44,.05-.42,.69,.16,.32,1.09-.28,.52-.05,.47,.73,1.93,1.53,3.2,.32,2.11,1.43,3.87,.74,2.89,.79,2.27,.92,1.14,1.34,1.08,1.43,.05,.92,.31,2.54,1.65,.92-.98,1.15-.36,1.94,1.19,1.83,.18,.15,.05-.02,.2-3.95,2.39-.96,.31h-.63l-1.22-.26-2.29-1.02-1.77-1.72-1.94-1.1-.33-.35-.3-.42-1.19-1.38-1.81-5.06-.76-1.62-1.24-2.2-.76-3.92-1.05-1.91,.21-1.63-.4-.85,.29-1.41Zm-.59-8.19h.56l1.77,.34,.7,.23,.92,.11,.19,1.16-.85-.17-.94,.43-.6,.3-.24,4.07-1.17-.22,.22-3.3-.39-2.51-.18-.44Z"/><polygon class="f" points="282.85 339.76 283.09 338.81 283.71 337.61 285.22 336.43 285.18 339.51 285.08 342.09 285.27 344.76 285.94 348.01 286.89 352.02 287.66 353.26 289 353.74 290.33 353.17 291.73 350.63 292.11 343.98 292.01 342.96 291.82 342.68 291.3 342.38 291.04 341.65 291.03 340.88 291.18 340.72 290.81 340.11 290.2 339.55 289.62 339.46 289.27 339.14 288.43 337.04 287.09 334.55 285.41 332.5 285.09 332.19 284.87 323.07 285.01 306.5 285.54 306.47 307.03 306.6 305.58 308.29 305.08 309.99 305.62 311.64 304.68 313.74 305.86 314.08 304.34 314.91 304.67 315.94 303.94 316.63 305.32 317.18 305.45 321.16 307.18 323.02 309.47 323.81 310.54 324.73 311.98 325.05 312.25 326.01 313.95 326.39 314.28 327.82 314.88 329.72 312 333.49 312.2 335.09 313.01 336.68 313.7 340.92 314.6 341.56 314.67 343.03 313.43 344.42 313.16 345.55 310.8 345.15 309.96 346.62 307.53 345.86 299.75 351.93 298.45 353.93 298.24 354.99 295.45 354.7 292.96 354.44 290.67 354.68 288.71 355.56 288.38 356 287.99 356.68 286.64 354.72 285.76 353.11 284.35 349.22 283.05 343.72 282.73 341.04 282.85 339.76"/><polygon class="g" points="595.67 360.14 611.71 359.84 611.69 357.27 612.84 358.31 613.82 357.49 615.08 357.55 616.64 356.09 617.88 356.75 619.48 355.69 620.64 355.68 620.75 356.01 624.6 366.34 627.79 373.81 629.56 378.18 625.8 379.13 625.22 379.67 625.49 385.61 625.69 393.03 622.02 393.14 616.18 393.29 604.22 393.47 603.94 380.71 602.87 380.81 601.45 381.59 599.43 381 598.7 378.45 598.64 376.47 596.39 372.74 595.92 371.43 595.67 360.14"/><polygon class="d" points="523.74 332.3 526.02 332.07 527.66 331.17 528.52 331.36 529.45 330.58 529.9 328.75 531.26 329.28 532.75 329.2 535.44 325.24 536.5 322.56 539.26 321.99 540.71 320.28 542.41 319.15 543.12 318.19 543.76 315.94 545.55 314.96 546.31 313.35 545.93 311.88 553.42 311.88 553.44 319.98 553.69 348.6 553.44 351.24 552.92 351.28 552.73 348.52 550.8 347.08 551.02 345.93 548.62 345.28 547.42 343.22 547.43 341.52 546.69 340.38 543.47 340.29 542.1 339.26 538.63 339.51 537.91 338.85 535.49 339.73 532.17 338.16 530.4 336.41 527.26 336.35 525.35 335.62 524.72 333.14 523.74 332.3"/><polygon class="d" points="447.42 307.78 447.56 306.49 447.52 300.97 457.17 300.95 456.7 302.99 457.74 304.03 456.94 306.53 457.04 308.09 458.31 309.5 457.86 311.06 458.99 312.61 458.9 314.65 459.99 315.59 460.88 315.35 462.18 316.42 464.13 314.97 466.4 316.16 467.68 315.51 468.1 316.73 471.45 317.63 471.69 319.1 473.7 320.11 475.97 322.19 476.78 324.17 478.83 324.6 480 325.82 480.22 327.48 481.01 329.04 482.6 329.12 483.42 331.66 482.99 332.47 484.46 334.62 485.47 334.42 486.69 335.66 487.03 337.55 485.85 339.53 485.6 341.22 483.41 341.47 480.31 341.36 451.41 341.61 448.68 341.65 448.67 335.57 447.23 335.56 447.42 307.78"/><path class="g" d="M664.39,786.52l5.59-5.16,4.35-4.08,3.86-3.09,2.24-3.99,.6-3.59,.02-2.6,1.46-2.44-1.74-1.76-2.48,.82-.47-.92,1.13,.27-.56-1.78,.91,.21,2.58-1.37,2.55,.35,.64-1.52h1.29v-1.73l1.27-1.33v-1.6h.23l-.06,.33,.9,1.49,2.22-.42,3.87-2.6,1.48-2.59,.15-.34,.36-.18,.25,.03,.47,.29,.23,.54,.15,.18-2.59,4.64-3.49,5.91-2.47,6.27-3.93,4.34-3.36,2.75-3.51,4.08-6.35,6.53-6.92,5-.86-.94Zm-6.68,4.49l1.81-1.34,1.96-2.33,.5-.94,.41,.86,.76,1.64-1.43,1.91-2.39,1.43-1.62-1.24Zm-7.97,4.74l.05-1.3,1.34-.48,1.34-1.15,1.95-.63,.98,.3-.62,1.44-.18,.57-.45,.52-1.97,.95-2.06-.16-.33,.03-.04-.1Zm-41.77,12.25l1.3-.08,.61,1.28,1.27,1.22,.82,1.87-.2,1.01-1.5-.47-.58-.12-.56-.39-1.14-1.87-.04-2.06-.07-.33,.09-.05Zm-12.3,8.76l1.07-.75,1.19,.78,1.72,.38,1.68,1.17,.35,.97-1.53,.37-.56,.2-.68-.04-1.95-1-1.11-1.74-.23-.25,.05-.09Zm-14.03,7.53l-.28-1.27,1.18-.8,1.01-1.44,1.73-1.1,1.03,.05-.24,1.55-.03,.6-.3,.61-1.67,1.41-2.03,.36-.31,.11-.07-.08Zm18.35-16.57l1.3-.08,.61,1.28,1.27,1.22,.82,1.87-.2,1.01-1.5-.47-.58-.12-.56-.39-1.14-1.87-.04-2.06-.07-.33,.09-.05Zm27.75-3.42l3.24-1.54,3.44-1.66,4.25-1.49,4.15-2.2,2.3,.72-.58,1.57-8.69,3.73-4.3,2.38-2.36,.11-1.46-1.62Zm-27.62-97.4h9.99l37.85-.18v39.32l.88-.02,.34,10.77v5.9h-.01l-1.39,.2-1.98,1.09-.12,.73,.22,.55-.13,.71-1.23-.14-2.19,.61-1.14-.11-1.15,.15-2.2,.86-.84-.1-1.08-.35-2.21,.1-2.36,.84-1.18-.73-1.4-1.63-.7-.61-1.04-.35-.6-.67-.1-1.7-.36-.9-.7-1.33-1.33-1.26,.09-2.09,.21-.65,.5-3.26,.22-.78,.56-.62,.27-1.11-.24-.6,.31-.71,.64-.74,.5-.17,1,.38,.26-.58,.08-.87-.9-2.27-1.04-.08-.73-.52v-1.06l.27-.45,.03-.29-1.76-5.01-.86-1.03-1.01-.83-1.31-1.8-.16-1.06,.56-1.54-.1-.42-.4-.86-1.3-.88-.57-1.33-.03-1.18-.6-1.11-2.49-1.36-.11-2.11-1.33-1.78-.07-2.63-1.73-1.37-2.12,.89-.99,.27-.44-1.22,.06-2.25-2.17-1.85-.12-2.43-2.46-.6-.77-.91-3.58-.86Zm-43.91,111.9l3.06-.48,4.68-1.24,2.58-.86,.95,.76-1.05,1.05-1.91,2.2-4.87,1.05-3.53-.57,.1-1.91Zm-12.01-1.79l1.1-1.14,.61-1.51,.61-.31,.82-.05,1.69,.81,.25,.32,.13,1.07-.4,1-.99,1.06-3.43,.08-.46-.35,.06-.99Zm-61.8-6.13l1.35-.31,2.95-.65,1.33,1.69-2.48,1.17-3.25-.38,.1-1.53Z"/><polygon class="g" points="582.27 321.2 583.1 317.13 583.09 313.91 585.48 313.89 587.62 312.76 591.07 313.46 592.12 314.23 594.44 314.03 594.46 315.54 602.89 315.37 602.64 301.73 603.13 301.74 607.22 301.67 609.17 310.07 612.92 328.01 614.02 331.79 614.53 333.04 615.53 334.4 616.02 336.01 616.48 338.32 616.53 339.87 616.58 341.8 616.6 341.9 616.68 342.39 617.12 345.13 618.39 349.34 619.35 351.61 620.64 355.68 619.48 355.69 617.88 356.75 616.64 356.09 615.08 357.55 613.82 357.49 612.84 358.31 611.69 357.27 611.71 359.84 595.67 360.14 595.58 350.97 595.54 347.46 594.26 346.49 592.22 343.44 591.05 339.99 590.86 339.58 589.61 336.72 588.86 332.99 589.59 330.91 589.19 328.66 587.54 326.88 583.82 324.5 582.88 323.62 582.27 321.2"/><polygon class="d" points="502.72 467.24 503.36 466.55 503.95 464.75 504 464.35 503.84 463.57 503.54 463.26 503.6 461.51 503.71 460.75 504.06 460.57 504.14 460.37 504.62 459.23 504.22 458.78 504.22 458.38 504.59 457.11 504.83 455.02 504.03 453.58 503.18 449.82 503.64 445.54 516.62 445.51 523.77 445.49 523.82 448.15 536.25 447.99 535.31 449.03 536.73 449.7 536.44 450.77 539.58 454.8 540.36 456.55 541.55 456.42 544.1 457.48 544.84 456.62 546.3 457.34 546.89 459.09 548.6 459.32 549.59 461.01 551.95 460.45 553.02 461.37 553 465.3 537.15 465.27 537.03 469.29 521 469.38 505.97 469.38 502.85 469.41 502.92 469.33 503.17 468.63 502.72 467.24"/><polygon class="d" points="647.27 525.08 648.29 525.08 677.2 525.12 678.64 522.16 681.55 522.16 682.18 521.6 682.17 521.7 687.27 532.57 689.84 541.41 689.94 542.7 690.43 543.8 691.51 545.5 692.01 548.07 692.29 549.14 690.11 549.15 663.48 549.04 655.66 549.02 655.58 541.36 647.94 541.44 647.39 533.15 647.27 525.08"/><polygon class="d" points="463.69 390.92 465.14 389.18 465.82 387.69 467.43 388.32 468.64 387.55 469.1 386.5 469.77 386.88 472.17 385.34 471.25 384.93 471.95 384.2 471.76 383.2 474.15 381.77 475.19 380.75 474.94 378.83 476.97 374.94 478.29 374.13 478.53 369.82 479.49 369.39 478.97 367.64 481.05 366.27 481.5 363.85 482.07 363.03 488.56 363.01 495.28 363.61 496.57 364.27 496.61 365.68 504.65 365.46 504.65 368.16 512.59 367.98 512.67 370.34 512.65 373.29 517.51 373.45 524.72 372.83 524.81 384.26 524.99 397.67 522.03 397.7 514.41 397.75 514.35 413.38 511.03 414.92 509.69 414.74 509.01 416.26 508.16 416.65 504.94 415.38 503.11 415.09 501.96 414.38 500.17 414.67 498.89 416.14 496.69 417.33 496.41 418.12 496.28 418.13 495.99 417.53 496.37 416.89 496.84 415.06 496.34 412.52 494.45 411.56 494.67 410.74 491.75 410.49 491.21 408.41 492.34 407.88 493.01 407.84 493.18 407.33 493.2 406.97 492.65 405.56 492.73 404.02 490.93 402.93 488.43 402.58 486.1 402.63 483.25 401.89 482.47 402.06 481.43 402.07 479.07 401.78 478.68 401.7 478.07 400.94 477.71 400.89 477.34 401.12 475.57 403.58 475.5 404.51 474.59 405.18 472.76 405.47 472.47 404.05 471.55 403.42 472.14 401.78 472.12 401.31 471.79 400.53 470.69 399.39 469.98 397.59 471.03 394.69 470.83 394.01 469.88 392.98 468.4 392.76 466.94 391.85 466.75 391.49 465.27 390.89 465 390.84 464.12 391.13 463.69 390.92"/><polygon class="d" points="455.15 266.32 461.97 266.79 463.01 266.86 463.91 266.91 464.48 266.95 466.06 267.09 466.47 267.13 486.77 268.48 486.89 268.49 501.23 269.49 501.25 269.49 501.98 269.54 500.61 270.79 500.6 271.73 499 273.13 499.98 275.68 498.91 275.82 499.94 278.15 500.51 278.05 501.31 281.01 502.59 281.36 502.73 282.29 503.94 283.01 503.53 283.85 504.94 285.24 505.39 288.47 504.53 288.77 504.17 290.74 502.21 292.41 502.63 293.31 501.95 294.21 500.89 294.26 499.71 295.3 499.16 294.15 498.05 294.89 497.39 295.67 496.08 294.42 494.03 295.06 493.54 293.85 493.13 293.17 492.23 293.84 490.53 292.94 489.54 293.48 488.52 291.86 486.51 291.23 485.6 290.34 485.97 289.29 484.6 289.09 484.42 289.81 479.75 286.35 478.42 286.21 476.87 285.24 476.43 285.86 474.28 285.11 470.93 285.58 470.28 284.43 467.22 284.94 466.22 286.2 464.56 286.38 464.31 287.93 463.3 289.36 462.57 287.03 461.32 286.4 460.38 286.68 459.21 285.8 459.54 282.77 458.89 281.64 457.45 281.16 457.79 277.25 457.2 274.93 456.08 273.73 456.46 273.11 455.92 271.11 456.41 270.62 455.15 266.32"/><polygon class="f" points="411.1 296.07 413.32 295.52 413.79 294.34 412.42 292.35 412.21 290.62 413.15 289.28 413.68 289.64 416.18 289.33 416.68 287.27 419.04 284.78 418.51 282.89 418.56 279.57 417.82 277.95 418.69 276.52 420.43 276.51 420.44 275.11 423.11 275.11 423.11 273.73 425.81 273.75 425.82 272.36 427.12 272.38 427.15 271.01 428.48 271.02 428.47 265.76 427.88 264.54 436.86 265.06 440.96 265.37 441.67 265.4 442.51 265.45 442.52 265.45 445.69 265.66 446.54 265.72 448.29 265.84 449.63 265.93 451.99 266.1 452.16 266.11 452.18 266.12 455.15 266.32 456.41 270.62 455.92 271.11 456.46 273.11 456.08 273.73 457.2 274.93 457.79 277.25 457.45 281.16 458.89 281.64 459.54 282.77 459.21 285.8 460.38 286.68 461.32 286.4 462.57 287.03 463.3 289.36 461.58 290.32 461.1 292.8 459.94 293.16 460.17 296.19 458.71 297.35 457.17 300.95 447.52 300.97 439.33 300.98 439.37 296.9 411.12 296.96 411.1 296.07"/><polygon class="f" points="390.61 299.75 390.68 284.78 393.36 281.13 393.37 276.62 398.49 276.59 398.36 273.93 396.81 271.89 396.06 268.46 396.08 262.6 406.29 263.18 406.3 263.18 406.35 263.18 408.31 263.31 411.06 263.48 411.9 263.55 417.27 263.88 422.65 264.2 422.86 264.22 427.88 264.54 427.88 264.54 428.47 265.76 428.48 271.02 427.15 271.01 427.12 272.38 425.82 272.36 425.81 273.75 423.11 273.73 423.11 275.11 420.44 275.11 420.43 276.51 418.69 276.52 417.82 277.95 418.56 279.57 418.51 282.89 419.04 284.78 416.68 287.27 416.18 289.33 413.68 289.64 413.15 289.28 412.21 290.62 412.42 292.35 413.79 294.34 413.32 295.52 411.1 296.07 411.12 296.96 409.72 299.08 408.17 299.78 406.19 300.31 404.52 302.17 403.44 302.4 403.28 305.2 402.22 307.61 400.59 307.87 399.86 311.02 398.84 311.61 399.2 312.53 397.31 316.24 397.35 317.38 396.62 316.24 394.73 315.58 392.76 315.59 391.62 315.76 390.57 316.31 390.61 299.75"/><polygon class="f" points="237.04 285.79 238.88 284.26 241.33 283.8 242.7 284.39 243.9 283.89 244.85 281.35 245.77 281.75 247.23 279.58 246.58 278.04 245.57 278.19 245.07 276.8 245.62 273.42 244.93 273.08 244.37 270.6 242.72 269.63 243.34 268.02 242.78 265.88 244.75 264.06 246.64 263.43 245.96 261.88 248.47 259.69 250.22 256.36 249.4 255.27 250.3 251.5 252.82 251.54 255.9 251.59 255.89 252.91 257.25 252.95 257.17 255.65 266.58 255.89 266.49 253.45 267.85 250.96 268.11 247.78 277.57 247.88 277.53 251.96 281.58 252 281.35 267.02 281.38 272.36 277.24 272.35 277.11 284.53 247.74 284.19 246.38 286.14 245.29 287.02 243.39 287.44 242.27 286.51 240.77 287.18 238.78 286.98 237.42 288.71 236.55 288.98 237.04 285.79"/><polygon class="g" points="548.86 485.32 552.93 485.35 552.91 480.43 555.74 479.43 557.82 479.96 558.53 481.11 560.78 480.79 560.8 477.47 568.84 477.4 568.83 475.95 574.2 475.95 574.21 477.36 584.93 477.3 584.94 484.84 584.94 485.32 592.95 485.31 593.44 486.25 595.64 490.63 595.62 495.93 599.97 495.89 600.01 495.89 601.09 495.9 601.13 501.21 609.91 501.23 609.9 502.11 608.27 503.33 608.52 505.5 607.55 506.26 607.01 507.81 606.09 506.39 605.14 506.3 602.99 505 602.12 503.55 600.82 504.24 600.88 505.32 602.37 505.86 603.63 507.8 604.37 509.11 606.67 508.64 607.49 510.92 609.64 512.24 610.7 513.53 610.54 515.19 612.94 516.05 612.44 517.92 613.15 519.29 613.49 521.48 615.14 521.9 616.93 522.95 619.26 523.28 621.02 525.21 621.97 527.96 623.85 530.8 623.41 531.49 624.46 532.33 624.19 533.85 626.02 535.25 625.78 536.93 626.15 538.95 627.15 539.7 627.18 540.8 626.33 541.35 595.17 541.07 592.47 541.05 553.02 541.07 552.98 517.33 552.95 515.57 552.95 515.56 552.94 513.23 552.88 504.61 552.85 498.63 552.87 493.31 548.89 493.3 548.86 485.32"/><polygon class="g" points="505.07 493.16 519.28 493.28 520.31 493.29 522.64 493.36 524.4 493.34 525.73 493.34 536.52 493.32 548.89 493.3 552.87 493.31 552.85 498.63 552.88 504.61 552.94 513.23 552.95 515.56 552.95 515.57 552.98 517.33 553.02 541.07 520.93 541.11 515.22 541.16 515.21 541.16 512.84 541.17 514.23 538.66 515.25 537.02 516.07 535.7 517.62 534.48 517.83 534.47 518.62 534.4 519.01 534.12 519.12 533.49 519.05 533.01 518.64 532.33 518.95 532.01 520.63 531.43 522.47 530.36 522.68 530.02 522.52 529.48 523.72 527.69 523.77 526.83 524.38 526.14 525.02 525.97 525.77 523.74 525.78 523.72 525.45 522.43 525.04 519.62 524.13 517.91 522.65 517.92 522.23 517.77 521.1 517.35 520.43 516.98 520.46 516.5 520.26 516.21 518.98 515.52 518.03 516.25 517.93 516.72 518.22 518.49 518.17 521.35 518.81 522.29 519.49 522.82 519.72 523.19 519.43 525.07 519.2 525.22 518.03 525.07 516.31 524.58 512.88 522.72 512.96 521.43 514.11 521.23 514.54 520.7 514.81 520.08 514.05 519.4 513.77 518.89 513.86 518.61 514.34 518.22 514.7 517.68 514.5 515.04 513.9 513.58 512.88 511.94 511.11 511.72 507.11 508.93 505.87 507.41 505.28 507.09 505.28 505.42 505.11 495.74 505.07 493.16"/><path class="e" d="M493.29,491.83l2.82-2.85-.15-.1,.03-2.21,.4-.88,1.04-.65,1.08-2.8-.21-.77,.32-2.25,1.06-1.58,.19-.29,.78-2.06-.02-3.04,.71-1.72,1.07-.72,.43-.5,3.12-.04h15.03l16.03-.09,.12-4.02,15.85,.04-.07,12.12-.02,3,.02,4.92-4.07-.03,.03,7.99-12.37,.02-10.79,.02h-1.33l-1.76,.02-2.33-.07h-1.03l-14.21-.13h-3.85l-8.52,.1,.59-1.42Zm-4.61-2.27l.38-.43,1.08,.66,.23,3.49-1.1,.02-.36-.05h-.16l-.07-3.68Z"/><polygon class="d" points="443.91 356.03 445.01 355.38 447.59 356.14 447.71 355.12 448.8 353.49 449.32 350.48 449.26 348.94 449.99 347.35 451.36 345.72 451.41 341.61 480.31 341.36 483.41 341.47 482.23 342.83 483.43 344.21 482.26 344.97 481.08 347.93 481.97 348.85 481.08 350.53 481.91 352.88 480.85 352.6 480.32 355.74 480.91 356.49 480.49 358.62 479.2 359.97 479.31 361.42 480.66 363.54 482.07 363.03 481.5 363.85 481.05 366.27 478.97 367.64 479.49 369.39 478.53 369.82 478.29 374.13 476.97 374.94 474.94 378.83 475.19 380.75 474.15 381.77 471.76 383.2 471.95 384.2 471.25 384.93 472.17 385.34 469.77 386.88 469.1 386.5 468.64 387.55 467.43 388.32 465.82 387.69 465.14 389.18 463.69 390.92 463.41 390.79 462.83 388.59 462.71 387.32 462.82 387.2 462.93 385.78 461.8 384.05 460.91 383.09 460.77 381.19 459.51 378.79 457.71 377.62 455.82 377.37 455.18 377.7 453.35 377.18 452.36 375.17 452.3 374.32 452 373.7 451.06 373.59 450.43 373.7 448.9 372.43 448.37 371.46 447.28 371.46 446.56 371.12 446.18 370.25 444.87 369.86 444.77 369.3 444.91 368.4 444.47 364.22 444.48 362.62 444.93 361.01 444.56 358.44 443.91 356.03"/><polygon class="g" points="520.46 270.8 523.73 271.03 527.27 271.29 534.3 271.81 536.65 271.98 537.31 272.05 540.13 272.26 540.13 272.27 540.16 272.41 539.83 272.65 539.47 272.76 539.13 272.97 538.75 273.41 538.46 274.47 538.44 275.19 538.51 275.58 538.85 276.16 538.96 276.72 538.88 277.04 539.15 277.7 539.31 277.93 539.83 278.27 540.29 278.78 540.8 279.42 541.2 280.04 541.24 281.04 540.95 281.56 540.7 282.34 540.71 282.68 540.83 282.81 540.93 283.15 541 283.83 540.8 284.53 540.53 284.92 540.49 285.69 540.99 287.86 541.89 289.96 542.13 290.22 542.62 290.43 542.92 290.9 543.61 291.72 543.73 291.81 544.12 291.89 544.39 291.91 544.68 291.72 545.88 291.39 548.04 291.02 548.97 290.93 549.15 290.98 549.24 291.1 549.21 291.21 549.78 291.63 550.87 291.82 551.88 291.78 552.57 291.68 553.37 291.49 553.38 291.48 553.44 299.76 553.42 307.81 553.42 311.88 545.93 311.88 528.51 312.24 521.74 312.35 520.56 312.5 520.56 309.89 520.66 284 520.44 270.8 520.46 270.8"/><polygon class="d" points="493.07 331.47 494.24 329.37 496.2 328.37 496.29 326.45 493.59 326.45 493.54 293.85 494.03 295.06 496.08 294.42 497.39 295.67 498.05 294.89 499.16 294.15 499.71 295.3 500.89 294.26 501.95 294.21 502.63 293.31 502.21 292.41 504.17 290.74 504.53 288.77 505.39 288.47 504.94 285.24 503.53 283.85 503.94 283.01 502.73 282.29 502.59 281.36 501.31 281.01 500.51 278.05 499.94 278.15 498.91 275.82 499.98 275.68 499 273.13 500.6 271.73 500.61 270.79 501.98 269.54 502 269.54 510.46 270.09 511.65 270.17 511.95 270.2 512.94 270.27 513.59 270.32 514.3 270.37 515.21 270.43 520.44 270.8 520.66 284 520.56 309.89 520.56 312.5 521.03 313.67 520.75 315.37 519.77 316.17 517.36 316.91 515.69 318.12 514.37 320.06 513.6 323.32 511.34 324.18 511.11 326.02 511.65 327.49 512.77 328.51 514.54 329.03 514.83 330.65 513.87 332.08 512.82 331.8 510.92 332.98 511.12 334.92 509.78 335.6 510.26 337.53 507.76 339.32 506.67 339.16 506.39 340.6 505.04 341.34 504.47 340.92 501.65 340.54 500.25 339.31 498.23 338.14 496.89 336.28 496.46 334.56 495.64 334.72 495.17 333.36 495.49 331.84 494.67 332.06 493.76 331.16 493.07 331.47"/><path class="g" d="M696.41,747.08l1.64-3.79,3.97-8.05,1.94-3.19-.05,3.14-2.18,6.35-3.73,6.2-.11,.2-.15-.18-.23-.54-.47-.29-.25-.03-.36,.18Zm-48.47-27.95v-12.42l.02-15.55,15.5,.06v1.96h19.98l4.52-.02h5.18l1.26,.03-.02-1.23,3.9-.12,1.38-.04,1.88-.03,3.25-.1,1.42-.06h1.94l.49-.07v5.31l-.25,2.91,.02,.95,.07,2.81-.19,2.06-.43,2.38-.05,1.69-.36,.93-.31,.79-.09,.24-.52,.85-.71,3.39-.1,1.75,.14,.58-.21,1-.48,.05-1.29-1.8,.52-2.27,.48-1.01-.14-.63-.52-.79-.95-.69-1.05,.11-2.53,1.06-.91,.74-.33,.63-.48,2.59-1.24,2.64-.04,.22-.06,.36-.81,1.32-.91,.58-.67,.74-.38,.79-.33,1.8v1.59l.29,.69-.95,2.54-.86,.32-.04,.03-.05,.04-.25,.2-.86,2.96v1.85l.19,1.16,.71,2.01,.62,.53-.48,1.27,.05,2.22,.43,.58,.81,.16,.29,.47-.29,1-2,3.06-1.38,.79-.74,.21-1,.9-.18,1.02h-.21v1.6l-1.29,1.33v1.72h-1.28l-.64,1.53-2.55-.35-2.58,1.37-.91-.21,.56,1.78-1.13-.27,.47,.92-.76-.6-.78-1.12-.57-.21-1.67,1.35-2.16,.3-1.14,.16-.34,.05-1.78,.03-2.34,.86-2.02,.3-1.09,1.59-2.05,1.4-.8,.12-.91-1.26-1.53,.21-.03,1.26-.31,.21-3-1.91-.76-1.19-1.41-.33-.81,1.05-1.48-.23-.66-.13-.73,.15v-5.9l-.34-10.77-.88,.02v-26.91Z"/><polygon class="f" points="647.29 659.44 694.2 659.39 694.24 659.39 694.25 657.5 698.04 658.75 701.71 659.98 704.42 659.98 704.43 659.98 704.46 659.98 708.45 659.98 710.13 659.99 710.17 660.42 710.66 660.11 712.09 660.59 712.06 660.8 711.69 665.67 711.23 667.02 710.93 668.58 709.96 676.11 709.65 680.72 709.54 680.98 709.3 681.53 708.64 690.55 708.64 691.55 708.15 691.61 706.22 691.61 706.21 691.61 704.79 691.67 701.53 691.77 699.66 691.8 698.28 691.84 694.39 691.96 694.4 693.19 693.15 693.16 691.85 693.16 687.97 693.16 687.97 693.16 683.44 693.17 682.8 693.18 663.46 693.18 663.46 691.23 647.96 691.17 647.46 673.89 647.46 673.86 647.41 666.1 647.29 659.44"/><polygon class="f" points="397.31 316.24 399.2 312.53 398.84 311.61 399.86 311.02 400.59 307.87 402.22 307.61 403.28 305.2 403.44 302.4 404.52 302.17 406.19 300.31 408.17 299.78 409.72 299.08 411.12 296.96 439.37 296.9 439.33 300.98 447.52 300.97 447.56 306.49 447.42 307.78 447.23 335.56 448.67 335.57 448.68 341.65 451.41 341.61 451.36 345.72 449.99 347.35 449.26 348.94 449.32 350.48 448.8 353.49 447.71 355.12 447.59 356.14 445.01 355.38 443.91 356.03 443.87 355.88 443.71 355.69 441.98 355.06 441.31 355.08 441.02 355.25 440.44 355.14 438.21 353.85 438.18 353.1 437.36 352.19 435.83 351.44 433.83 350.83 433.07 349.98 432.44 349.02 431.55 347.28 430.51 346.64 430.05 345.92 429.94 345.13 430.18 344.89 430.27 344.44 429.95 342.62 429.18 341.12 428.4 340.34 427.33 339.79 425.77 335.74 424 334.49 422.45 332.73 421.88 332.24 416.18 329.07 413.66 327.31 410.44 326.73 409.1 325.35 402.18 321.55 402.01 321.35 402.15 321.07 402.03 320.87 399.92 319.14 397.35 317.38 397.31 316.24"/><polygon class="f" points="285.1 292.77 285.47 272.42 302.51 272.66 302.85 268.58 321.74 268.73 320.75 269.75 320.59 271.2 319.1 271.18 319.36 272.73 318.43 273.72 317.12 276.35 317.04 278.26 316.33 281.23 317.33 281.93 316.33 282.74 317.67 284.08 315.1 284.78 313.67 286.09 315.17 287.14 314.13 287.46 315.15 288.51 314.21 290.25 313.09 290.58 314.08 291.63 312.88 292.41 312.32 293.89 312.6 295.41 313.57 296.13 312.5 296.1 311.72 297.17 312.08 298.46 311.18 300 311.57 300.71 310.15 301.85 309.78 303.94 308.92 304.03 308.05 305.5 306.82 305.62 307.03 306.6 285.54 306.47 285.01 306.5 285.1 292.77"/><polygon class="f" points="304.67 315.94 304.34 314.91 305.86 314.08 304.68 313.74 305.62 311.64 305.08 309.99 305.58 308.29 307.03 306.6 306.82 305.62 308.05 305.5 308.92 304.03 309.78 303.94 310.15 301.85 311.57 300.71 311.18 300 312.08 298.46 311.72 297.17 312.5 296.1 313.57 296.13 312.6 295.41 312.32 293.89 312.88 292.41 314.08 291.63 313.09 290.58 314.21 290.25 315.15 288.51 314.13 287.46 315.17 287.14 313.67 286.09 315.1 284.78 317.67 284.08 316.33 282.74 317.33 281.93 316.33 281.23 317.04 278.26 317.12 276.35 318.43 273.72 319.36 272.73 319.1 271.18 320.59 271.2 320.75 269.75 321.74 268.73 325.7 268.81 325.75 275.57 331.12 275.57 331.14 276.93 333.85 276.92 333.91 282.41 339.3 282.35 339.29 286.38 341.99 286.37 341.98 289.1 344.73 289.07 342.08 290.94 341.64 292.63 339.21 294.21 340.33 295.49 339.36 297.28 338.03 298.58 337.39 300.49 340.57 302.43 340.35 303.62 341.88 304.95 342.18 307.7 342.98 308.26 342.63 311.2 342.81 313.27 344.57 315.14 344.08 315.89 345.42 317.4 346.37 319.38 347.68 319.63 349.18 322.42 352.93 324.15 315.71 323.88 315.9 324.15 314.28 327.82 313.95 326.39 312.25 326.01 311.98 325.05 310.54 324.73 309.47 323.81 307.18 323.02 305.45 321.16 305.32 317.18 303.94 316.63 304.67 315.94"/><polygon class="e" points="488.74 493.25 488.9 493.25 489.27 493.3 490.37 493.28 490.6 496.78 492 503.77 494.49 503.85 494.41 499.26 494.61 497.32 494.18 495.73 493.85 495.05 493.18 495.12 492.43 494.84 492.7 493.26 501.22 493.16 503.38 493.15 505.07 493.16 505.11 495.74 505.28 505.42 505.28 507.09 503.58 506.17 501.94 506.44 502.81 508.94 501.73 510.41 501.51 510.86 500.65 512.59 499.81 512.72 499.49 512.96 499.2 513.66 499.42 514.38 499.53 514.73 500.34 515.46 501.27 515.91 501.62 516.08 502.34 516.55 503.45 516.85 506.03 517.52 506.43 517.7 506.6 518.85 508.37 520.45 509.3 521.89 509.59 523.18 510.04 523.88 510.26 525.61 508.58 527.22 507.87 528.22 507.35 528.95 506.83 530.91 506.73 531.31 507.17 533.24 507.11 533.75 506.48 535.24 505.98 535.85 504.96 536.18 504.12 536 504.1 535.98 503.42 535.67 502.96 535.64 502.81 536.66 502.81 536.69 501.64 536.18 500.05 536.33 499.63 536.93 499.29 538.82 499.4 539.48 499.83 540.61 500.13 541.05 501.3 541.75 500.74 542.98 498.48 544.1 498.2 543.7 497.53 541.03 497.47 539.8 498.05 538.16 498.09 535.59 497.9 534.55 497.43 533.36 496.83 532.91 496.25 532.1 495.52 530.04 494.46 528.6 493.89 527.89 491.46 525.88 490.81 525.1 490.16 523.8 489.37 522.19 489.16 521.38 489 519.28 489.26 517.11 489.82 514.67 489.82 514.66 490.58 512.39 490.75 507.21 490.82 505.17 489.62 499.99 488.75 493.85 488.74 493.25"/><polygon class="f" points="640.6 452.99 640.33 436.76 650.37 436.67 659.27 436.66 661.07 439.83 666.09 447.05 668.54 451.02 671.19 454.39 671.91 455.54 672.51 457.62 673.03 460.52 675.03 465.28 675.91 467.03 675.78 467.74 672.88 469.02 671.97 469.93 670.87 471.48 670.2 473.32 669.78 475.1 669.62 475.76 669.34 478.27 669.24 480.57 669.37 482.58 669.55 485.45 670.7 492.73 672.59 500.23 674.1 504.5 674.37 505.13 677.21 511.63 682.19 521.49 682.18 521.6 681.55 522.16 678.64 522.16 677.2 525.12 648.29 525.08 648.25 501.23 648.77 500.57 648.89 485.96 648.77 477.26 646.72 473.79 647.15 471.72 645.69 469.44 646.04 467.64 646.01 467.63 646.21 466.35 648.12 465.91 647.2 464.1 647.32 463 645.89 462.44 643.05 459.61 643.36 457.59 642 455.57 641.61 453.74 641.16 454 638.77 452.99 640.6 452.99"/><polygon class="e" points="172.29 261.38 172.83 232.19 176.07 232.26 177.43 232.21 177.52 232.2 177.67 232.2 179.21 232.41 180.65 232.42 181.45 232.42 182.55 232.42 190.35 232.37 190.68 232.36 194.18 232.54 194.75 232.5 195.78 232.53 199.13 232.47 199.42 232.49 203.42 232.47 204.46 232.46 204.73 232.45 204.73 232.45 204.5 257.21 204.04 289.98 202.85 289.81 198.13 289.48 195.29 289.63 193.45 289.2 185.1 288.33 175.62 288.74 174.45 288.88 171.79 289.22 172.29 261.38"/><polygon class="f" points="338.03 298.58 339.36 297.28 366.26 297.04 366.55 296.97 373.7 296.98 376.24 296.99 377.29 299.69 390.61 299.75 390.57 316.31 390 316.6 389.68 316.62 389.07 316.36 388.42 316.48 387.53 317.24 386.64 316.76 385.77 317.46 384.04 318.42 383.19 318.54 382.28 318.38 380.72 317.01 380.48 317 380.34 317.2 379.96 317.3 377.63 317.23 376.94 316.54 376.79 315.78 376.07 315.54 375.03 316.1 374.78 316.6 374.66 317.46 374.95 318.17 374.92 318.85 374.41 319.58 373.4 319.86 372.74 319.84 369.59 322.17 367.26 324.37 367.59 326.31 367.75 326.59 368.74 326.64 369.11 327.48 369.26 328.81 361.53 327.3 360.98 326.86 360.32 327.84 359.09 325 357.18 326.37 355.36 326.18 354.57 326.87 354.98 325.62 353.99 324.49 352.93 324.15 349.18 322.42 347.68 319.63 346.37 319.38 345.42 317.4 344.08 315.89 344.57 315.14 342.81 313.27 342.63 311.2 342.98 308.26 342.18 307.7 341.88 304.95 340.35 303.62 340.57 302.43 337.39 300.49 338.03 298.58"/><path class="f" d="M342.87,344.2l2.48-.57,3.25-1.81,1.72-1.53,.95,.19v2.29l-1.53,1.53-3.25,1.43-3.06,.48-1.53-.95,.95-1.05Zm-44.43,9.73l1.3-2,7.78-6.07,2.43,.76,.85-1.47,2.36,.4,.27-1.13,1.24-1.39-.07-1.47-.9-.64-.69-4.24-.81-1.6-.2-1.6,2.88-3.77-.6-1.89,1.62-3.68-.19-.26,37.22,.26,1.06,.34,.99,1.14-.4,1.24,.79-.68,1.82,.18,1.91-1.37,1.22,2.84,.67-.98,.55,.44,7.73,1.51,.15,1.37,.23,.32,.22,1.74-.18,1-.6,1.24-.46,.25-2.4,.34-2.09-.75-1.52-.16-.84-.31-.75-.69-.65-1.42-1.5,.42-1.95,.98-1.4-.24-1.92,.6-3.34,2.06-2.08,1.09-.79,.75-2.8,1.93-.67,.85v.34l-1.08,.5-1.14-.22-.65,.21-3.08,2.05-2.03,1.7-.59-.03-4.92,2.83-1.04,.22-2.5,1.25-1.09,.79-.5,1.06-.36-.02-.75-1.21,.94-1.86,1.04-1.58-1.36-1.14-.81-.1-.88,.28-.47,.96-1.4,2.1-.66,.48-1.4,.24-.39,1.42-.66,.54-1.31,.58-3.53,.36-2.81-.74-2.38,.03-1.59,.27,1.69,2.88,2.1,.99,.34,3.06,4.66,1.71,8.88-4.2,8.27-3.16,3.76-3.33,4.01-3.34,.74,1.03-6.78,6.56-8.02,3.37-5.76,3.07-4.5,2.2-3.26,1.09-3.15-2.6-4.56-1.74-6.48-4.04-.27-.03,.21-1.06Z"/><polygon class="d" points="457.17 300.95 458.71 297.35 460.17 296.19 459.94 293.16 461.1 292.8 461.58 290.32 463.3 289.36 464.31 287.93 464.56 286.38 466.22 286.2 467.22 284.94 470.28 284.43 470.93 285.58 474.28 285.11 476.43 285.86 476.87 285.24 478.42 286.21 479.75 286.35 484.42 289.81 484.6 289.09 485.97 289.29 485.6 290.34 486.51 291.23 488.52 291.86 489.54 293.48 490.53 292.94 492.23 293.84 493.13 293.17 493.54 293.85 493.59 326.45 496.29 326.45 496.2 328.37 494.24 329.37 493.07 331.47 490.54 333.27 488.02 333.42 486.69 335.66 485.47 334.42 484.46 334.62 482.99 332.47 483.42 331.66 482.6 329.12 481.01 329.04 480.22 327.48 480 325.82 478.83 324.6 476.78 324.17 475.97 322.19 473.7 320.11 471.69 319.1 471.45 317.63 468.1 316.73 467.68 315.51 466.4 316.16 464.13 314.97 462.18 316.42 460.88 315.35 459.99 315.59 458.9 314.65 458.99 312.61 457.86 311.06 458.31 309.5 457.04 308.09 456.94 306.53 457.74 304.03 456.7 302.99 457.17 300.95"/><polygon class="f" points="561.07 458.6 561.07 456.81 561.12 432.52 561.07 421.17 569.54 421.19 570.07 421.08 576.54 421.09 579.96 421.07 581.82 421.17 584.82 421.14 584.78 413.11 586.43 413.11 586.25 401.98 586.17 392.04 586.8 394.98 587.98 396.47 588.35 398.51 590.09 399.2 592.68 399.09 593.26 400.21 595.06 401.26 597.21 406.13 597.41 408.51 598.47 408.93 600.27 408.61 601.24 409.96 601.12 411.62 601.85 411.77 603.02 413.42 606.24 415.66 607.01 416.73 607.63 418.11 609.25 418.9 608.76 419.63 608.17 421.6 609.39 422.44 609.4 426.99 608.26 428.59 606.98 431.09 604.25 433.6 604.45 437.24 585.8 437.15 584.83 438.89 584.84 441.33 584.94 454.86 585.66 455.64 584.95 457.54 584.92 458.45 584.93 459.09 584.92 465.69 584.93 477.3 574.21 477.36 574.2 475.95 568.83 475.95 568.84 477.4 560.8 477.47 561.07 458.6"/><polygon class="g" points="553.02 541.07 592.47 541.05 592.42 568.77 568.74 568.8 552.91 568.98 553.02 541.07"/><polygon class="f" points="339.21 294.21 341.64 292.63 342.08 290.94 344.73 289.07 344.63 288.48 347.91 286.48 349.16 286.89 350.97 285.48 351.56 284.45 351.72 284.81 354.14 284.18 354.91 283.18 362.89 282.02 363.9 281.17 364.76 280.21 364.14 277.94 365.48 276.21 365.47 276.17 365.39 276.11 365.36 276.06 365.37 275.98 365.43 275.92 365.38 275.89 365.26 275.92 365.25 275.8 365.21 275.72 365.22 275.61 365.26 275.52 365.27 275.38 365.32 275.17 365.4 274.84 365.48 274.65 365.48 274.57 365.54 274.53 365.54 274.46 365.49 274.43 365.46 274.34 365.48 274.06 365.53 273.96 366.83 271.09 369.66 269.7 370.75 267.4 372.25 266.1 372.58 265.35 372.14 262.77 372.73 262.15 372.48 261.84 373.97 261.36 374.07 261.37 376.59 261.47 386.63 262.04 388.02 262.15 389.95 262.25 392.07 262.35 392.93 262.4 393.31 262.43 393.48 262.43 396.08 262.6 396.08 262.6 396.06 268.46 396.81 271.89 398.36 273.93 398.49 276.59 393.37 276.62 393.36 281.13 390.68 284.78 390.61 299.75 377.29 299.69 376.24 296.99 373.7 296.98 366.55 296.97 366.26 297.04 339.36 297.28 340.33 295.49 339.21 294.21"/><polygon class="e" points="527.2 604.4 536.86 604.47 536.88 596.56 551.45 596.64 552.77 596.64 557.99 596.67 558.74 596.35 592.54 596.48 592.55 596.5 592.27 620.3 562.93 620.25 562.91 620.25 552.41 620.22 552.46 619.87 552.46 618.53 552.97 617.33 552.74 615.57 552.69 614.07 552.83 612.26 552.64 610.66 552.04 610.14 550.1 609.57 549.92 607.96 550.15 606.46 550.7 606.04 551.95 606.04 552.41 605.73 552.46 605.06 552.44 604.9 552.32 604.02 551.26 603.3 551.06 603.3 548.72 603.35 547.98 603.66 547.38 604.44 546.36 606.2 544.37 606.25 543.77 606.46 543.31 607.03 543.5 608.79 544.83 612.88 545.57 618.47 545.25 619.04 543.5 619.46 543.03 620.03 542.27 620.18 540.61 620.51 539.71 620.33 539.52 619.18 538.6 619.07 537.89 618.84 536.12 618.51 535.56 618.5 534.16 615.05 533.15 613.81 529.13 607.79 527.2 604.4"/><polygon class="f" points="600.81 447.52 600.83 443.77 602.25 443.65 603.76 441.6 604.45 437.24 604.25 433.6 606.98 431.09 608.26 428.59 609.45 430.14 608.92 431.43 612 432.69 615.81 432.77 619.59 432.86 620.36 435.1 622.08 436.56 623.03 436.09 623.37 437.52 625.18 436.61 626.67 436.66 627.85 434.56 627.61 433.89 629.25 433.24 629.93 433.88 632.33 434.67 633.48 438.28 632.84 440.44 634.82 442.74 634.94 444.12 636.41 445.66 636.04 447.38 636.86 447.95 637.65 450.42 637.18 450.85 638.77 452.99 627.38 453.03 618.09 453.12 617.5 453.1 615.08 453.16 611.4 453.24 611.37 451.22 611.35 450.55 604.38 450.51 601.96 450.52 601.06 450.49 600.81 450.28 600.81 447.52"/><polygon class="f" points="233.15 232.53 236.07 232.58 244.51 232.52 256.05 232.39 256.08 232.35 269.75 232.25 276.27 232.2 276.3 232.2 273.8 234.3 273.71 237.59 272.31 238.26 270.07 241.41 268.52 245.07 268.11 247.78 267.85 250.96 266.49 253.45 266.58 255.89 257.17 255.65 257.25 252.95 255.89 252.91 255.9 251.59 252.82 251.54 250.3 251.5 249.4 255.27 250.22 256.36 248.47 259.69 232.94 259.56 233.15 232.53"/><polygon class="e" points="552.85 580.78 552.91 568.98 568.74 568.8 592.42 568.77 592.54 596.48 558.74 596.35 557.99 596.67 552.77 596.64 552.85 580.78"/><polygon class="e" points="104.98 243.37 105.03 243.14 105.43 242.71 105.62 242.65 105.72 242.45 105.71 242.22 105.58 241.87 105.61 241.51 105.73 241.38 106.11 241.14 106.19 240.88 106.25 240.48 106.44 239.92 106.57 239.72 106.73 239.23 106.76 238.99 107.18 238.07 107.34 237.81 107.53 237.65 107.64 237.43 108.03 236.46 108.26 235.24 108.12 234.78 107.95 234.44 107.86 234.13 107.86 234.01 107.98 233.77 107.92 233.51 107.66 233.07 107.46 232.31 107.48 232.15 107.49 232.15 109.7 232.11 111.53 232.1 113.86 232.14 117.01 232.08 117.06 232.08 117.14 232.08 118.09 232.08 118.09 232.08 118.5 232.08 118.51 232.08 118.75 232.06 118.99 232.07 119.46 232.07 120.87 232.08 121.39 232.09 126.05 232.07 126.35 232.08 127.03 232.07 128.77 232.07 130.52 232.06 131.17 232.08 131.37 232.06 132.22 232.06 132.39 232.07 134.26 232.07 134.67 232.08 134.74 232.08 134.88 232.07 134.95 232.08 135.07 232.08 135.12 232.07 136.5 232.25 137.16 232.2 137.54 232.18 142.46 232 139.14 234.73 137.31 235.55 135.08 238.32 134.13 238 132.55 238.89 132.93 240.3 132.75 242.4 131.62 243.11 130.41 246.21 131.3 246.68 132.06 249.48 130.54 251.9 131.34 254.32 130.51 256.71 131.29 258.18 133.66 258.37 134.27 261.11 134.33 264.69 135.34 267.15 134.8 268.27 136.6 269.64 138.75 273.5 142.12 274.78 142.92 275.41 145.56 278.64 145.6 280.05 144.52 283.14 144.8 285.69 143.9 286.96 143.35 287.44 137.27 289.45 136.8 290.73 136.87 292.71 138.65 293.58 141.23 294.07 143.31 292.79 144.33 292.83 149.61 291.43 162.03 289.23 162.09 290.71 143.12 294.71 139.03 295.34 134.08 295.85 132.88 295.55 131.87 295.1 129.93 295.63 127.44 296.08 121.87 297.56 113.96 299.11 113.95 298.79 114.67 298.02 118.09 297.08 118.31 296.19 116.58 296.46 116 296.19 115.74 295.62 116.18 295.13 116.93 294.82 118.25 294.19 118.4 294.13 118.64 293.91 119.26 293.19 119.37 292.99 119.29 291.68 119.29 291.24 119.33 291.04 119.52 290.74 120.1 290.19 120.36 289.77 120.36 289.65 120.18 289.22 120.15 289.04 120.19 288.77 120.47 288.36 120.71 288.21 120.91 287.68 121 287.53 121.09 287.38 121.36 287.12 121.64 287.04 121.92 287.03 122.4 287.14 122.75 287.16 123.18 287.03 123.32 286.92 123.56 286.57 123.81 286.34 124.56 286.07 124.72 285.97 124.9 285.85 125.78 285.14 126.02 284.87 126.15 284.57 126.12 284.21 125.98 283.82 125.81 283.61 124.98 283.31 124.11 283.17 123.71 283.27 123.47 283.23 123.09 283.05 122.83 282.73 122.28 282.64 121.45 281.87 121.09 281.4 121.01 280.84 120.93 280.74 120.68 280.6 120.6 280.48 120.81 280.07 121.01 279.49 120.96 279.05 120.39 278.16 120.27 278.04 119.99 278.03 119.87 277.96 119.63 277.68 119.62 277.55 119.66 277.48 119.73 277.39 119.83 277.36 119.85 277.27 119.73 276.77 119.72 276.14 120.62 274.08 120.65 274.03 120.94 273.97 121.22 273.61 121.37 273.06 121.59 272.93 121.63 272.93 121.66 273.02 121.78 273 121.96 272.89 122.12 272.47 122.1 272.32 121.98 272.17 121.99 272.13 122.16 271.9 122.3 271.81 122.44 271.83 122.76 270.85 122.94 269.34 123.09 269.01 123.37 268.92 123.52 268.81 123.68 268.51 123.86 267.9 123.86 267.84 123.75 267.75 123.75 267.67 123.81 267.15 123.91 266.98 123.96 266.81 123.98 266.45 123.79 265.22 123.69 264.84 123.77 264.62 123.68 264.25 123.45 263.99 123.41 263.99 122.99 263.11 122.89 262.62 122.94 262.42 122.9 262.31 122.44 262.04 121.89 261.86 121.46 261.54 121.02 261.05 120.57 261.05 120.26 260.88 120.07 260.67 119.96 260.49 119.5 260.09 119.33 260.01 118.89 260.22 118.13 259.91 118.02 259.83 117.81 259.5 117.48 259.37 117.07 258.79 117.05 258.59 116.94 258.45 116.47 258.26 115.69 258.09 115.63 258.11 115.24 257.97 115.01 257.53 114.48 256.85 113.53 256.41 112.81 255.92 112.59 255.34 112.58 254.87 112.49 254.25 112.45 254.14 112.03 253.68 111.72 253.26 111.78 253.06 111.81 252.63 111.24 251.93 111.17 251.86 111.02 251.84 110.65 251.53 110.6 251.36 110.27 250.99 109.95 250.72 109.64 250.59 109.25 249.88 108.85 249.48 108.37 249.23 107.85 249.05 107.35 248.71 107.26 248.29 107.11 247.96 106.93 247.71 106.51 247.59 106.11 247.39 106.16 247.17 106 246.86 105.45 246.36 105.3 246.29 105.2 246.15 105.26 245.78 105.35 245.55 105.28 245.29 105.12 245.01 104.58 244.47 104.98 243.37"/><g><path class="d" d="M715.25,616.28l-.86-4.06-.83-3.12-1.84-6.91-5.01-.03v1.28h-2.09l-29.12-.13h-5.48c.07,1.74,.01,3.9-.17,5.34-.26,2.09-2.62,5.49-3.66,6.54-1.05,1.05-3.4,2.09-3.14,2.88,.26,.78,.52,3.4,.52,4.45s-1.83,1.83-1.83,1.83c0,0-.26,2.35-.78,3.14-.52,.78-1.05,2.88-2.09,1.83s-.52-.78-2.62-1.31-3.66,1.31-4.18-.52-.52-2.35-1.57-2.62c-.7-.18-2.33-.47-3.58-.72l.46,34.19-.15,.18,.05,.92,46.91-.05h.04v-1.89l3.79,1.25,3.67,1.23h6.75l1.68,.02,.03,.43,.49-.31,1.44,.47,.21-1.28,.14-.1,.67-8.07,.02-.23,.02-.29,.09-1.12,.82-5.83,.92-5.37,.18-3.87v-.28l.03-2.59,.03-2.83,.17-1.26,.06-2.29-.37-4.6,.09-.44,.34-.03,.03-.93,.04-1.3-.34-1.61Z"/><path class="d" d="M626.3,545.44l-1.04,.61-1.82,3.06-1.02,.09-1.9,2.5,1.27,1.69-.56,1.82,1.75,.59,1.18,2.2,1.15,.49,1.25,1.82-.24,1.57,1.35,2.09,2.15,1.31,.62-.43,1.79,.14,1.48,1.06-.09,.69,1.34,.35,.02,1.2-.96,.75,.86,.87,.86,2.36,1.65-.02,.51,.62-.07,2.91,.48,1.14,.96,.35-.09,1.34,.9,1.27,1.48-.66,.92,1.7,1.87,1.44,.86,.08-.27,1.28,1.58,.97,.95-.45,.6,1.29v.02c2.38-2.91,5.06-6.29,6.06-5.69,1.31,.78,4.18,2.62,4.18,2.62,0,0,3.41,1.28,5.31,2.69l-.02-4.24-.09-24.05-.06-7.85-7.82-.02-.07-7.66-7.64,.08-21.62-.09-.21,2.38,.18,1.7Z"/><path class="d" d="M695.16,580.94l-3.72,.03-12.02-.06-15.79,.03,.02,4.24c.68,.5,1.16,1.02,1.23,1.5,.26,1.83,1.31,4.18,2.35,7.59,1.05,3.4,2.35,5.49,2.62,7.06,.08,.49,.14,1.2,.17,1.99h5.48l29.12,.12h2.08v-1.28l5.02,.03-1.16-4.34-1.84-4.85-1.75-3.53-.9-2.89-.78-1.79,.1-.11,.39-.43-.65-2.12-2.54-5.13-.5-1.22-6.8-.06-.13,5.21Z"/><polygon class="g" points="616.24 588.61 624.23 588.55 624.16 580.61 640.82 580.51 642.52 580.94 641.6 579.25 640.11 579.9 639.21 578.63 639.31 577.29 638.34 576.93 637.86 575.79 637.93 572.88 637.42 572.26 635.77 572.28 634.91 569.91 634.04 569.05 635 568.29 634.98 567.09 633.64 566.74 633.73 566.05 632.25 564.99 630.46 564.86 629.84 565.29 627.69 563.97 626.33 561.88 626.57 560.31 625.33 558.5 624.18 558.01 623 555.81 621.24 555.22 621.8 553.4 620.53 551.71 622.43 549.2 623.45 549.11 625.27 546.05 626.3 545.44 626.12 543.74 626.33 541.35 595.17 541.07 592.47 541.05 592.42 568.77 592.54 596.48 592.55 596.5 616.28 596.6 616.24 588.61"/><path class="e" d="M600.84,619.03h1.97l-.02,1.32h39.35l.45-1.63c-.34-.3-1-.59-2.29-.92-4.18-1.05-5.75-.26-7.32-2.09-1.57-1.83-3.66-2.62-3.92-4.97-.26-2.35-.52-1.83-.26-3.66,.26-1.83,0-2.09,.52-3.66,.52-1.57-1.31-.26,.52-1.57s2.62-1.57,3.92-2.35,2.09-1.31,2.88-1.83,1.83-1.05,2.35-1.83c.52-.78,2.35-2.88,2.35-2.88,1.83-2.09,2.09-2.09,4.71-4.97,.61-.68,1.32-1.53,2.04-2.42v-.02l-.6-1.29-.95,.45-1.58-.97,.27-1.28-.86-.08-1.87-1.44-1.7-.44-16.66,.11,.07,7.93-7.99,.06,.04,8-23.73-.11-.27,23.8,8.56,.06v-1.32Z"/><path class="e" d="M647.39,658.34l-.46-34.19c-.61-.12-1.14-.24-1.39-.33-.78-.26-1.31-1.57-2.35-2.88-.72-.9,.18-1.56-.58-2.22l-.45,1.62h-39.35l.02-1.3h-1.97v1.32l-8.57-.06-.03,5.4,.09,9.82,.1,7.35v.46h7.51l4.22-.26,11.74-.07,.26,23.68,31.24-.57-.11-6.66-.05-.92,.15-.18Z"/><polygon class="d" points="663.64 580.94 679.42 580.91 691.44 580.96 695.16 580.94 695.29 575.72 702.09 575.79 699.89 570.39 699.34 568.71 697.72 565.22 696.77 561.54 694.55 554.31 693.91 554.31 693.05 552.11 692.29 549.14 690.11 549.15 663.48 549.04 663.54 556.89 663.64 580.94"/></g></g><g id="b"><rect class="h" x="554.78" y="736.66" width="55.25" height="55.25"/><g><path class="i" d="M570.61,758.05h-6.11v-5.29c1.31,0,2.43-.08,3.37-.25,.94-.17,1.75-.44,2.42-.82s1.21-.9,1.64-1.55c.43-.65,.78-1.45,1.05-2.39h6.11v32.27h-8.48v-21.97Z"/><path class="i" d="M590.21,758.05h-6.11v-5.29c1.31,0,2.43-.08,3.37-.25,.94-.17,1.75-.44,2.42-.82s1.21-.9,1.64-1.55c.43-.65,.78-1.45,1.05-2.39h6.11v32.27h-8.48v-21.97Z"/></g><rect class="f" x="726.62" y="653.48" width="55.25" height="55.25"/><g><path class="i" d="M739.77,674.87h-6.11v-5.29c1.31,0,2.43-.08,3.37-.25,.94-.17,1.75-.44,2.42-.82s1.21-.9,1.64-1.55c.43-.65,.78-1.45,1.05-2.39h6.11v32.27h-8.48v-21.97Z"/><path class="i" d="M753.74,672.96c.44-2.13,1.11-3.81,2.01-5.06,.9-1.25,2.04-2.11,3.42-2.6,1.38-.49,3.01-.73,4.9-.73s3.52,.24,4.9,.73,2.52,1.35,3.42,2.6c.9,1.25,1.56,2.93,2.01,5.06,.44,2.13,.66,4.82,.66,8.07s-.22,5.98-.66,8.09c-.44,2.11-1.11,3.78-2.01,5.01s-2.04,2.07-3.42,2.53c-1.38,.46-3.02,.68-4.9,.68s-3.52-.23-4.9-.68c-1.38-.46-2.52-1.3-3.42-2.53-.9-1.23-1.57-2.9-2.01-5.01-.44-2.11-.66-4.81-.66-8.09s.22-5.94,.66-8.07Zm8.41,18.02c.39,.81,1.03,1.21,1.91,1.21s1.52-.4,1.91-1.21c.39-.8,.59-2.35,.59-4.63v-10.66c0-2.28-.2-3.82-.59-4.63-.4-.8-1.03-1.21-1.91-1.21s-1.52,.4-1.91,1.21c-.4,.81-.59,2.35-.59,4.63v10.66c0,2.28,.2,3.82,.59,4.63Z"/></g><g><path class="i" d="M772.73,740h-6.11v-5.29c1.31,0,2.43-.08,3.37-.25,.94-.17,1.75-.44,2.42-.82s1.21-.9,1.64-1.55c.43-.65,.78-1.45,1.05-2.39h6.11v32.27h-8.48v-21.97Z"/><path class="i" d="M786.7,738.09c.44-2.13,1.11-3.81,2.01-5.06,.9-1.25,2.04-2.11,3.42-2.6,1.38-.49,3.01-.73,4.9-.73s3.52,.24,4.9,.73,2.52,1.35,3.42,2.6c.9,1.25,1.56,2.93,2.01,5.06,.44,2.13,.66,4.82,.66,8.07s-.22,5.98-.66,8.09c-.44,2.11-1.11,3.78-2.01,5.01s-2.04,2.07-3.42,2.53c-1.38,.46-3.02,.68-4.9,.68s-3.52-.23-4.9-.68c-1.38-.46-2.52-1.3-3.42-2.53-.9-1.23-1.57-2.9-2.01-5.01-.44-2.11-.66-4.81-.66-8.09s.22-5.94,.66-8.07Zm8.41,18.02c.39,.81,1.03,1.21,1.91,1.21s1.52-.4,1.91-1.21c.39-.8,.59-2.35,.59-4.63v-10.66c0-2.28-.2-3.82-.59-4.63-.4-.8-1.03-1.21-1.91-1.21s-1.52,.4-1.91,1.21c-.4,.81-.59,2.35-.59,4.63v10.66c0,2.28,.2,3.82,.59,4.63Z"/></g><rect class="d" x="716.04" y="513.75" width="55.25" height="55.25"/><path class="i" d="M741.32,551.82c.33,.43,.9,.64,1.69,.64,.61,0,1.15-.25,1.62-.75,.47-.5,.71-1.25,.71-2.26v-5.15h-.09c-.36,.76-1.04,1.37-2.03,1.82s-2.12,.68-3.4,.68c-1.15,0-2.2-.16-3.14-.48s-1.75-.85-2.44-1.59-1.21-1.75-1.57-3.01c-.37-1.26-.55-2.83-.55-4.72,0-2.19,.23-4.05,.71-5.58,.47-1.53,1.17-2.79,2.1-3.78,.93-.99,2.06-1.7,3.39-2.14s2.87-.66,4.6-.66c1.85,0,3.48,.22,4.88,.66s2.56,1.19,3.49,2.26,1.62,2.48,2.1,4.24c.47,1.76,.71,3.96,.71,6.61v3.55c0,2.49-.13,4.7-.39,6.63-.26,1.93-.78,3.55-1.57,4.88-.79,1.32-1.91,2.31-3.37,2.96-1.46,.65-3.39,.98-5.79,.98-2.1,0-3.81-.21-5.13-.64-1.32-.42-2.35-1.02-3.1-1.78-.75-.76-1.26-1.63-1.55-2.62s-.43-2.03-.43-3.12h7.93c.03,1.09,.24,1.88,.64,2.37Zm-.21-12.21c.35,.73,.96,1.09,1.85,1.09,.79,0,1.38-.37,1.78-1.09,.39-.73,.59-2.13,.59-4.19s-.17-3.46-.52-4.19c-.35-.73-.96-1.09-1.85-1.09-.79,0-1.38,.36-1.78,1.09-.4,.73-.59,2.13-.59,4.19s.17,3.46,.52,4.19Z"/><rect class="e" x="479.28" y="652.69" width="55.25" height="55.25"/><path class="i" d="M501.71,696.14c-1.35-.27-2.5-.8-3.44-1.57-.94-.77-1.66-1.81-2.16-3.12-.5-1.31-.75-2.96-.75-4.97s.45-3.65,1.34-5.01,2.24-2.17,4.03-2.42v-.09c-.94-.21-1.72-.54-2.35-.98-.62-.44-1.12-.96-1.48-1.55-.36-.59-.62-1.23-.75-1.91s-.21-1.37-.21-2.07c0-1.28,.19-2.45,.57-3.51,.38-1.06,.99-1.97,1.82-2.73s1.91-1.35,3.24-1.78c1.32-.42,2.91-.64,4.76-.64s3.48,.21,4.79,.64c1.31,.43,2.38,1.02,3.21,1.78,.83,.76,1.44,1.67,1.82,2.73s.57,2.23,.57,3.51c0,.7-.07,1.39-.21,2.07s-.39,1.32-.75,1.91c-.37,.59-.85,1.11-1.46,1.55-.61,.44-1.4,.77-2.37,.98v.09c.97,.18,1.8,.5,2.48,.96s1.24,1.01,1.66,1.66c.43,.65,.74,1.39,.93,2.21,.2,.82,.3,1.69,.3,2.6,0,2-.25,3.66-.75,4.97-.5,1.31-1.21,2.35-2.14,3.12-.93,.78-2.07,1.3-3.44,1.57s-2.92,.41-4.65,.41-3.27-.14-4.63-.41Zm2.78-5.7c.44,.64,1.05,.96,1.85,.96s1.4-.32,1.85-.96c.44-.64,.66-1.91,.66-3.83s-.22-3.14-.66-3.78c-.44-.64-1.06-.96-1.85-.96s-1.41,.32-1.85,.96c-.44,.64-.66,1.9-.66,3.78s.22,3.19,.66,3.83Zm-.16-15.54c.12,.52,.28,.92,.48,1.21,.2,.29,.42,.49,.68,.59,.26,.11,.54,.16,.84,.16,.61,0,1.12-.26,1.55-.78,.43-.52,.64-1.56,.64-3.14,0-.79-.06-1.44-.18-1.94-.12-.5-.28-.9-.48-1.18-.2-.29-.43-.49-.68-.59-.26-.11-.54-.16-.84-.16s-.59,.05-.84,.16c-.26,.11-.49,.3-.68,.59-.2,.29-.36,.68-.48,1.18-.12,.5-.18,1.15-.18,1.94s.06,1.44,.18,1.96Z"/><rect class="f" x="690.53" y="442.01" width="55.25" height="55.25"/><path class="i" d="M727.92,453.74v6.33c-1.12,1.76-2.17,3.68-3.12,5.77s-1.81,4.23-2.55,6.45c-.75,2.22-1.35,4.44-1.82,6.68s-.78,4.37-.93,6.4h-8.75c.21-2.07,.56-4.18,1.05-6.33,.49-2.16,1.1-4.29,1.85-6.4,.74-2.11,1.63-4.18,2.67-6.2,1.03-2.02,2.22-3.94,3.55-5.76h-12.99v-6.93h21.05Z"/><rect class="g" x="435.5" y="542.84" width="55.25" height="55.25"/><path class="i" d="M464.34,559.86c-.33-.42-.9-.64-1.69-.64-.61,0-1.15,.25-1.62,.75-.47,.5-.71,1.27-.71,2.3v5.15h.09c.37-.79,1.04-1.41,2.03-1.87,.99-.46,2.12-.68,3.4-.68,1.15,0,2.2,.16,3.14,.48,.94,.32,1.75,.85,2.44,1.6,.68,.75,1.21,1.75,1.57,3.01,.37,1.26,.55,2.83,.55,4.72,0,2.19-.24,4.06-.71,5.61-.47,1.55-1.17,2.8-2.1,3.76s-2.06,1.64-3.39,2.05c-1.34,.41-2.87,.62-4.6,.62-1.85,0-3.48-.21-4.88-.62-1.4-.41-2.56-1.14-3.49-2.19-.93-1.05-1.63-2.45-2.1-4.19-.47-1.75-.71-3.94-.71-6.59v-3.6c0-2.49,.13-4.7,.39-6.63,.26-1.93,.78-3.55,1.57-4.88s1.91-2.33,3.37-3.03c1.46-.7,3.39-1.05,5.79-1.05,2.07,0,3.76,.23,5.08,.68s2.36,1.07,3.12,1.85c.76,.78,1.28,1.66,1.57,2.67,.29,1,.43,2.04,.43,3.1h-7.93c-.03-1.09-.24-1.88-.64-2.37Zm-3.49,20.6c.35,.73,.96,1.09,1.85,1.09,.79,0,1.38-.36,1.78-1.09,.39-.73,.59-2.13,.59-4.19s-.17-3.46-.52-4.19c-.35-.73-.96-1.09-1.85-1.09-.79,0-1.38,.36-1.78,1.09-.4,.73-.59,2.13-.59,4.19s.17,3.46,.52,4.19Z"/><rect class="e" x="422.16" y="458.09" width="55.25" height="55.25"/><path class="i" d="M457.97,469.82v6.38h-12.26l-.36,5.42c.79-.73,1.68-1.31,2.67-1.73,.99-.42,2.09-.64,3.3-.64,2.64,0,4.65,.84,6.02,2.51,1.37,1.67,2.05,4.25,2.05,7.75,0,2.13-.17,3.97-.52,5.54-.35,1.57-.93,2.86-1.75,3.9-.82,1.03-1.91,1.79-3.26,2.28-1.35,.49-3.03,.73-5.04,.73-3.74,0-6.43-.79-8.09-2.37-1.66-1.58-2.48-3.83-2.48-6.75v-1.05h7.93v1.09c0,1.52,.21,2.55,.62,3.1s.98,.82,1.71,.82c.42,0,.78-.07,1.07-.21,.29-.14,.54-.45,.75-.93,.21-.49,.36-1.18,.46-2.1,.09-.91,.14-2.14,.14-3.69,0-1.82-.21-3.09-.62-3.8s-1.01-1.07-1.8-1.07c-.7,0-1.26,.21-1.69,.64s-.64,1.12-.64,2.1h-7.66l.73-17.91h18.73Z"/><rect class="g" x="644.23" y="318.42" width="55.25" height="55.25"/><path class="i" d="M670.37,330.15h9.21v19.51h2.83v6.11h-2.83v6.02h-7.93v-6.02h-11.48v-6.38l10.21-19.23Zm1.55,8.75h-.09l-5.29,10.75h5.38v-10.75Z"/><rect class="d" x="400.98" y="386.69" width="55.25" height="55.25"/><path class="i" d="M420.06,400.15c1.67-1.58,4.16-2.37,7.47-2.37,1.97,0,3.62,.2,4.92,.59s2.35,.97,3.12,1.73c.77,.76,1.32,1.69,1.64,2.8,.32,1.11,.48,2.38,.48,3.81,0,.64-.08,1.3-.23,1.98-.15,.68-.4,1.32-.75,1.91-.35,.59-.81,1.12-1.39,1.57-.58,.46-1.29,.78-2.14,.96v.09c1.88,.36,3.21,1.19,3.96,2.48,.76,1.29,1.14,2.82,1.14,4.58,0,3.65-.88,6.27-2.64,7.86-1.76,1.6-4.39,2.39-7.88,2.39-1.82,0-3.41-.15-4.76-.46-1.35-.3-2.47-.85-3.35-1.64-.88-.79-1.54-1.85-1.96-3.17-.43-1.32-.64-2.95-.64-4.9h7.93c0,.91,.05,1.67,.16,2.28,.11,.61,.25,1.12,.43,1.55,.37,.79,1,1.18,1.92,1.18,.49,0,.88-.07,1.18-.21s.54-.39,.71-.77,.28-.9,.34-1.55,.09-1.48,.09-2.48c0-1.58-.25-2.64-.75-3.19-.5-.55-1.28-.82-2.35-.82h-2.14v-5.29h1.23c.64,0,1.18-.06,1.64-.18,.46-.12,.83-.35,1.14-.68,.3-.33,.53-.8,.68-1.39,.15-.59,.23-1.36,.23-2.3,0-1.37-.17-2.29-.52-2.76-.35-.47-.89-.71-1.62-.71-.82,0-1.41,.32-1.75,.96-.35,.64-.52,1.81-.52,3.51h-7.66c.09-3.37,.97-5.83,2.64-7.38Z"/><rect class="f" x="376.65" y="201.5" width="55.25" height="55.25"/><path class="i" d="M393.45,219.04c.27-1.35,.79-2.51,1.55-3.46,.76-.96,1.82-1.69,3.19-2.21,1.37-.52,3.16-.77,5.38-.77s3.86,.23,5.2,.68c1.34,.46,2.39,1.09,3.17,1.89,.77,.81,1.31,1.74,1.59,2.8s.43,2.2,.43,3.42c0,2.19-.37,4.03-1.09,5.51-.73,1.49-1.7,2.84-2.92,4.06l-5.01,4.88c-.37,.36-.77,.77-1.21,1.23-.44,.46-.74,.93-.89,1.41h11.12v6.38h-21.24c0-2.28,.34-4.43,1.03-6.45,.68-2.02,1.95-3.99,3.8-5.9l5.65-5.74c.82-.82,1.41-1.6,1.75-2.35,.35-.74,.52-1.72,.52-2.94,0-1.37-.2-2.31-.59-2.83-.4-.52-.93-.77-1.59-.77-.3,0-.59,.05-.87,.16s-.52,.31-.75,.62c-.23,.3-.41,.74-.55,1.3-.14,.56-.21,1.3-.21,2.21v1.37h-7.93c.03-1.64,.18-3.14,.46-4.49Z"/><rect class="e" x="158.51" y="303.5" width="55.25" height="55.25"/><path class="i" d="M182.05,324.9h-6.11v-5.29c1.31,0,2.43-.08,3.37-.25,.94-.17,1.75-.44,2.42-.82s1.21-.9,1.64-1.55c.43-.65,.78-1.45,1.05-2.39h6.11v32.27h-8.48v-21.97Z"/></g><g id="c"><g><path class="j" d="M708.31,712.77l1.22,6.05h.02l1.24-6.05h2.56v8.57h-1.58v-6.84h-.02l-1.52,6.84h-1.34l-1.52-6.84h-.02v6.84h-1.58v-8.57h2.57Z"/><path class="j" d="M716.19,712.68v1.42h-1.66v-1.42h1.66Zm0,2.21v6.46h-1.66v-6.46h1.66Z"/><path class="j" d="M717.29,716.71c0-.38,.06-.69,.18-.94s.28-.46,.49-.61c.2-.16,.44-.27,.72-.34,.28-.07,.57-.1,.88-.1,.5,0,.9,.05,1.2,.14,.3,.1,.54,.23,.71,.41,.17,.18,.28,.39,.34,.63,.06,.24,.09,.51,.09,.8v3.4c0,.3,.01,.54,.04,.71,.03,.17,.08,.35,.16,.54h-1.58c-.06-.1-.1-.21-.13-.33-.03-.12-.05-.23-.08-.34h-.02c-.19,.34-.41,.55-.67,.65-.25,.1-.58,.15-.98,.15-.29,0-.53-.05-.73-.15-.2-.1-.36-.24-.48-.41-.12-.18-.21-.37-.26-.59-.06-.22-.08-.44-.08-.65,0-.3,.03-.57,.1-.79,.06-.22,.16-.41,.29-.56,.13-.16,.3-.29,.5-.39,.2-.1,.45-.2,.74-.28l.94-.25c.25-.06,.42-.15,.52-.26s.14-.28,.14-.49c0-.25-.06-.44-.17-.58-.12-.14-.31-.21-.59-.21-.26,0-.45,.08-.58,.23-.13,.15-.19,.36-.19,.61v.18h-1.49v-.16Zm2.66,1.61c-.13,.05-.24,.09-.35,.11-.34,.07-.58,.19-.72,.36-.14,.17-.22,.4-.22,.68,0,.25,.05,.46,.14,.64,.1,.18,.26,.26,.48,.26,.11,0,.23-.02,.35-.05,.12-.04,.23-.09,.33-.17,.1-.08,.18-.18,.25-.31,.06-.13,.1-.28,.1-.46v-1.27c-.11,.09-.23,.16-.36,.21Z"/><path class="j" d="M724.6,714.88v.66h.02c.21-.3,.44-.51,.7-.64,.26-.13,.57-.19,.93-.19,.38,0,.71,.09,.97,.26,.26,.18,.43,.43,.52,.77h.02c.13-.34,.33-.6,.62-.77s.62-.26,1.01-.26c.55,0,.96,.17,1.22,.5,.26,.33,.39,.81,.39,1.43v4.69h-1.66v-4.51c0-.27-.05-.48-.15-.62-.1-.14-.27-.22-.5-.22-.26,0-.47,.09-.63,.26-.16,.18-.23,.46-.23,.84v4.25h-1.66v-4.51c0-.27-.05-.48-.15-.62-.1-.14-.27-.22-.5-.22-.26,0-.47,.09-.63,.26-.16,.18-.23,.46-.23,.84v4.25h-1.66v-6.46h1.58Z"/><path class="j" d="M733.77,712.68v1.42h-1.66v-1.42h1.66Zm0,2.21v6.46h-1.66v-6.46h1.66Z"/></g><circle class="j" cx="703.02" cy="710.6" r="1.75"/><g><path class="j" d="M607.67,463.73c.06-.55,.19-1.02,.4-1.41,.2-.39,.5-.7,.88-.92,.38-.22,.9-.33,1.55-.33s1.16,.11,1.55,.33c.38,.22,.68,.53,.88,.92,.2,.39,.34,.86,.4,1.41,.06,.55,.09,1.15,.09,1.79s-.03,1.26-.09,1.8c-.06,.54-.19,1.01-.4,1.4-.2,.39-.5,.69-.88,.9s-.9,.31-1.55,.31-1.16-.1-1.55-.31-.68-.51-.88-.9c-.2-.39-.34-.86-.4-1.4-.06-.54-.09-1.14-.09-1.8s.03-1.25,.09-1.79Zm1.68,3.26c.03,.4,.08,.73,.17,.98s.2,.44,.36,.55c.16,.12,.36,.17,.62,.17s.46-.06,.62-.17c.16-.12,.28-.3,.36-.55s.14-.58,.17-.98c.03-.4,.04-.89,.04-1.47s-.01-1.06-.04-1.46c-.03-.4-.08-.73-.17-.98-.08-.26-.2-.44-.36-.56s-.36-.17-.62-.17-.46,.06-.62,.17-.28,.3-.36,.56c-.08,.26-.14,.58-.17,.98-.03,.4-.04,.89-.04,1.46s.01,1.07,.04,1.47Z"/><path class="j" d="M615.99,463.36v.86h.02c.17-.31,.37-.56,.61-.75,.24-.19,.53-.28,.88-.28,.05,0,.1,0,.15,0s.1,.01,.15,.02v1.58c-.09,0-.17-.01-.26-.02s-.17,0-.26,0c-.14,0-.29,.02-.43,.06-.14,.04-.28,.11-.4,.2-.12,.09-.22,.21-.29,.36-.07,.15-.11,.33-.11,.55v3.88h-1.66v-6.46h1.58Z"/><path class="j" d="M620.13,461.24v8.57h-1.66v-8.57h1.66Z"/><path class="j" d="M621.23,465.18c0-.38,.06-.69,.18-.94s.28-.46,.49-.61c.2-.16,.44-.27,.72-.34,.28-.07,.57-.1,.88-.1,.5,0,.9,.05,1.2,.14,.3,.1,.54,.23,.71,.41,.17,.18,.28,.39,.34,.63,.06,.24,.09,.51,.09,.8v3.4c0,.3,.01,.54,.04,.71,.03,.17,.08,.35,.16,.54h-1.58c-.06-.1-.1-.21-.13-.33-.03-.12-.05-.23-.08-.34h-.02c-.19,.34-.41,.55-.67,.65-.25,.1-.58,.15-.98,.15-.29,0-.53-.05-.73-.15-.2-.1-.36-.24-.48-.41-.12-.18-.21-.37-.26-.59-.06-.22-.08-.44-.08-.65,0-.3,.03-.57,.1-.79,.06-.22,.16-.41,.29-.56,.13-.16,.3-.29,.5-.39,.2-.1,.45-.2,.74-.28l.94-.25c.25-.06,.42-.15,.52-.26s.14-.28,.14-.49c0-.25-.06-.44-.17-.58-.12-.14-.31-.21-.59-.21-.26,0-.45,.08-.58,.23-.13,.15-.19,.36-.19,.61v.18h-1.49v-.16Zm2.66,1.61c-.13,.05-.24,.09-.35,.11-.34,.07-.58,.19-.72,.36-.14,.17-.22,.4-.22,.68,0,.25,.05,.46,.14,.64,.1,.18,.26,.26,.48,.26,.11,0,.23-.02,.35-.05,.12-.04,.23-.09,.33-.17,.1-.08,.18-.18,.25-.31,.06-.13,.1-.28,.1-.46v-1.27c-.11,.09-.23,.16-.36,.21Z"/><path class="j" d="M628.54,463.36v.76h.02c.18-.32,.4-.55,.68-.7,.28-.15,.6-.22,.96-.22,.53,0,.93,.14,1.22,.43,.28,.29,.43,.76,.43,1.4v4.79h-1.66v-4.45c0-.34-.06-.57-.17-.7s-.29-.2-.54-.2c-.58,0-.88,.36-.88,1.07v4.28h-1.66v-6.46h1.58Z"/><path class="j" d="M636.21,469.13c-.18,.3-.39,.52-.62,.64-.23,.12-.51,.18-.85,.18-.68,0-1.18-.26-1.5-.78-.32-.52-.48-1.38-.48-2.58s.16-2.07,.48-2.6,.82-.8,1.5-.8c.31,0,.58,.06,.8,.19s.42,.32,.59,.58h.02v-2.71h1.66v8.57h-1.58v-.68h-.02Zm-1.63-.95c.11,.36,.34,.53,.7,.53s.61-.18,.71-.53c.11-.36,.16-.89,.16-1.59s-.05-1.23-.16-1.59c-.11-.36-.35-.53-.71-.53s-.59,.18-.7,.53c-.11,.36-.16,.89-.16,1.59s.05,1.23,.16,1.59Z"/><path class="j" d="M638.84,465.12c.09-.42,.23-.78,.43-1.06,.2-.28,.46-.5,.79-.65,.32-.15,.72-.22,1.19-.22,.5,0,.91,.06,1.24,.2s.59,.35,.78,.64c.19,.29,.33,.64,.41,1.07s.12,.92,.12,1.49-.04,1.04-.13,1.46-.23,.78-.43,1.06c-.2,.28-.46,.49-.79,.63s-.72,.2-1.19,.2c-.5,0-.91-.05-1.24-.19s-.59-.34-.78-.62c-.19-.28-.33-.64-.41-1.07s-.12-.92-.12-1.48,.04-1.04,.13-1.46Zm1.55,2.38c.02,.28,.05,.52,.11,.72,.06,.2,.15,.36,.27,.47,.12,.11,.28,.17,.48,.17,.34,0,.57-.18,.7-.53,.13-.35,.19-.93,.19-1.74s-.06-1.39-.19-1.74c-.13-.35-.36-.53-.7-.53-.2,0-.36,.06-.48,.17-.12,.11-.21,.27-.27,.47-.06,.2-.1,.44-.11,.72-.02,.28-.02,.58-.02,.91s0,.63,.02,.91Z"/></g><circle class="j" cx="605.13" cy="459.48" r="1.75"/><g><path class="j" d="M593.3,298.41c0,.91-.21,1.56-.64,1.95-.42,.39-1.07,.58-1.94,.58-.46,0-.83-.06-1.12-.19s-.52-.3-.7-.53c-.17-.23-.29-.49-.35-.8-.06-.3-.1-.62-.1-.96v-.37h1.58v.26c0,.46,.05,.79,.15,1.01,.1,.22,.31,.33,.62,.33s.52-.11,.62-.33c.1-.22,.15-.56,.15-1.01v-6.12h1.73v6.17Z"/><path class="j" d="M594.32,296.18c0-.38,.06-.69,.18-.94s.28-.46,.49-.61c.2-.16,.44-.27,.72-.34,.28-.07,.57-.1,.88-.1,.5,0,.9,.05,1.2,.14,.3,.1,.54,.23,.71,.41,.17,.18,.28,.39,.34,.63,.06,.24,.09,.51,.09,.8v3.4c0,.3,.01,.54,.04,.71,.03,.17,.08,.35,.16,.54h-1.58c-.06-.1-.1-.21-.13-.33-.03-.12-.05-.23-.08-.34h-.02c-.19,.34-.41,.55-.67,.65-.25,.1-.58,.15-.98,.15-.29,0-.53-.05-.73-.15-.2-.1-.36-.24-.48-.41-.12-.18-.21-.37-.26-.59-.06-.22-.08-.44-.08-.65,0-.3,.03-.57,.1-.79,.06-.22,.16-.41,.29-.56,.13-.16,.3-.29,.5-.39,.2-.1,.45-.2,.74-.28l.94-.25c.25-.06,.42-.15,.52-.26s.14-.28,.14-.49c0-.25-.06-.44-.17-.58-.12-.14-.31-.21-.59-.21-.26,0-.45,.08-.58,.23-.13,.15-.19,.36-.19,.61v.18h-1.49v-.16Zm2.66,1.61c-.13,.05-.24,.09-.35,.11-.34,.07-.58,.19-.72,.36-.14,.17-.22,.4-.22,.68,0,.25,.05,.46,.14,.64,.1,.18,.26,.26,.48,.26,.11,0,.23-.02,.35-.05,.12-.04,.23-.09,.33-.17,.1-.08,.18-.18,.25-.31,.06-.13,.1-.28,.1-.46v-1.27c-.11,.09-.23,.16-.36,.21Z"/><path class="j" d="M603.13,296.22c-.02-.15-.06-.29-.11-.41-.05-.12-.13-.22-.22-.3-.1-.08-.22-.11-.38-.11-.2,0-.36,.05-.49,.14s-.22,.23-.29,.41c-.06,.18-.11,.41-.13,.68-.02,.28-.04,.6-.04,.98,0,.4,.01,.74,.04,1.03,.02,.28,.07,.52,.13,.7,.06,.18,.15,.32,.27,.4,.12,.08,.27,.13,.45,.13,.28,0,.48-.12,.61-.36,.13-.24,.19-.62,.19-1.15h1.58c0,.85-.19,1.49-.57,1.94-.38,.44-1.01,.67-1.89,.67-.42,0-.78-.05-1.09-.15-.31-.1-.56-.28-.77-.54-.2-.26-.36-.61-.46-1.04-.1-.44-.16-.98-.16-1.63s.06-1.21,.19-1.65c.13-.44,.31-.78,.54-1.04s.51-.44,.83-.55c.32-.1,.67-.16,1.06-.16,.77,0,1.35,.22,1.73,.67,.39,.45,.58,1.06,.58,1.82h-1.58c0-.16-.01-.32-.03-.47Z"/><path class="j" d="M607.28,296.77h.02l1.67-2.41h1.82l-1.86,2.54,2.14,3.91h-1.82l-1.38-2.65-.59,.77v1.88h-1.66v-8.57h1.66v4.52Z"/><path class="j" d="M612.76,298.92c0,.28,.07,.51,.22,.68,.15,.17,.36,.26,.64,.26,.26,0,.46-.06,.61-.19,.15-.13,.23-.32,.23-.58,0-.21-.06-.37-.18-.47-.12-.11-.26-.19-.42-.26l-1.16-.42c-.46-.16-.8-.39-1.03-.68s-.35-.67-.35-1.12c0-.26,.04-.51,.13-.75,.09-.24,.23-.44,.42-.62s.44-.32,.74-.42c.3-.1,.66-.16,1.09-.16,.75,0,1.31,.16,1.67,.48,.36,.32,.54,.77,.54,1.36v.26h-1.49c0-.34-.05-.58-.16-.74-.11-.16-.3-.23-.57-.23-.21,0-.39,.06-.55,.17-.16,.12-.23,.29-.23,.52,0,.16,.05,.3,.15,.43,.1,.13,.29,.24,.57,.32l1,.34c.52,.18,.89,.41,1.1,.69,.22,.28,.32,.67,.32,1.16,0,.34-.06,.64-.18,.89s-.29,.46-.5,.63-.46,.29-.76,.36c-.29,.07-.61,.11-.97,.11-.46,0-.85-.04-1.16-.13-.31-.09-.55-.22-.73-.4-.18-.18-.31-.39-.38-.64s-.11-.53-.11-.85v-.23h1.49v.22Z"/><path class="j" d="M616.8,296.12c.09-.42,.23-.78,.43-1.06,.2-.28,.46-.5,.79-.65,.32-.15,.72-.22,1.19-.22,.5,0,.91,.06,1.24,.2s.59,.35,.78,.64c.19,.29,.33,.64,.41,1.07s.12,.92,.12,1.49-.04,1.04-.13,1.46-.23,.78-.43,1.06c-.2,.28-.46,.49-.79,.63s-.72,.2-1.19,.2c-.5,0-.91-.05-1.24-.19s-.59-.34-.78-.62c-.19-.28-.33-.64-.41-1.07s-.12-.92-.12-1.48,.04-1.04,.13-1.46Zm1.55,2.38c.02,.28,.05,.52,.11,.72,.06,.2,.15,.36,.27,.47,.12,.11,.28,.17,.48,.17,.34,0,.57-.18,.7-.53,.13-.35,.19-.93,.19-1.74s-.06-1.39-.19-1.74c-.13-.35-.36-.53-.7-.53-.2,0-.36,.06-.48,.17-.12,.11-.21,.27-.27,.47-.06,.2-.1,.44-.11,.72-.02,.28-.02,.58-.02,.91s0,.63,.02,.91Z"/><path class="j" d="M624.22,294.36v.76h.02c.18-.32,.4-.55,.68-.7,.28-.15,.6-.22,.96-.22,.53,0,.93,.14,1.22,.43,.28,.29,.43,.76,.43,1.4v4.79h-1.66v-4.45c0-.34-.06-.57-.17-.7s-.29-.2-.54-.2c-.58,0-.88,.36-.88,1.07v4.28h-1.66v-6.46h1.58Z"/><path class="j" d="M633.25,294.36l-1.62,6.46h-1.92l-1.67-6.46h1.73l.92,4.62h.02l.88-4.62h1.66Z"/><path class="j" d="M635.58,292.15v1.42h-1.66v-1.42h1.66Zm0,2.21v6.46h-1.66v-6.46h1.66Z"/><path class="j" d="M638.38,292.25v8.57h-1.66v-8.57h1.66Z"/><path class="j" d="M641.17,292.25v8.57h-1.66v-8.57h1.66Z"/><path class="j" d="M643.75,298.35c0,.19,.01,.38,.04,.56,.03,.18,.07,.34,.14,.48,.06,.14,.15,.25,.25,.34,.1,.08,.23,.13,.38,.13,.28,0,.48-.1,.61-.3,.13-.2,.22-.5,.26-.91h1.49c-.03,.75-.23,1.32-.6,1.72-.37,.39-.95,.59-1.74,.59-.6,0-1.07-.1-1.4-.3s-.58-.46-.74-.79-.26-.7-.29-1.1c-.04-.41-.05-.82-.05-1.22,0-.43,.03-.85,.09-1.25,.06-.4,.18-.76,.36-1.07,.18-.31,.44-.56,.77-.74,.34-.18,.78-.28,1.34-.28,.48,0,.87,.08,1.18,.23,.31,.16,.55,.38,.73,.66,.18,.28,.3,.63,.36,1.03,.06,.4,.1,.85,.1,1.35v.37h-3.28v.52Zm1.64-2.15c-.02-.19-.07-.35-.13-.48-.06-.13-.14-.23-.25-.3-.11-.07-.25-.1-.41-.1s-.31,.04-.41,.11c-.11,.08-.19,.18-.26,.3-.06,.12-.11,.26-.14,.41s-.04,.3-.04,.46v.25h1.69c0-.25-.02-.47-.05-.65Z"/></g><circle class="j" cx="588.06" cy="291.58" r="1.75"/><g><path class="j" d="M519.83,503.13h-1.87v7.15h-1.73v-7.15h-1.87v-1.42h5.47v1.42Z"/><path class="j" d="M519.73,505.65c0-.38,.06-.69,.18-.94s.28-.46,.49-.61c.2-.16,.44-.27,.72-.34,.28-.07,.57-.1,.88-.1,.5,0,.9,.05,1.2,.14,.3,.1,.54,.23,.71,.41,.17,.18,.28,.39,.34,.63,.06,.24,.09,.51,.09,.8v3.4c0,.3,.01,.54,.04,.71,.03,.17,.08,.35,.16,.54h-1.58c-.06-.1-.1-.21-.13-.33-.03-.12-.05-.23-.08-.34h-.02c-.19,.34-.41,.55-.67,.65-.25,.1-.58,.15-.98,.15-.29,0-.53-.05-.73-.15-.2-.1-.36-.24-.48-.41-.12-.18-.21-.37-.26-.59-.06-.22-.08-.44-.08-.65,0-.3,.03-.57,.1-.79,.06-.22,.16-.41,.29-.56,.13-.16,.3-.29,.5-.39,.2-.1,.45-.2,.74-.28l.94-.25c.25-.06,.42-.15,.52-.26s.14-.28,.14-.49c0-.25-.06-.44-.17-.58-.12-.14-.31-.21-.59-.21-.26,0-.45,.08-.58,.23-.13,.15-.19,.36-.19,.61v.18h-1.49v-.16Zm2.66,1.61c-.13,.05-.24,.09-.35,.11-.34,.07-.58,.19-.72,.36-.14,.17-.22,.4-.22,.68,0,.25,.05,.46,.14,.64,.1,.18,.26,.26,.48,.26,.11,0,.23-.02,.35-.05,.12-.04,.23-.09,.33-.17,.1-.08,.18-.18,.25-.31,.06-.13,.1-.28,.1-.46v-1.27c-.11,.09-.23,.16-.36,.21Z"/><path class="j" d="M527.03,503.82v.66h.02c.21-.3,.44-.51,.7-.64,.26-.13,.57-.19,.93-.19,.38,0,.71,.09,.97,.26,.26,.18,.43,.43,.52,.77h.02c.13-.34,.33-.6,.62-.77s.62-.26,1.01-.26c.55,0,.96,.17,1.22,.5,.26,.33,.39,.81,.39,1.43v4.69h-1.66v-4.51c0-.27-.05-.48-.15-.62-.1-.14-.27-.22-.5-.22-.26,0-.47,.09-.63,.26-.16,.18-.23,.46-.23,.84v4.25h-1.66v-4.51c0-.27-.05-.48-.15-.62-.1-.14-.27-.22-.5-.22-.26,0-.47,.09-.63,.26-.16,.18-.23,.46-.23,.84v4.25h-1.66v-6.46h1.58Z"/><path class="j" d="M536.1,503.82v.68h.02c.18-.3,.39-.52,.62-.65,.23-.13,.51-.2,.85-.2,.68,0,1.18,.27,1.5,.8s.48,1.4,.48,2.6-.16,2.06-.48,2.58c-.32,.52-.82,.78-1.5,.78-.31,0-.58-.06-.8-.17-.22-.12-.42-.3-.59-.56h-.02v2.68h-1.66v-8.53h1.58Zm.23,4.82c.11,.36,.35,.53,.71,.53s.59-.18,.7-.53c.11-.36,.16-.89,.16-1.59s-.05-1.23-.16-1.59c-.11-.36-.34-.53-.7-.53s-.61,.18-.71,.53c-.11,.36-.16,.89-.16,1.59s.05,1.23,.16,1.59Z"/><path class="j" d="M540.44,505.65c0-.38,.06-.69,.18-.94s.28-.46,.49-.61c.2-.16,.44-.27,.72-.34,.28-.07,.57-.1,.88-.1,.5,0,.9,.05,1.2,.14,.3,.1,.54,.23,.71,.41,.17,.18,.28,.39,.34,.63,.06,.24,.09,.51,.09,.8v3.4c0,.3,.01,.54,.04,.71,.03,.17,.08,.35,.16,.54h-1.58c-.06-.1-.1-.21-.13-.33-.03-.12-.05-.23-.08-.34h-.02c-.19,.34-.41,.55-.67,.65-.25,.1-.58,.15-.98,.15-.29,0-.53-.05-.73-.15-.2-.1-.36-.24-.48-.41-.12-.18-.21-.37-.26-.59-.06-.22-.08-.44-.08-.65,0-.3,.03-.57,.1-.79,.06-.22,.16-.41,.29-.56,.13-.16,.3-.29,.5-.39,.2-.1,.45-.2,.74-.28l.94-.25c.25-.06,.42-.15,.52-.26s.14-.28,.14-.49c0-.25-.06-.44-.17-.58-.12-.14-.31-.21-.59-.21-.26,0-.45,.08-.58,.23-.13,.15-.19,.36-.19,.61v.18h-1.49v-.16Zm2.66,1.61c-.13,.05-.24,.09-.35,.11-.34,.07-.58,.19-.72,.36-.14,.17-.22,.4-.22,.68,0,.25,.05,.46,.14,.64,.1,.18,.26,.26,.48,.26,.11,0,.23-.02,.35-.05,.12-.04,.23-.09,.33-.17,.1-.08,.18-.18,.25-.31,.06-.13,.1-.28,.1-.46v-1.27c-.11,.09-.23,.16-.36,.21Z"/></g><circle class="j" cx="523.1" cy="514.24" r="1.75"/></g></svg>