<svg xmlns="http://www.w3.org/2000/svg" viewBox="0 0 668.12 33.8"><defs><style>.cls-1{fill:#f6ea55;}.cls-1,.cls-10,.cls-11,.cls-12,.cls-13,.cls-14,.cls-15,.cls-16,.cls-17,.cls-18,.cls-19,.cls-2,.cls-20,.cls-21,.cls-3,.cls-4,.cls-5,.cls-6,.cls-7,.cls-8,.cls-9{stroke:#fffaf6;}.cls-1,.cls-10,.cls-11,.cls-12,.cls-13,.cls-14,.cls-15,.cls-16,.cls-17,.cls-18,.cls-19,.cls-2,.cls-20,.cls-21,.cls-22,.cls-3,.cls-4,.cls-5,.cls-6,.cls-7,.cls-8,.cls-9{stroke-miterlimit:10;}.cls-2{fill:#e0e451;}.cls-3{fill:#c4da55;}.cls-4{fill:#a8d05c;}.cls-5{fill:#91ca66;}.cls-6{fill:#79c36f;}.cls-7{fill:#67be79;}.cls-8{fill:#59b180;}.cls-9{fill:#4ea586;}.cls-10{fill:#4a9c8a;}.cls-11{fill:#48918d;}.cls-12{fill:#45828d;}.cls-13{fill:#41788f;}.cls-14{fill:#416c8c;}.cls-15{fill:#3f5f8a;}.cls-16{fill:#40548a;}.cls-17{fill:#434684;}.cls-18{fill:#45357d;}.cls-19{fill:#452a71;}.cls-20{fill:#402461;}.cls-21{fill:#3c1a51;}.cls-22{fill:none;stroke:#6e5950;}.cls-23{fill:#fffaf6;}.cls-24{fill:#6e5950;}</style></defs><g id="Layer_1" data-name="Layer 1"><rect class="cls-1" x="2.28" y="18.66" width="31.62" height="13.03"/><rect class="cls-2" x="33.9" y="18.66" width="31.62" height="13.03"/><rect class="cls-3" x="65.53" y="18.66" width="31.62" height="13.03"/><rect class="cls-4" x="97.15" y="18.66" width="31.62" height="13.03"/><rect class="cls-5" x="128.77" y="18.66" width="31.62" height="13.03"/><rect class="cls-6" x="160.4" y="18.66" width="31.62" height="13.03"/><rect class="cls-7" x="192.02" y="18.66" width="31.62" height="13.03"/><rect class="cls-8" x="223.64" y="18.66" width="31.62" height="13.03"/><rect class="cls-9" x="255.27" y="18.66" width="31.62" height="13.03"/><rect class="cls-10" x="286.89" y="18.66" width="31.62" height="13.03"/><rect class="cls-11" x="318.51" y="18.66" width="31.62" height="13.03"/><rect class="cls-12" x="350.14" y="18.66" width="31.62" height="13.03"/><rect class="cls-13" x="381.76" y="18.66" width="31.62" height="13.03"/><rect class="cls-14" x="413.38" y="18.66" width="31.62" height="13.03"/><rect class="cls-15" x="445.01" y="18.66" width="31.62" height="13.03"/><rect class="cls-16" x="476.63" y="18.66" width="31.62" height="13.03"/><rect class="cls-17" x="508.25" y="18.66" width="31.62" height="13.03"/><rect class="cls-18" x="539.88" y="18.66" width="31.62" height="13.03"/><rect class="cls-19" x="571.5" y="18.66" width="31.62" height="13.03"/><rect class="cls-20" x="603.12" y="18.66" width="31.62" height="13.03"/><rect class="cls-21" x="634.75" y="18.66" width="31.62" height="13.03"/></g><g id="Layer_2" data-name="Layer 2"><line class="cls-22" x1="350.14" y1="3.45" x2="350.14" y2="32.51"/><path class="cls-23" d="M645.32,20.84l2.27,8.57h-1.8l-.4-1.81h-2.28l-.39,1.81h-1.8l2.27-8.57Zm-.23,5.34-.82-3.85h0l-.83,3.85Z"/><path class="cls-23" d="M652,20.84l2.27,8.57h-1.8l-.4-1.81h-2.28l-.39,1.81h-1.8l2.27-8.57Zm-.23,5.34-.82-3.85h0l-.83,3.85Z"/><path class="cls-23" d="M658.66,20.84l2.27,8.57h-1.8l-.39-1.81h-2.28l-.4,1.81h-1.8l2.27-8.57Zm-.22,5.34-.83-3.85h0l-.82,3.85Z"/><path class="cls-23" d="M614.24,20.84l2.27,8.57h-1.8l-.4-1.81H612l-.4,1.81h-1.8l2.27-8.57ZM614,26.18l-.83-3.85h0l-.83,3.85Z"/><path class="cls-23" d="M620.91,20.84l2.27,8.57h-1.8L621,27.6H618.7l-.39,1.81h-1.8l2.26-8.57Zm-.23,5.34-.83-3.85h0L619,26.18Z"/><path class="cls-23" d="M623.74,27.12V25.63H626V23.34h1.49v2.29h2.29v1.49h-2.29v2.29H626V27.12Z"/><path class="cls-23" d="M585.37,20.84l2.27,8.57h-1.8l-.39-1.81h-2.28l-.4,1.81H581l2.27-8.57Zm-.22,5.34-.83-3.85h0l-.82,3.85Z"/><path class="cls-23" d="M592.05,20.84l2.26,8.57h-1.8l-.39-1.81h-2.28l-.4,1.81h-1.8l2.27-8.57Zm-.23,5.34L591,22.33h0l-.83,3.85Z"/><path class="cls-23" d="M553.21,20.84l2.27,8.57h-1.8l-.4-1.81H551l-.4,1.81h-1.8l2.27-8.57ZM553,26.18l-.83-3.85h0l-.83,3.85Z"/><path class="cls-23" d="M559.88,20.84l2.27,8.57h-1.8L560,27.6h-2.28l-.39,1.81h-1.8l2.26-8.57Zm-.23,5.34-.83-3.85h0L558,26.18Z"/><path class="cls-23" d="M566.06,26.65h-3.38V25.24h3.38Z"/><path class="cls-23" d="M524.29,20.84l2.27,8.57h-1.8l-.39-1.81h-2.28l-.4,1.81h-1.8l2.27-8.57Zm-.22,5.34-.83-3.85h0l-.82,3.85Z"/><path class="cls-23" d="M527.13,27.12V25.63h2.29V23.34h1.49v2.29h2.29v1.49h-2.29v2.29h-1.49V27.12Z"/><path class="cls-23" d="M493.51,20.84l2.27,8.57H494l-.4-1.81H491.3l-.39,1.81h-1.8l2.26-8.57Zm-.23,5.34-.83-3.85h0l-.83,3.85Z"/><path class="cls-23" d="M460.89,20.84l2.27,8.57h-1.8L461,27.6h-2.28l-.4,1.81h-1.8l2.27-8.57Zm-.22,5.34-.83-3.85h0L459,26.18Z"/><path class="cls-23" d="M467.07,26.65h-3.38V25.24h3.38Z"/><path class="cls-23" d="M419.82,20.84a4.23,4.23,0,0,1,1,.11,2,2,0,0,1,.78.36,1.71,1.71,0,0,1,.5.67,2.66,2.66,0,0,1,.18,1,2.18,2.18,0,0,1-.32,1.19,1.65,1.65,0,0,1-1,.68v0a1.74,1.74,0,0,1,1.14.61,2.14,2.14,0,0,1,.42,1.38,3.32,3.32,0,0,1-.14,1,1.77,1.77,0,0,1-.45.8,2.23,2.23,0,0,1-.82.55,3.6,3.6,0,0,1-1.27.2h-2.92V20.84Zm-.68,3.52a1.72,1.72,0,0,0,1.05-.26,1,1,0,0,0,.33-.87,1.07,1.07,0,0,0-.3-.86,1.43,1.43,0,0,0-.94-.25h-.63v2.24Zm.18,3.78a1.64,1.64,0,0,0,1-.28,1.16,1.16,0,0,0,.39-1,1.55,1.55,0,0,0-.11-.61,1,1,0,0,0-.27-.4,1,1,0,0,0-.42-.21,2.12,2.12,0,0,0-.52-.06h-.75v2.58Z"/><path class="cls-23" d="M426.49,20.84a4.32,4.32,0,0,1,1,.11,2,2,0,0,1,.77.36,1.62,1.62,0,0,1,.5.67,2.66,2.66,0,0,1,.18,1,2.1,2.1,0,0,1-.32,1.19,1.65,1.65,0,0,1-1,.68v0a1.74,1.74,0,0,1,1.14.61,2.14,2.14,0,0,1,.42,1.38,3.71,3.71,0,0,1-.13,1,2,2,0,0,1-.45.8,2.36,2.36,0,0,1-.83.55,3.56,3.56,0,0,1-1.27.2H423.6V20.84Zm-.67,3.52a1.72,1.72,0,0,0,1.05-.26,1,1,0,0,0,.33-.87,1.07,1.07,0,0,0-.3-.86,1.46,1.46,0,0,0-.95-.25h-.63v2.24Zm.18,3.78a1.62,1.62,0,0,0,1-.28,1.16,1.16,0,0,0,.39-1,1.77,1.77,0,0,0-.1-.61,1,1,0,0,0-.69-.61,2.2,2.2,0,0,0-.53-.06h-.75v2.58Z"/><path class="cls-23" d="M433.16,20.84a4.32,4.32,0,0,1,1,.11,1.89,1.89,0,0,1,.77.36,1.64,1.64,0,0,1,.51.67,2.66,2.66,0,0,1,.18,1,2.1,2.1,0,0,1-.33,1.19,1.62,1.62,0,0,1-1,.68v0a1.74,1.74,0,0,1,1.14.61,2.14,2.14,0,0,1,.42,1.38,3.32,3.32,0,0,1-.13,1,2,2,0,0,1-.45.8,2.27,2.27,0,0,1-.83.55,3.56,3.56,0,0,1-1.27.2h-2.91V20.84Zm-.67,3.52a1.72,1.72,0,0,0,1.05-.26,1,1,0,0,0,.33-.87,1.07,1.07,0,0,0-.3-.86,1.46,1.46,0,0,0-.95-.25H432v2.24Zm.18,3.78a1.68,1.68,0,0,0,1-.28,1.18,1.18,0,0,0,.38-1,1.56,1.56,0,0,0-.1-.61,1,1,0,0,0-.28-.4.94.94,0,0,0-.41-.21,2.2,2.2,0,0,0-.53-.06H432v2.58Z"/><path class="cls-23" d="M436.9,27.12V25.63h2.3V23.34h1.48v2.29H443v1.49h-2.3v2.29H439.2V27.12Z"/><path class="cls-23" d="M390.12,20.84a4.26,4.26,0,0,1,1,.11,2,2,0,0,1,.78.36,1.71,1.71,0,0,1,.5.67,2.66,2.66,0,0,1,.18,1,2.18,2.18,0,0,1-.32,1.19,1.65,1.65,0,0,1-1,.68v0a1.74,1.74,0,0,1,1.14.61,2.14,2.14,0,0,1,.42,1.38,3.32,3.32,0,0,1-.13,1,2,2,0,0,1-.45.8,2.27,2.27,0,0,1-.83.55,3.54,3.54,0,0,1-1.26.2h-2.92V20.84Zm-.67,3.52a1.72,1.72,0,0,0,1.05-.26,1,1,0,0,0,.33-.87,1.07,1.07,0,0,0-.3-.86,1.44,1.44,0,0,0-.95-.25H389v2.24Zm.18,3.78a1.66,1.66,0,0,0,1-.28,1.16,1.16,0,0,0,.38-1,1.56,1.56,0,0,0-.1-.61,1.08,1.08,0,0,0-.27-.4,1,1,0,0,0-.42-.21,2.15,2.15,0,0,0-.53-.06H389v2.58Z"/><path class="cls-23" d="M396.8,20.84a4.23,4.23,0,0,1,1,.11,2,2,0,0,1,.78.36,1.71,1.71,0,0,1,.5.67,2.66,2.66,0,0,1,.18,1,2.18,2.18,0,0,1-.32,1.19,1.65,1.65,0,0,1-1,.68v0a1.74,1.74,0,0,1,1.14.61,2.14,2.14,0,0,1,.42,1.38,3.32,3.32,0,0,1-.14,1,1.77,1.77,0,0,1-.45.8,2.23,2.23,0,0,1-.82.55,3.6,3.6,0,0,1-1.27.2H393.9V20.84Zm-.68,3.52a1.72,1.72,0,0,0,1.05-.26,1,1,0,0,0,.33-.87,1.07,1.07,0,0,0-.3-.86,1.43,1.43,0,0,0-.94-.25h-.63v2.24Zm.18,3.78a1.64,1.64,0,0,0,1-.28,1.16,1.16,0,0,0,.39-1,1.55,1.55,0,0,0-.11-.61,1,1,0,0,0-.27-.4,1,1,0,0,0-.42-.21,2.12,2.12,0,0,0-.52-.06h-.75v2.58Z"/><path class="cls-23" d="M403.47,20.84a4.32,4.32,0,0,1,1,.11,2,2,0,0,1,.77.36,1.62,1.62,0,0,1,.5.67,2.66,2.66,0,0,1,.18,1,2.1,2.1,0,0,1-.32,1.19,1.65,1.65,0,0,1-1,.68v0a1.74,1.74,0,0,1,1.14.61,2.14,2.14,0,0,1,.42,1.38,3.71,3.71,0,0,1-.13,1,2,2,0,0,1-.45.8,2.36,2.36,0,0,1-.83.55,3.56,3.56,0,0,1-1.27.2h-2.91V20.84Zm-.67,3.52a1.72,1.72,0,0,0,1.05-.26,1,1,0,0,0,.33-.87,1.07,1.07,0,0,0-.3-.86,1.48,1.48,0,0,0-.95-.25h-.63v2.24Zm.18,3.78a1.62,1.62,0,0,0,1-.28,1.16,1.16,0,0,0,.39-1,1.77,1.77,0,0,0-.1-.61,1,1,0,0,0-.28-.4,1.07,1.07,0,0,0-.41-.21,2.2,2.2,0,0,0-.53-.06h-.75v2.58Z"/><path class="cls-23" d="M357.78,20.84a4.23,4.23,0,0,1,1,.11,2,2,0,0,1,.78.36,1.71,1.71,0,0,1,.5.67,2.66,2.66,0,0,1,.18,1,2.18,2.18,0,0,1-.32,1.19,1.65,1.65,0,0,1-1,.68v0a1.74,1.74,0,0,1,1.14.61,2.14,2.14,0,0,1,.42,1.38,3.32,3.32,0,0,1-.14,1,1.77,1.77,0,0,1-.45.8,2.23,2.23,0,0,1-.82.55,3.6,3.6,0,0,1-1.27.2h-2.92V20.84Zm-.68,3.52a1.72,1.72,0,0,0,1-.26,1,1,0,0,0,.33-.87,1.07,1.07,0,0,0-.3-.86,1.43,1.43,0,0,0-.94-.25h-.63v2.24Zm.18,3.78a1.64,1.64,0,0,0,1-.28,1.16,1.16,0,0,0,.39-1,1.55,1.55,0,0,0-.11-.61,1,1,0,0,0-.27-.4,1,1,0,0,0-.42-.21,2.12,2.12,0,0,0-.52-.06h-.75v2.58Z"/><path class="cls-23" d="M364.45,20.84a4.32,4.32,0,0,1,1,.11,2,2,0,0,1,.77.36,1.62,1.62,0,0,1,.5.67,2.66,2.66,0,0,1,.18,1,2.1,2.1,0,0,1-.32,1.19,1.65,1.65,0,0,1-1,.68v0a1.74,1.74,0,0,1,1.14.61,2.14,2.14,0,0,1,.42,1.38,3.71,3.71,0,0,1-.13,1,2,2,0,0,1-.45.8,2.36,2.36,0,0,1-.83.55,3.56,3.56,0,0,1-1.27.2h-2.91V20.84Zm-.67,3.52a1.72,1.72,0,0,0,1.05-.26,1,1,0,0,0,.33-.87,1.07,1.07,0,0,0-.3-.86,1.46,1.46,0,0,0-.95-.25h-.63v2.24Zm.18,3.78a1.62,1.62,0,0,0,1-.28,1.16,1.16,0,0,0,.39-1,1.77,1.77,0,0,0-.1-.61,1,1,0,0,0-.69-.61,2.2,2.2,0,0,0-.53-.06h-.75v2.58Z"/><path class="cls-23" d="M371.12,20.84a4.32,4.32,0,0,1,1,.11,1.89,1.89,0,0,1,.77.36,1.64,1.64,0,0,1,.51.67,2.66,2.66,0,0,1,.18,1,2.1,2.1,0,0,1-.33,1.19,1.62,1.62,0,0,1-1,.68v0a1.74,1.74,0,0,1,1.14.61,2.14,2.14,0,0,1,.42,1.38,3.32,3.32,0,0,1-.13,1,2,2,0,0,1-.45.8,2.27,2.27,0,0,1-.83.55,3.56,3.56,0,0,1-1.27.2h-2.91V20.84Zm-.67,3.52a1.72,1.72,0,0,0,1.05-.26,1,1,0,0,0,.33-.87,1.07,1.07,0,0,0-.3-.86,1.46,1.46,0,0,0-.95-.25H370v2.24Zm.18,3.78a1.68,1.68,0,0,0,1-.28,1.18,1.18,0,0,0,.38-1,1.56,1.56,0,0,0-.1-.61,1,1,0,0,0-.28-.4.94.94,0,0,0-.41-.21,2.2,2.2,0,0,0-.53-.06H370v2.58Z"/><path class="cls-23" d="M378.21,26.65h-3.38V25.24h3.38Z"/><path class="cls-23" d="M328,20.84a4.32,4.32,0,0,1,1,.11,2,2,0,0,1,.78.36,1.71,1.71,0,0,1,.5.67,2.66,2.66,0,0,1,.18,1,2.1,2.1,0,0,1-.33,1.19,1.62,1.62,0,0,1-1,.68v0a1.74,1.74,0,0,1,1.14.61,2.14,2.14,0,0,1,.42,1.38,3.32,3.32,0,0,1-.13,1,2,2,0,0,1-.45.8,2.27,2.27,0,0,1-.83.55,3.54,3.54,0,0,1-1.26.2h-2.92V20.84Zm-.67,3.52a1.72,1.72,0,0,0,1.05-.26,1,1,0,0,0,.33-.87,1.07,1.07,0,0,0-.3-.86,1.46,1.46,0,0,0-1-.25h-.62v2.24Zm.18,3.78a1.66,1.66,0,0,0,1-.28,1.16,1.16,0,0,0,.38-1,1.56,1.56,0,0,0-.1-.61,1.08,1.08,0,0,0-.27-.4,1,1,0,0,0-.42-.21,2.15,2.15,0,0,0-.53-.06h-.74v2.58Z"/><path class="cls-23" d="M334.68,20.84a4.23,4.23,0,0,1,1,.11,2,2,0,0,1,.78.36,1.71,1.71,0,0,1,.5.67,2.66,2.66,0,0,1,.18,1,2.18,2.18,0,0,1-.32,1.19,1.65,1.65,0,0,1-1,.68v0a1.74,1.74,0,0,1,1.14.61,2.14,2.14,0,0,1,.42,1.38,3.32,3.32,0,0,1-.13,1,2,2,0,0,1-.45.8,2.32,2.32,0,0,1-.82.55,3.64,3.64,0,0,1-1.27.2h-2.92V20.84ZM334,24.36a1.72,1.72,0,0,0,1.05-.26,1,1,0,0,0,.33-.87,1.07,1.07,0,0,0-.3-.86,1.43,1.43,0,0,0-.94-.25h-.63v2.24Zm.18,3.78a1.66,1.66,0,0,0,1-.28,1.16,1.16,0,0,0,.38-1,1.56,1.56,0,0,0-.1-.61,1,1,0,0,0-.27-.4,1,1,0,0,0-.42-.21,2.15,2.15,0,0,0-.53-.06h-.74v2.58Z"/><path class="cls-23" d="M338.42,27.12V25.63h2.29V23.34h1.49v2.29h2.29v1.49H342.2v2.29h-1.49V27.12Z"/><path class="cls-23" d="M268.24,20.84a4.32,4.32,0,0,1,1,.11,1.89,1.89,0,0,1,.77.36,1.64,1.64,0,0,1,.51.67,2.66,2.66,0,0,1,.18,1,2.1,2.1,0,0,1-.33,1.19,1.62,1.62,0,0,1-1,.68v0a1.74,1.74,0,0,1,1.14.61,2.14,2.14,0,0,1,.42,1.38,3.32,3.32,0,0,1-.13,1,2,2,0,0,1-.45.8,2.27,2.27,0,0,1-.83.55,3.54,3.54,0,0,1-1.26.2h-2.92V20.84Zm-.67,3.52a1.72,1.72,0,0,0,1.05-.26,1,1,0,0,0,.33-.87,1.07,1.07,0,0,0-.3-.86,1.46,1.46,0,0,0-.95-.25h-.62v2.24Zm.18,3.78a1.66,1.66,0,0,0,1-.28,1.18,1.18,0,0,0,.38-1,1.56,1.56,0,0,0-.1-.61,1,1,0,0,0-.28-.4.94.94,0,0,0-.41-.21,2.2,2.2,0,0,0-.53-.06h-.74v2.58Z"/><path class="cls-23" d="M274.91,20.84a4.26,4.26,0,0,1,1,.11,2,2,0,0,1,.78.36,1.71,1.71,0,0,1,.5.67,2.66,2.66,0,0,1,.18,1,2.18,2.18,0,0,1-.32,1.19,1.65,1.65,0,0,1-1,.68v0a1.74,1.74,0,0,1,1.14.61,2.14,2.14,0,0,1,.42,1.38,3.32,3.32,0,0,1-.13,1,2,2,0,0,1-.45.8,2.27,2.27,0,0,1-.83.55,3.54,3.54,0,0,1-1.26.2H272V20.84Zm-.67,3.52a1.72,1.72,0,0,0,1.05-.26,1,1,0,0,0,.33-.87,1.07,1.07,0,0,0-.3-.86,1.44,1.44,0,0,0-.95-.25h-.62v2.24Zm.18,3.78a1.66,1.66,0,0,0,1-.28,1.16,1.16,0,0,0,.38-1,1.56,1.56,0,0,0-.1-.61,1.08,1.08,0,0,0-.27-.4,1,1,0,0,0-.42-.21,2.15,2.15,0,0,0-.53-.06h-.74v2.58Z"/><path class="cls-23" d="M282,26.65h-3.39V25.24H282Z"/><path class="cls-23" d="M300.55,20.84a4.32,4.32,0,0,1,1,.11,2,2,0,0,1,.77.36,1.62,1.62,0,0,1,.5.67,2.66,2.66,0,0,1,.18,1,2.1,2.1,0,0,1-.32,1.19,1.65,1.65,0,0,1-1,.68v0a1.74,1.74,0,0,1,1.14.61,2.14,2.14,0,0,1,.42,1.38,3.71,3.71,0,0,1-.13,1,2,2,0,0,1-.45.8,2.36,2.36,0,0,1-.83.55,3.56,3.56,0,0,1-1.27.2h-2.91V20.84Zm-.67,3.52a1.72,1.72,0,0,0,1.05-.26,1,1,0,0,0,.33-.87,1.07,1.07,0,0,0-.3-.86,1.46,1.46,0,0,0-.95-.25h-.63v2.24Zm.18,3.78a1.62,1.62,0,0,0,1-.28,1.16,1.16,0,0,0,.39-1,1.77,1.77,0,0,0-.1-.61,1,1,0,0,0-.69-.61,2.2,2.2,0,0,0-.53-.06h-.75v2.58Z"/><path class="cls-23" d="M307.22,20.84a4.32,4.32,0,0,1,1,.11,1.89,1.89,0,0,1,.77.36,1.64,1.64,0,0,1,.51.67,2.66,2.66,0,0,1,.18,1,2.1,2.1,0,0,1-.33,1.19,1.62,1.62,0,0,1-1,.68v0a1.74,1.74,0,0,1,1.14.61,2.14,2.14,0,0,1,.42,1.38,3.32,3.32,0,0,1-.13,1,2,2,0,0,1-.45.8,2.27,2.27,0,0,1-.83.55,3.56,3.56,0,0,1-1.27.2h-2.91V20.84Zm-.67,3.52a1.72,1.72,0,0,0,1.05-.26,1,1,0,0,0,.33-.87,1.07,1.07,0,0,0-.3-.86,1.46,1.46,0,0,0-.95-.25h-.62v2.24Zm.18,3.78a1.68,1.68,0,0,0,1-.28,1.18,1.18,0,0,0,.38-1,1.56,1.56,0,0,0-.1-.61,1,1,0,0,0-.28-.4.94.94,0,0,0-.41-.21,2.2,2.2,0,0,0-.53-.06h-.74v2.58Z"/><path class="cls-23" d="M236,20.84a4.32,4.32,0,0,1,1,.11,1.89,1.89,0,0,1,.77.36,1.64,1.64,0,0,1,.51.67,2.66,2.66,0,0,1,.18,1,2.1,2.1,0,0,1-.33,1.19,1.62,1.62,0,0,1-1,.68v0a1.74,1.74,0,0,1,1.14.61,2.14,2.14,0,0,1,.42,1.38,3.32,3.32,0,0,1-.13,1,2,2,0,0,1-.45.8,2.27,2.27,0,0,1-.83.55,3.54,3.54,0,0,1-1.26.2H233.1V20.84Zm-.67,3.52a1.72,1.72,0,0,0,1.05-.26,1,1,0,0,0,.33-.87,1.07,1.07,0,0,0-.3-.86,1.46,1.46,0,0,0-1-.25h-.62v2.24Zm.18,3.78a1.66,1.66,0,0,0,1-.28,1.18,1.18,0,0,0,.38-1,1.56,1.56,0,0,0-.1-.61,1,1,0,0,0-.28-.4.94.94,0,0,0-.41-.21,2.2,2.2,0,0,0-.53-.06h-.74v2.58Z"/><path class="cls-23" d="M239.74,27.12V25.63H242V23.34h1.49v2.29h2.29v1.49h-2.29v2.29H242V27.12Z"/><path class="cls-23" d="M207.93,20.84a4.23,4.23,0,0,1,1,.11,2,2,0,0,1,.78.36,1.71,1.71,0,0,1,.5.67,2.66,2.66,0,0,1,.18,1,2.18,2.18,0,0,1-.32,1.19,1.65,1.65,0,0,1-1,.68v0a1.74,1.74,0,0,1,1.14.61,2.14,2.14,0,0,1,.42,1.38,3.32,3.32,0,0,1-.14,1,1.77,1.77,0,0,1-.45.8,2.23,2.23,0,0,1-.82.55,3.6,3.6,0,0,1-1.27.2H205V20.84Zm-.68,3.52a1.72,1.72,0,0,0,1.05-.26,1,1,0,0,0,.33-.87,1.07,1.07,0,0,0-.3-.86,1.43,1.43,0,0,0-.94-.25h-.63v2.24Zm.18,3.78a1.64,1.64,0,0,0,1-.28,1.16,1.16,0,0,0,.39-1,1.55,1.55,0,0,0-.11-.61,1,1,0,0,0-.27-.4,1,1,0,0,0-.42-.21,2.12,2.12,0,0,0-.52-.06h-.75v2.58Z"/><path class="cls-23" d="M174.11,20.84a4.32,4.32,0,0,1,1,.11,2,2,0,0,1,.77.36,1.62,1.62,0,0,1,.5.67,2.69,2.69,0,0,1,.18,1,2.1,2.1,0,0,1-.32,1.19,1.65,1.65,0,0,1-1,.68v0a1.74,1.74,0,0,1,1.14.61,2.14,2.14,0,0,1,.42,1.38,3.71,3.71,0,0,1-.13,1,2,2,0,0,1-.45.8,2.36,2.36,0,0,1-.83.55,3.56,3.56,0,0,1-1.27.2h-2.91V20.84Zm-.67,3.52a1.72,1.72,0,0,0,1.05-.26,1,1,0,0,0,.33-.87,1.07,1.07,0,0,0-.3-.86,1.48,1.48,0,0,0-1-.25h-.63v2.24Zm.18,3.78a1.62,1.62,0,0,0,1-.28,1.16,1.16,0,0,0,.39-1,1.77,1.77,0,0,0-.1-.61,1,1,0,0,0-.28-.4,1.07,1.07,0,0,0-.41-.21,2.2,2.2,0,0,0-.53-.06h-.75v2.58Z"/><path class="cls-23" d="M181.2,26.65h-3.39V25.24h3.39Z"/><path class="cls-23" d="M135.12,22.54a.84.84,0,0,0-.81-.42.79.79,0,0,0-.53.17,1.16,1.16,0,0,0-.33.56,4.67,4.67,0,0,0-.17,1c0,.42-.05.94-.05,1.55A13.41,13.41,0,0,0,133.3,27a3.44,3.44,0,0,0,.2.93.81.81,0,0,0,.35.44,1,1,0,0,0,.49.12,1.16,1.16,0,0,0,.42-.08.72.72,0,0,0,.34-.31,1.87,1.87,0,0,0,.23-.66,5.72,5.72,0,0,0,.09-1.13h1.72a7.86,7.86,0,0,1-.1,1.32,3.14,3.14,0,0,1-.41,1.1,2,2,0,0,1-.82.73,3.94,3.94,0,0,1-2.94-.05,2.12,2.12,0,0,1-.88-.9,4,4,0,0,1-.4-1.4,18,18,0,0,1,0-3.6,4,4,0,0,1,.4-1.41,2.23,2.23,0,0,1,.88-.92,3.13,3.13,0,0,1,1.55-.33,3,3,0,0,1,1.46.3,2.12,2.12,0,0,1,.8.77,2.82,2.82,0,0,1,.33,1,9.05,9.05,0,0,1,.06,1h-1.73A3.11,3.11,0,0,0,135.12,22.54Z"/><path class="cls-23" d="M141.57,22.54a.84.84,0,0,0-.81-.42.8.8,0,0,0-.54.17,1.16,1.16,0,0,0-.33.56,5.37,5.37,0,0,0-.17,1c0,.42,0,.94,0,1.55s0,1.17.06,1.57a3.39,3.39,0,0,0,.21.93.8.8,0,0,0,.34.44,1,1,0,0,0,.49.12,1.26,1.26,0,0,0,.43-.08.76.76,0,0,0,.34-.31,2.38,2.38,0,0,0,.23-.66,6.75,6.75,0,0,0,.08-1.13h1.73a7.83,7.83,0,0,1-.11,1.32,3.13,3.13,0,0,1-.4,1.1,2,2,0,0,1-.83.73,3.25,3.25,0,0,1-1.39.26,3.21,3.21,0,0,1-1.54-.31,2.15,2.15,0,0,1-.89-.9,4,4,0,0,1-.39-1.4,18,18,0,0,1,0-3.6,4,4,0,0,1,.39-1.41,2.25,2.25,0,0,1,.89-.92,3.09,3.09,0,0,1,1.54-.33,3,3,0,0,1,1.46.3,2,2,0,0,1,.8.77,2.47,2.47,0,0,1,.33,1,9.19,9.19,0,0,1,.07,1h-1.73A3.26,3.26,0,0,0,141.57,22.54Z"/><path class="cls-23" d="M148,22.54a.84.84,0,0,0-.81-.42.77.77,0,0,0-.53.17,1.16,1.16,0,0,0-.33.56,4.67,4.67,0,0,0-.17,1c0,.42,0,.94,0,1.55a13.41,13.41,0,0,0,.07,1.57,3.44,3.44,0,0,0,.2.93.81.81,0,0,0,.35.44,1,1,0,0,0,.48.12,1.18,1.18,0,0,0,.43-.08.72.72,0,0,0,.34-.31,2.1,2.1,0,0,0,.23-.66,5.83,5.83,0,0,0,.08-1.13H150a6.91,6.91,0,0,1-.11,1.32,3,3,0,0,1-.4,1.1,2,2,0,0,1-.83.73,3.17,3.17,0,0,1-1.38.26,3.23,3.23,0,0,1-1.55-.31,2.12,2.12,0,0,1-.88-.9,3.84,3.84,0,0,1-.4-1.4,18,18,0,0,1,0-3.6,3.83,3.83,0,0,1,.4-1.41,2.23,2.23,0,0,1,.88-.92,3.1,3.1,0,0,1,1.55-.33,3,3,0,0,1,1.46.3,2,2,0,0,1,.79.77,2.47,2.47,0,0,1,.33,1,7.22,7.22,0,0,1,.07,1h-1.73A3.11,3.11,0,0,0,148,22.54Z"/><path class="cls-23" d="M151,27.29V25.8h2.29V23.51h1.49V25.8h2.29v1.49h-2.29v2.29h-1.49V27.29Z"/><path class="cls-23" d="M107.31,22.54a.82.82,0,0,0-.81-.42.79.79,0,0,0-.53.17,1.16,1.16,0,0,0-.33.56,4.67,4.67,0,0,0-.17,1c0,.42,0,.94,0,1.55s0,1.17.07,1.57a3.44,3.44,0,0,0,.2.93.86.86,0,0,0,.35.44,1,1,0,0,0,.49.12,1.16,1.16,0,0,0,.42-.08.74.74,0,0,0,.35-.31,2.12,2.12,0,0,0,.22-.66,5.72,5.72,0,0,0,.09-1.13h1.73a7.83,7.83,0,0,1-.11,1.32,3.13,3.13,0,0,1-.4,1.1,2.11,2.11,0,0,1-.83.73,3.94,3.94,0,0,1-2.94-.05,2.18,2.18,0,0,1-.88-.9,4,4,0,0,1-.39-1.4,18,18,0,0,1,0-3.6,4,4,0,0,1,.39-1.41,2.29,2.29,0,0,1,.88-.92,3.13,3.13,0,0,1,1.55-.33,3,3,0,0,1,1.46.3,2,2,0,0,1,.8.77,2.82,2.82,0,0,1,.33,1,9.05,9.05,0,0,1,.06,1h-1.72A3.08,3.08,0,0,0,107.31,22.54Z"/><path class="cls-23" d="M113.76,22.54a.84.84,0,0,0-.81-.42.8.8,0,0,0-.54.17,1.16,1.16,0,0,0-.33.56,4.75,4.75,0,0,0-.16,1c0,.42,0,.94,0,1.55s0,1.17.06,1.57a3.8,3.8,0,0,0,.21.93.81.81,0,0,0,.35.44,1,1,0,0,0,.48.12,1.22,1.22,0,0,0,.43-.08.76.76,0,0,0,.34-.31,2.1,2.1,0,0,0,.23-.66,6.75,6.75,0,0,0,.08-1.13h1.73a7.83,7.83,0,0,1-.11,1.32,3,3,0,0,1-.4,1.1,2,2,0,0,1-.83.73,3.91,3.91,0,0,1-2.93-.05,2.07,2.07,0,0,1-.88-.9,3.84,3.84,0,0,1-.4-1.4,18,18,0,0,1,0-3.6,3.83,3.83,0,0,1,.4-1.41,2.17,2.17,0,0,1,.88-.92,3.1,3.1,0,0,1,1.55-.33,3,3,0,0,1,1.45.3,2,2,0,0,1,.8.77,2.47,2.47,0,0,1,.33,1,7.22,7.22,0,0,1,.07,1H114A3.11,3.11,0,0,0,113.76,22.54Z"/><path class="cls-23" d="M120.2,22.54a.84.84,0,0,0-.81-.42.79.79,0,0,0-.53.17,1.16,1.16,0,0,0-.33.56,4.67,4.67,0,0,0-.17,1c0,.42,0,.94,0,1.55a13.41,13.41,0,0,0,.07,1.57,3.44,3.44,0,0,0,.2.93.81.81,0,0,0,.35.44,1,1,0,0,0,.49.12,1.16,1.16,0,0,0,.42-.08.72.72,0,0,0,.34-.31,1.87,1.87,0,0,0,.23-.66,5.72,5.72,0,0,0,.09-1.13h1.72a7.86,7.86,0,0,1-.1,1.32,3.14,3.14,0,0,1-.41,1.1,2,2,0,0,1-.82.73A3.94,3.94,0,0,1,118,29.4a2.12,2.12,0,0,1-.88-.9,4,4,0,0,1-.4-1.4,18,18,0,0,1,0-3.6,4,4,0,0,1,.4-1.41,2.23,2.23,0,0,1,.88-.92,3.13,3.13,0,0,1,1.55-.33,3,3,0,0,1,1.46.3,2.12,2.12,0,0,1,.8.77,2.82,2.82,0,0,1,.33,1,9.05,9.05,0,0,1,.06,1h-1.73A3.11,3.11,0,0,0,120.2,22.54Z"/><path class="cls-23" d="M73.54,22.54a.83.83,0,0,0-.81-.42.79.79,0,0,0-.53.17,1.16,1.16,0,0,0-.33.56,4.67,4.67,0,0,0-.17,1c0,.42,0,.94,0,1.55s0,1.17.07,1.57a3.44,3.44,0,0,0,.2.93.81.81,0,0,0,.35.44,1,1,0,0,0,.49.12,1.16,1.16,0,0,0,.42-.08.74.74,0,0,0,.35-.31,2.12,2.12,0,0,0,.22-.66,5.72,5.72,0,0,0,.09-1.13h1.73a7.83,7.83,0,0,1-.11,1.32,3.14,3.14,0,0,1-.41,1.1,2,2,0,0,1-.82.73,3.94,3.94,0,0,1-2.94-.05,2.12,2.12,0,0,1-.88-.9,4,4,0,0,1-.4-1.4c-.05-.55-.08-1.15-.08-1.8s0-1.25.08-1.8a4,4,0,0,1,.4-1.41,2.23,2.23,0,0,1,.88-.92,3.13,3.13,0,0,1,1.55-.33,3,3,0,0,1,1.46.3,2.12,2.12,0,0,1,.8.77,2.82,2.82,0,0,1,.33,1,9.05,9.05,0,0,1,.06,1H73.76A3.11,3.11,0,0,0,73.54,22.54Z"/><path class="cls-23" d="M80,22.54a.84.84,0,0,0-.81-.42.8.8,0,0,0-.54.17,1.16,1.16,0,0,0-.33.56,5.37,5.37,0,0,0-.17,1c0,.42,0,.94,0,1.55s0,1.17.06,1.57a3.8,3.8,0,0,0,.21.93.77.77,0,0,0,.35.44.92.92,0,0,0,.48.12,1.26,1.26,0,0,0,.43-.08.76.76,0,0,0,.34-.31,2.1,2.1,0,0,0,.23-.66,6.75,6.75,0,0,0,.08-1.13H82a7.83,7.83,0,0,1-.11,1.32,3,3,0,0,1-.4,1.1,2,2,0,0,1-.83.73,3.25,3.25,0,0,1-1.39.26,3.21,3.21,0,0,1-1.54-.31,2.15,2.15,0,0,1-.89-.9,4,4,0,0,1-.39-1.4,18,18,0,0,1,0-3.6,4,4,0,0,1,.39-1.41,2.25,2.25,0,0,1,.89-.92,3.09,3.09,0,0,1,1.54-.33,3,3,0,0,1,1.46.3,2,2,0,0,1,.8.77,2.47,2.47,0,0,1,.33,1,9.19,9.19,0,0,1,.07,1H80.21A3.26,3.26,0,0,0,80,22.54Z"/><path class="cls-23" d="M86.43,22.54a.84.84,0,0,0-.81-.42.77.77,0,0,0-.53.17,1.16,1.16,0,0,0-.33.56,4.67,4.67,0,0,0-.17,1c0,.42,0,.94,0,1.55A13.41,13.41,0,0,0,84.61,27a3.44,3.44,0,0,0,.2.93.81.81,0,0,0,.35.44,1,1,0,0,0,.48.12,1.18,1.18,0,0,0,.43-.08.72.72,0,0,0,.34-.31,2.1,2.1,0,0,0,.23-.66,5.83,5.83,0,0,0,.08-1.13h1.73a6.91,6.91,0,0,1-.11,1.32,3,3,0,0,1-.4,1.1,2,2,0,0,1-.83.73,3.17,3.17,0,0,1-1.38.26,3.23,3.23,0,0,1-1.55-.31,2.12,2.12,0,0,1-.88-.9,3.84,3.84,0,0,1-.4-1.4,18,18,0,0,1,0-3.6,3.83,3.83,0,0,1,.4-1.41,2.23,2.23,0,0,1,.88-.92,3.1,3.1,0,0,1,1.55-.33,3,3,0,0,1,1.46.3,2,2,0,0,1,.79.77,2.47,2.47,0,0,1,.33,1,7.22,7.22,0,0,1,.07,1H86.65A3.11,3.11,0,0,0,86.43,22.54Z"/><path class="cls-23" d="M92.75,26.82H89.36V25.4h3.39Z"/><path class="cls-23" d="M47.29,22.54a.84.84,0,0,0-.81-.42.77.77,0,0,0-.53.17,1.16,1.16,0,0,0-.33.56,4.67,4.67,0,0,0-.17,1c0,.42-.05.94-.05,1.55A13.41,13.41,0,0,0,45.47,27a3.44,3.44,0,0,0,.2.93.81.81,0,0,0,.35.44,1,1,0,0,0,.48.12,1.18,1.18,0,0,0,.43-.08.72.72,0,0,0,.34-.31,2.1,2.1,0,0,0,.23-.66,5.83,5.83,0,0,0,.08-1.13h1.73a6.91,6.91,0,0,1-.11,1.32,3,3,0,0,1-.4,1.1,2,2,0,0,1-.83.73,3.17,3.17,0,0,1-1.38.26A3.23,3.23,0,0,1,45,29.4a2.12,2.12,0,0,1-.88-.9,3.84,3.84,0,0,1-.4-1.4,18,18,0,0,1,0-3.6,3.83,3.83,0,0,1,.4-1.41,2.23,2.23,0,0,1,.88-.92,3.1,3.1,0,0,1,1.55-.33,3,3,0,0,1,1.46.3,2,2,0,0,1,.79.77,2.47,2.47,0,0,1,.33,1,7.22,7.22,0,0,1,.07,1H47.51A3.11,3.11,0,0,0,47.29,22.54Z"/><path class="cls-23" d="M53.73,22.54a.83.83,0,0,0-.81-.42.79.79,0,0,0-.53.17,1.16,1.16,0,0,0-.33.56,4.67,4.67,0,0,0-.17,1c0,.42,0,.94,0,1.55s0,1.17.07,1.57a3.44,3.44,0,0,0,.2.93.86.86,0,0,0,.35.44,1,1,0,0,0,.49.12,1.16,1.16,0,0,0,.42-.08.74.74,0,0,0,.35-.31,2.12,2.12,0,0,0,.22-.66A5.72,5.72,0,0,0,54,26.3h1.73a7.83,7.83,0,0,1-.11,1.32,3.13,3.13,0,0,1-.4,1.1,2.11,2.11,0,0,1-.83.73,3.94,3.94,0,0,1-2.94-.05,2.18,2.18,0,0,1-.88-.9,4,4,0,0,1-.39-1.4,18,18,0,0,1,0-3.6,4,4,0,0,1,.39-1.41,2.29,2.29,0,0,1,.88-.92A3.13,3.13,0,0,1,53,20.84a3,3,0,0,1,1.46.3,2,2,0,0,1,.8.77,2.82,2.82,0,0,1,.33,1,9.05,9.05,0,0,1,.06,1H54A3.08,3.08,0,0,0,53.73,22.54Z"/><path class="cls-23" d="M18.09,20.84a3,3,0,0,1,1.45.3,2,2,0,0,1,.86.84,3.74,3.74,0,0,1,.41,1.31A11.31,11.31,0,0,1,20.92,25a11.33,11.33,0,0,1-.14,2,3.74,3.74,0,0,1-.47,1.37,2.07,2.07,0,0,1-.9.81,3.48,3.48,0,0,1-1.43.26H15.26V20.84Zm-.34,7.3a1.45,1.45,0,0,0,.74-.16,1,1,0,0,0,.43-.51,3.09,3.09,0,0,0,.22-.95c0-.39.05-.88.05-1.46s0-.92,0-1.29a3.5,3.5,0,0,0-.2-.92,1.17,1.17,0,0,0-.45-.55,1.45,1.45,0,0,0-.78-.18H17v6Z"/><path class="cls-24" d="M354,3.35h1.72v8.56H354Z"/><path class="cls-24" d="M358.5,5.46v.75h0a1.64,1.64,0,0,1,.68-.7,2,2,0,0,1,1-.22,1.62,1.62,0,0,1,1.22.43,2,2,0,0,1,.43,1.41v4.78h-1.66V7.46a1.12,1.12,0,0,0-.17-.7.67.67,0,0,0-.54-.2c-.58,0-.87.36-.87,1.07v4.28h-1.66V5.46Z"/><path class="cls-24" d="M367.64,5.46,366,11.91H364.1l-1.67-6.45h1.73l.92,4.62h0L366,5.46Z"/><path class="cls-24" d="M369.66,9.45a3.33,3.33,0,0,0,0,.56,1.69,1.69,0,0,0,.13.48,1,1,0,0,0,.26.34.6.6,0,0,0,.38.12.67.67,0,0,0,.61-.3,2.18,2.18,0,0,0,.27-.91h1.48a2.58,2.58,0,0,1-.6,1.72,2.27,2.27,0,0,1-1.74.59,2.75,2.75,0,0,1-1.4-.3,1.84,1.84,0,0,1-.74-.8,3.13,3.13,0,0,1-.3-1.1c0-.41-.05-.82-.05-1.22a8.36,8.36,0,0,1,.09-1.25,3,3,0,0,1,.36-1.07,2,2,0,0,1,.77-.74,2.76,2.76,0,0,1,1.35-.28,2.69,2.69,0,0,1,1.18.23,1.77,1.77,0,0,1,.72.66,2.67,2.67,0,0,1,.36,1,7.91,7.91,0,0,1,.1,1.35v.37h-3.28Zm1.65-2.15a1.84,1.84,0,0,0-.13-.48.68.68,0,0,0-.25-.3.76.76,0,0,0-.41-.1.77.77,0,0,0-.42.11.94.94,0,0,0-.26.3,1.38,1.38,0,0,0-.13.42,2.3,2.3,0,0,0,0,.45V8h1.7C371.35,7.71,371.33,7.49,371.31,7.3Z"/><path class="cls-24" d="M375,10a1,1,0,0,0,.23.68.8.8,0,0,0,.64.25.89.89,0,0,0,.61-.19.72.72,0,0,0,.23-.57.62.62,0,0,0-.18-.48,1.49,1.49,0,0,0-.42-.26L375,9a2.27,2.27,0,0,1-1-.67,1.79,1.79,0,0,1-.34-1.13,2.11,2.11,0,0,1,.13-.75,1.49,1.49,0,0,1,.42-.61,2,2,0,0,1,.74-.42A3.15,3.15,0,0,1,376,5.29a2.47,2.47,0,0,1,1.67.48,1.72,1.72,0,0,1,.54,1.36v.26h-1.49a1.31,1.31,0,0,0-.16-.74.66.66,0,0,0-.57-.23.94.94,0,0,0-.55.17.63.63,0,0,0-.23.52.71.71,0,0,0,.15.44,1.24,1.24,0,0,0,.57.32l1,.34a2.22,2.22,0,0,1,1.1.69,1.83,1.83,0,0,1,.32,1.15,2.06,2.06,0,0,1-.18.9,1.79,1.79,0,0,1-.49.63,2,2,0,0,1-.76.36,4.57,4.57,0,0,1-2.12,0,1.68,1.68,0,0,1-.74-.39,1.42,1.42,0,0,1-.37-.64,2.87,2.87,0,0,1-.11-.85V9.8H375Z"/><path class="cls-24" d="M381.15,3.61V5.46h1V6.59h-1v3.49a.93.93,0,0,0,.11.54.57.57,0,0,0,.48.17h.19l.18,0v1.15l-.54,0L381,12a3.5,3.5,0,0,1-.79-.07.81.81,0,0,1-.47-.26,1.24,1.24,0,0,1-.22-.52,4.67,4.67,0,0,1-.06-.82V6.59h-.84V5.46h.84V3.61Z"/><path class="cls-24" d="M384.27,5.46v.66h0a1.91,1.91,0,0,1,.7-.64,2.06,2.06,0,0,1,.93-.19,1.73,1.73,0,0,1,1,.26,1.32,1.32,0,0,1,.52.77h0a1.5,1.5,0,0,1,.62-.77,2,2,0,0,1,1-.26,1.48,1.48,0,0,1,1.22.5,2.28,2.28,0,0,1,.39,1.43v4.69H389V7.4a1.07,1.07,0,0,0-.15-.62.56.56,0,0,0-.5-.22.8.8,0,0,0-.63.27,1.26,1.26,0,0,0-.23.84v4.24h-1.66V7.4a1.07,1.07,0,0,0-.15-.62.56.56,0,0,0-.5-.22.8.8,0,0,0-.63.27,1.26,1.26,0,0,0-.23.84v4.24h-1.66V5.46Z"/><path class="cls-24" d="M393.19,9.45a3.33,3.33,0,0,0,.05.56,1.42,1.42,0,0,0,.14.48.86.86,0,0,0,.25.34A.6.6,0,0,0,394,11a.67.67,0,0,0,.61-.3,2.18,2.18,0,0,0,.27-.91h1.49a2.63,2.63,0,0,1-.61,1.72,2.27,2.27,0,0,1-1.74.59,2.75,2.75,0,0,1-1.4-.3,1.9,1.9,0,0,1-.74-.8,3.13,3.13,0,0,1-.3-1.1c0-.41,0-.82,0-1.22a8.36,8.36,0,0,1,.09-1.25A3,3,0,0,1,392,6.31a2,2,0,0,1,.77-.74,2.76,2.76,0,0,1,1.35-.28,2.69,2.69,0,0,1,1.18.23,1.77,1.77,0,0,1,.72.66,2.84,2.84,0,0,1,.37,1,9.16,9.16,0,0,1,.09,1.35v.37h-3.28Zm1.65-2.15a1.84,1.84,0,0,0-.13-.48.68.68,0,0,0-.25-.3.73.73,0,0,0-.41-.1.77.77,0,0,0-.42.11.81.81,0,0,0-.25.3,1.16,1.16,0,0,0-.14.42,2.3,2.3,0,0,0-.05.45V8h1.7C394.88,7.71,394.86,7.49,394.84,7.3Z"/><path class="cls-24" d="M398.92,5.46v.75h0a1.72,1.72,0,0,1,.69-.7,2,2,0,0,1,1-.22,1.65,1.65,0,0,1,1.22.43,2,2,0,0,1,.42,1.41v4.78h-1.66V7.46a1.13,1.13,0,0,0-.16-.7.7.7,0,0,0-.54-.2c-.59,0-.88.36-.88,1.07v4.28h-1.66V5.46Z"/><path class="cls-24" d="M405.35,3.61V5.46h1V6.59h-1v3.49a1,1,0,0,0,.11.54.57.57,0,0,0,.48.17h.19l.18,0v1.15l-.53,0-.55,0a3.5,3.5,0,0,1-.79-.07.75.75,0,0,1-.46-.26,1.13,1.13,0,0,1-.23-.52,4.67,4.67,0,0,1-.06-.82V6.59h-.84V5.46h.84V3.61Z"/><path class="cls-24" d="M414.6,11.59a2.51,2.51,0,0,1-.62,1.87,2.82,2.82,0,0,1-2.07.63,2.56,2.56,0,0,1-1.62-.45,1.54,1.54,0,0,1-.57-1.28h1.58a.58.58,0,0,0,.25.49.91.91,0,0,0,.26.13.94.94,0,0,0,.3,0,.77.77,0,0,0,.7-.32,1.48,1.48,0,0,0,.21-.81v-.85h0a2,2,0,0,1-.61.58,1.54,1.54,0,0,1-.77.21,1.66,1.66,0,0,1-1.48-.75,4.75,4.75,0,0,1-.5-2.51,11.26,11.26,0,0,1,.07-1.15A3.5,3.5,0,0,1,410,6.36a1.92,1.92,0,0,1,.61-.77,1.74,1.74,0,0,1,1.07-.3,1.55,1.55,0,0,1,.72.19,1.43,1.43,0,0,1,.61.7h0V5.46h1.58Zm-3.28-2.06a2.06,2.06,0,0,0,.12.53.84.84,0,0,0,.25.37.65.65,0,0,0,.43.14.72.72,0,0,0,.44-.14,1,1,0,0,0,.27-.38,2.13,2.13,0,0,0,.15-.58c0-.23,0-.48,0-.75a5.07,5.07,0,0,0-.19-1.67.68.68,0,0,0-.68-.49.74.74,0,0,0-.44.12.77.77,0,0,0-.26.39,2.51,2.51,0,0,0-.13.72c0,.3,0,.67,0,1.1C411.29,9.11,411.3,9.33,411.32,9.53Z"/><path class="cls-24" d="M417.35,5.46v.86h0a2.44,2.44,0,0,1,.62-.75,1.35,1.35,0,0,1,.87-.28h.3V6.9l-.26,0h-.25a1.67,1.67,0,0,0-.44.06,1.2,1.2,0,0,0-.39.2.94.94,0,0,0-.29.36,1.28,1.28,0,0,0-.11.55v3.87h-1.65V5.46Z"/><path class="cls-24" d="M419.75,7.28a2.19,2.19,0,0,1,.18-.94,1.56,1.56,0,0,1,.49-.61,1.85,1.85,0,0,1,.72-.34,3.54,3.54,0,0,1,.88-.1,4.39,4.39,0,0,1,1.2.14,1.8,1.8,0,0,1,.71.41,1.49,1.49,0,0,1,.34.63,3.38,3.38,0,0,1,.09.8v3.4a4.23,4.23,0,0,0,0,.7,2.51,2.51,0,0,0,.16.54H423a1.2,1.2,0,0,1-.13-.33c0-.11-.05-.23-.08-.34h0a1.37,1.37,0,0,1-.67.66,2.63,2.63,0,0,1-1,.15,1.65,1.65,0,0,1-.74-.15,1.22,1.22,0,0,1-.48-.42,1.86,1.86,0,0,1-.26-.59,2.48,2.48,0,0,1-.08-.66,3,3,0,0,1,.09-.78,1.55,1.55,0,0,1,.3-.57,1.81,1.81,0,0,1,.5-.39,4.15,4.15,0,0,1,.74-.27l.93-.25a1.09,1.09,0,0,0,.52-.27.7.7,0,0,0,.14-.49.85.85,0,0,0-.17-.58.73.73,0,0,0-.59-.21.69.69,0,0,0-.58.23.89.89,0,0,0-.19.61v.18h-1.49Zm2.66,1.62a1.9,1.9,0,0,1-.34.11,1.22,1.22,0,0,0-.72.36,1,1,0,0,0-.22.68,1.41,1.41,0,0,0,.14.64.5.5,0,0,0,.48.26,1.06,1.06,0,0,0,.35,0,1,1,0,0,0,.33-.17,1,1,0,0,0,.25-.32,1,1,0,0,0,.09-.45V8.69A2.12,2.12,0,0,1,422.41,8.9Z"/><path class="cls-24" d="M428.82,11.23a1.66,1.66,0,0,1-.62.64,1.77,1.77,0,0,1-.84.18,1.63,1.63,0,0,1-1.5-.78,5.16,5.16,0,0,1-.48-2.58,5.27,5.27,0,0,1,.48-2.6,1.63,1.63,0,0,1,1.5-.8,1.55,1.55,0,0,1,.8.19,1.91,1.91,0,0,1,.59.58h0V3.35h1.66v8.56h-1.58v-.68Zm-1.62-1a.67.67,0,0,0,.7.53.68.68,0,0,0,.71-.53,5.82,5.82,0,0,0,.16-1.59,5.72,5.72,0,0,0-.16-1.59.68.68,0,0,0-.71-.54.67.67,0,0,0-.7.54A5.65,5.65,0,0,0,427,8.69,5.75,5.75,0,0,0,427.2,10.28Z"/><path class="cls-24" d="M433,9.45a3.36,3.36,0,0,0,0,.56,2.09,2.09,0,0,0,.14.48,1,1,0,0,0,.25.34.62.62,0,0,0,.39.12.67.67,0,0,0,.61-.3,2.2,2.2,0,0,0,.26-.91h1.49a2.58,2.58,0,0,1-.6,1.72,2.3,2.3,0,0,1-1.74.59,2.72,2.72,0,0,1-1.4-.3,1.86,1.86,0,0,1-.75-.8,2.93,2.93,0,0,1-.29-1.1c0-.41-.06-.82-.06-1.22a8.36,8.36,0,0,1,.09-1.25,3,3,0,0,1,.36-1.07,1.92,1.92,0,0,1,.78-.74,2.7,2.7,0,0,1,1.34-.28,2.66,2.66,0,0,1,1.18.23,1.87,1.87,0,0,1,.73.66,2.67,2.67,0,0,1,.36,1,9.07,9.07,0,0,1,.1,1.35v.37H433Zm1.64-2.15a1.53,1.53,0,0,0-.12-.48.75.75,0,0,0-.25-.3.77.77,0,0,0-.42-.1.73.73,0,0,0-.41.11.83.83,0,0,0-.26.3,1.73,1.73,0,0,0-.14.42,2.28,2.28,0,0,0,0,.45V8h1.69A5.94,5.94,0,0,0,434.59,7.3Z"/><polygon class="cls-24" points="448.02 8.37 440.41 3.97 440.41 12.76 448.02 8.37"/></g></svg>