<svg xmlns="http://www.w3.org/2000/svg" viewBox="0 0 668.12 33.8"><defs><style>.cls-1{fill:#f6ea55;}.cls-1,.cls-10,.cls-11,.cls-12,.cls-13,.cls-14,.cls-15,.cls-16,.cls-17,.cls-18,.cls-19,.cls-2,.cls-20,.cls-21,.cls-3,.cls-4,.cls-5,.cls-6,.cls-7,.cls-8,.cls-9{stroke:#fffaf6;}.cls-1,.cls-10,.cls-11,.cls-12,.cls-13,.cls-14,.cls-15,.cls-16,.cls-17,.cls-18,.cls-19,.cls-2,.cls-20,.cls-21,.cls-22,.cls-3,.cls-4,.cls-5,.cls-6,.cls-7,.cls-8,.cls-9{stroke-miterlimit:10;}.cls-2{fill:#e0e451;}.cls-3{fill:#c4da55;}.cls-4{fill:#a8d05c;}.cls-5{fill:#91ca66;}.cls-6{fill:#79c36f;}.cls-7{fill:#67be79;}.cls-8{fill:#59b180;}.cls-9{fill:#4ea586;}.cls-10{fill:#4a9c8a;}.cls-11{fill:#48918d;}.cls-12{fill:#45828d;}.cls-13{fill:#41788f;}.cls-14{fill:#416c8c;}.cls-15{fill:#3f5f8a;}.cls-16{fill:#40548a;}.cls-17{fill:#434684;}.cls-18{fill:#45357d;}.cls-19{fill:#452a71;}.cls-20{fill:#402461;}.cls-21{fill:#3c1a51;}.cls-22{fill:none;stroke:#6e5950;}.cls-23{fill:#fffaf6;}.cls-24{fill:#6e5950;}</style></defs><g id="Layer_1" data-name="Layer 1"><rect class="cls-1" x="2.28" y="18.66" width="31.62" height="13.03"/><rect class="cls-2" x="33.9" y="18.66" width="31.62" height="13.03"/><rect class="cls-3" x="65.53" y="18.66" width="31.62" height="13.03"/><rect class="cls-4" x="97.15" y="18.66" width="31.62" height="13.03"/><rect class="cls-5" x="128.77" y="18.66" width="31.62" height="13.03"/><rect class="cls-6" x="160.4" y="18.66" width="31.62" height="13.03"/><rect class="cls-7" x="192.02" y="18.66" width="31.62" height="13.03"/><rect class="cls-8" x="223.64" y="18.66" width="31.62" height="13.03"/><rect class="cls-9" x="255.27" y="18.66" width="31.62" height="13.03"/><rect class="cls-10" x="286.89" y="18.66" width="31.62" height="13.03"/><rect class="cls-11" x="318.51" y="18.66" width="31.62" height="13.03"/><rect class="cls-12" x="350.14" y="18.66" width="31.62" height="13.03"/><rect class="cls-13" x="381.76" y="18.66" width="31.62" height="13.03"/><rect class="cls-14" x="413.38" y="18.66" width="31.62" height="13.03"/><rect class="cls-15" x="445.01" y="18.66" width="31.62" height="13.03"/><rect class="cls-16" x="476.63" y="18.66" width="31.62" height="13.03"/><rect class="cls-17" x="508.25" y="18.66" width="31.62" height="13.03"/><rect class="cls-18" x="539.88" y="18.66" width="31.62" height="13.03"/><rect class="cls-19" x="571.5" y="18.66" width="31.62" height="13.03"/><rect class="cls-20" x="603.12" y="18.66" width="31.62" height="13.03"/><rect class="cls-21" x="634.75" y="18.66" width="31.62" height="13.03"/></g><g id="Layer_2" data-name="Layer 2"><line class="cls-22" x1="350.14" y1="3.45" x2="350.14" y2="32.51"/><path class="cls-23" d="M646.72,21.92l1.7,6.42h-1.35L646.78,27h-1.71l-.3,1.36h-1.35l1.7-6.42Zm-.17,4L645.93,23h0l-.62,2.89Z"/><path class="cls-23" d="M651.73,21.92l1.7,6.42h-1.35l-.3-1.36h-1.71l-.3,1.36h-1.35l1.7-6.42Zm-.18,4L650.93,23h0l-.63,2.89Z"/><path class="cls-23" d="M656.73,21.92l1.7,6.42h-1.35l-.3-1.36h-1.71l-.29,1.36h-1.35l1.7-6.42Zm-.17,4L655.94,23h0l-.62,2.89Z"/><path class="cls-23" d="M615.63,21.92l1.71,6.42H616l-.3-1.36H614l-.3,1.36h-1.35l1.7-6.42Zm-.17,4L614.84,23h0l-.63,2.89Z"/><path class="cls-23" d="M620.64,21.92l1.7,6.42H621l-.3-1.36H619l-.29,1.36h-1.35l1.7-6.42Zm-.17,4L619.85,23h0l-.62,2.89Z"/><path class="cls-23" d="M622.76,26.62V25.51h1.72V23.79h1.12v1.72h1.72v1.11H625.6v1.72h-1.12V26.62Z"/><path class="cls-23" d="M585.94,21.92l1.7,6.42h-1.35L586,27h-1.71l-.3,1.36h-1.35l1.7-6.42Zm-.17,4L585.15,23h0l-.62,2.89Z"/><path class="cls-23" d="M591,21.92l1.7,6.42H591.3L591,27h-1.71l-.3,1.36h-1.35l1.7-6.42Zm-.18,4L590.15,23h0l-.63,2.89Z"/><path class="cls-23" d="M554.26,21.92l1.7,6.42h-1.35L554.32,27h-1.71l-.3,1.36H551l1.7-6.42Zm-.17,4L553.47,23h0l-.62,2.89Z"/><path class="cls-23" d="M559.27,21.92l1.7,6.42h-1.35l-.3-1.36h-1.71l-.3,1.36H556l1.71-6.42Zm-.17,4L558.48,23h0l-.62,2.89Z"/><path class="cls-23" d="M563.9,26.27h-2.54V25.21h2.54Z"/><path class="cls-23" d="M524.86,21.92l1.7,6.42h-1.35l-.3-1.36H523.2l-.3,1.36h-1.35l1.7-6.42Zm-.18,4L524.06,23h0l-.62,2.89Z"/><path class="cls-23" d="M527,26.62V25.51h1.72V23.79h1.12v1.72h1.71v1.11h-1.71v1.72H528.7V26.62Z"/><path class="cls-23" d="M493.24,21.92l1.7,6.42h-1.35L493.3,27h-1.71l-.3,1.36h-1.35l1.7-6.42Zm-.17,4L492.45,23h0l-.62,2.89Z"/><path class="cls-23" d="M461.12,21.92l1.7,6.42h-1.35l-.3-1.36h-1.71l-.3,1.36h-1.35l1.7-6.42Zm-.18,4L460.32,23h0l-.63,2.89Z"/><path class="cls-23" d="M465.75,26.27h-2.54V25.21h2.54Z"/><path class="cls-23" d="M422.35,21.92a2.82,2.82,0,0,1,.73.08,1.35,1.35,0,0,1,.58.27,1.13,1.13,0,0,1,.38.5,2,2,0,0,1,.14.77,1.56,1.56,0,0,1-.25.9,1.2,1.2,0,0,1-.73.51v0a1.28,1.28,0,0,1,.86.45,1.61,1.61,0,0,1,.31,1,2.84,2.84,0,0,1-.09.72,1.49,1.49,0,0,1-.34.6,1.72,1.72,0,0,1-.62.41,2.63,2.63,0,0,1-.95.15h-2.19V21.92Zm-.5,2.63a1.24,1.24,0,0,0,.78-.19.77.77,0,0,0,.25-.65.8.8,0,0,0-.22-.65,1.09,1.09,0,0,0-.72-.19h-.46v1.68Zm.13,2.84a1.29,1.29,0,0,0,.76-.21.88.88,0,0,0,.28-.76A1.26,1.26,0,0,0,423,26a.71.71,0,0,0-.52-.45,1.62,1.62,0,0,0-.4-.05h-.55v1.94Z"/><path class="cls-23" d="M427.35,21.92a2.9,2.9,0,0,1,.74.08,1.41,1.41,0,0,1,.58.27,1.21,1.21,0,0,1,.38.5,2,2,0,0,1,.13.77,1.63,1.63,0,0,1-.24.9,1.23,1.23,0,0,1-.73.51v0a1.25,1.25,0,0,1,.85.45,1.61,1.61,0,0,1,.32,1,2.46,2.46,0,0,1-.1.72,1.49,1.49,0,0,1-.34.6,1.64,1.64,0,0,1-.62.41,2.59,2.59,0,0,1-.95.15h-2.19V21.92Zm-.5,2.63a1.3,1.3,0,0,0,.79-.19,1,1,0,0,0,0-1.3,1.08,1.08,0,0,0-.71-.19h-.47v1.68Zm.13,2.84a1.25,1.25,0,0,0,.76-.21.88.88,0,0,0,.29-.76A1.24,1.24,0,0,0,428,26a.81.81,0,0,0-.21-.3.75.75,0,0,0-.31-.15,1.6,1.6,0,0,0-.39-.05h-.56v1.94Z"/><path class="cls-23" d="M432.36,21.92a2.82,2.82,0,0,1,.73.08,1.35,1.35,0,0,1,.58.27,1.21,1.21,0,0,1,.38.5,2,2,0,0,1,.13.77,1.63,1.63,0,0,1-.24.9,1.2,1.2,0,0,1-.73.51v0a1.28,1.28,0,0,1,.86.45,1.61,1.61,0,0,1,.31,1,2.46,2.46,0,0,1-.1.72,1.47,1.47,0,0,1-.33.6,1.68,1.68,0,0,1-.63.41,2.57,2.57,0,0,1-.94.15h-2.19V21.92Zm-.51,2.63a1.28,1.28,0,0,0,.79-.19.77.77,0,0,0,.25-.65.8.8,0,0,0-.23-.65,1.06,1.06,0,0,0-.71-.19h-.47v1.68Zm.14,2.84a1.23,1.23,0,0,0,.75-.21.86.86,0,0,0,.29-.76A1.26,1.26,0,0,0,433,26a1,1,0,0,0-.21-.3.81.81,0,0,0-.31-.15,1.62,1.62,0,0,0-.4-.05h-.56v1.94Z"/><path class="cls-23" d="M435.17,26.62V25.51h1.71V23.79H438v1.72h1.72v1.11H438v1.72h-1.12V26.62Z"/><path class="cls-23" d="M391.77,21.92a2.82,2.82,0,0,1,.73.08,1.35,1.35,0,0,1,.58.27,1.21,1.21,0,0,1,.38.5,2,2,0,0,1,.13.77,1.63,1.63,0,0,1-.24.9,1.2,1.2,0,0,1-.73.51v0a1.28,1.28,0,0,1,.86.45,1.61,1.61,0,0,1,.31,1,2.46,2.46,0,0,1-.1.72,1.47,1.47,0,0,1-.33.6,1.72,1.72,0,0,1-.62.41,2.67,2.67,0,0,1-.95.15H389.6V21.92Zm-.51,2.63a1.28,1.28,0,0,0,.79-.19.77.77,0,0,0,.25-.65.8.8,0,0,0-.23-.65,1.06,1.06,0,0,0-.71-.19h-.47v1.68Zm.14,2.84a1.23,1.23,0,0,0,.75-.21.86.86,0,0,0,.29-.76,1.26,1.26,0,0,0-.07-.47.71.71,0,0,0-.52-.45,1.62,1.62,0,0,0-.4-.05h-.56v1.94Z"/><path class="cls-23" d="M396.77,21.92a2.9,2.9,0,0,1,.74.08,1.47,1.47,0,0,1,.58.27,1.19,1.19,0,0,1,.37.5,2,2,0,0,1,.14.77,1.63,1.63,0,0,1-.24.9,1.26,1.26,0,0,1-.73.51v0a1.25,1.25,0,0,1,.85.45,1.61,1.61,0,0,1,.32,1,2.84,2.84,0,0,1-.1.72,1.49,1.49,0,0,1-.34.6,1.72,1.72,0,0,1-.62.41,2.63,2.63,0,0,1-.95.15H394.6V21.92Zm-.5,2.63a1.24,1.24,0,0,0,.78-.19.77.77,0,0,0,.25-.65.8.8,0,0,0-.22-.65,1.08,1.08,0,0,0-.71-.19h-.47v1.68Zm.13,2.84a1.27,1.27,0,0,0,.76-.21.88.88,0,0,0,.29-.76,1.24,1.24,0,0,0-.08-.47.81.81,0,0,0-.21-.3.75.75,0,0,0-.31-.15,1.6,1.6,0,0,0-.39-.05h-.56v1.94Z"/><path class="cls-23" d="M401.78,21.92a2.87,2.87,0,0,1,.73.08,1.41,1.41,0,0,1,.58.27,1.21,1.21,0,0,1,.38.5,2,2,0,0,1,.13.77,1.63,1.63,0,0,1-.24.9,1.23,1.23,0,0,1-.73.51v0a1.28,1.28,0,0,1,.86.45,1.61,1.61,0,0,1,.31,1,2.46,2.46,0,0,1-.1.72,1.38,1.38,0,0,1-.34.6,1.64,1.64,0,0,1-.62.41,2.59,2.59,0,0,1-.95.15h-2.18V21.92Zm-.51,2.63a1.3,1.3,0,0,0,.79-.19,1,1,0,0,0,0-1.3,1.08,1.08,0,0,0-.71-.19h-.47v1.68Zm.14,2.84a1.23,1.23,0,0,0,.75-.21.88.88,0,0,0,.29-.76,1.24,1.24,0,0,0-.08-.47.93.93,0,0,0-.2-.3.81.81,0,0,0-.31-.15,1.68,1.68,0,0,0-.4-.05h-.56v1.94Z"/><path class="cls-23" d="M360,21.92a2.82,2.82,0,0,1,.73.08,1.35,1.35,0,0,1,.58.27,1.21,1.21,0,0,1,.38.5,2,2,0,0,1,.14.77,1.64,1.64,0,0,1-.25.9,1.2,1.2,0,0,1-.73.51v0a1.28,1.28,0,0,1,.86.45,1.61,1.61,0,0,1,.31,1,2.46,2.46,0,0,1-.1.72,1.36,1.36,0,0,1-.33.6,1.72,1.72,0,0,1-.62.41,2.67,2.67,0,0,1-.95.15H357.8V21.92Zm-.51,2.63a1.28,1.28,0,0,0,.79-.19.77.77,0,0,0,.25-.65.8.8,0,0,0-.23-.65,1.06,1.06,0,0,0-.71-.19h-.46v1.68Zm.14,2.84a1.29,1.29,0,0,0,.76-.21.88.88,0,0,0,.28-.76,1.26,1.26,0,0,0-.07-.47.71.71,0,0,0-.52-.45,1.62,1.62,0,0,0-.4-.05h-.55v1.94Z"/><path class="cls-23" d="M365,21.92a2.9,2.9,0,0,1,.74.08,1.47,1.47,0,0,1,.58.27,1.19,1.19,0,0,1,.37.5,2,2,0,0,1,.14.77,1.63,1.63,0,0,1-.24.9,1.26,1.26,0,0,1-.73.51v0a1.25,1.25,0,0,1,.85.45,1.61,1.61,0,0,1,.32,1,2.84,2.84,0,0,1-.1.72,1.49,1.49,0,0,1-.34.6,1.72,1.72,0,0,1-.62.41,2.63,2.63,0,0,1-.95.15H362.8V21.92Zm-.5,2.63a1.3,1.3,0,0,0,.79-.19,1,1,0,0,0,0-1.3,1.08,1.08,0,0,0-.71-.19h-.47v1.68Zm.13,2.84a1.25,1.25,0,0,0,.76-.21.88.88,0,0,0,.29-.76,1.24,1.24,0,0,0-.08-.47.81.81,0,0,0-.21-.3.75.75,0,0,0-.31-.15,1.6,1.6,0,0,0-.39-.05h-.56v1.94Z"/><path class="cls-23" d="M370,21.92a2.87,2.87,0,0,1,.73.08,1.41,1.41,0,0,1,.58.27,1.21,1.21,0,0,1,.38.5,2,2,0,0,1,.13.77,1.63,1.63,0,0,1-.24.9,1.2,1.2,0,0,1-.73.51v0a1.28,1.28,0,0,1,.86.45,1.61,1.61,0,0,1,.31,1,2.46,2.46,0,0,1-.1.72,1.38,1.38,0,0,1-.34.6,1.56,1.56,0,0,1-.62.41,2.59,2.59,0,0,1-.95.15h-2.18V21.92Zm-.51,2.63a1.3,1.3,0,0,0,.79-.19,1,1,0,0,0,0-1.3,1.06,1.06,0,0,0-.71-.19h-.47v1.68Zm.14,2.84a1.23,1.23,0,0,0,.75-.21.86.86,0,0,0,.29-.76,1.07,1.07,0,0,0-.08-.47.93.93,0,0,0-.2-.3.81.81,0,0,0-.31-.15,1.62,1.62,0,0,0-.4-.05h-.56v1.94Z"/><path class="cls-23" d="M375.3,26.27h-2.54V25.21h2.54Z"/><path class="cls-23" d="M329.7,21.92a2.9,2.9,0,0,1,.74.08,1.47,1.47,0,0,1,.58.27,1.19,1.19,0,0,1,.37.5,2,2,0,0,1,.14.77,1.63,1.63,0,0,1-.24.9,1.26,1.26,0,0,1-.73.51v0a1.25,1.25,0,0,1,.85.45,1.61,1.61,0,0,1,.32,1,2.84,2.84,0,0,1-.1.72,1.49,1.49,0,0,1-.34.6,1.64,1.64,0,0,1-.62.41,2.63,2.63,0,0,1-.95.15h-2.19V21.92Zm-.5,2.63a1.3,1.3,0,0,0,.79-.19,1,1,0,0,0,0-1.3,1.08,1.08,0,0,0-.71-.19h-.47v1.68Zm.13,2.84a1.25,1.25,0,0,0,.76-.21.88.88,0,0,0,.29-.76,1.24,1.24,0,0,0-.08-.47.81.81,0,0,0-.21-.3.75.75,0,0,0-.31-.15,1.6,1.6,0,0,0-.39-.05h-.56v1.94Z"/><path class="cls-23" d="M334.71,21.92a2.87,2.87,0,0,1,.73.08,1.41,1.41,0,0,1,.58.27,1.21,1.21,0,0,1,.38.5,2,2,0,0,1,.13.77,1.63,1.63,0,0,1-.24.9,1.2,1.2,0,0,1-.73.51v0a1.28,1.28,0,0,1,.86.45,1.61,1.61,0,0,1,.31,1,2.46,2.46,0,0,1-.1.72,1.38,1.38,0,0,1-.34.6,1.56,1.56,0,0,1-.62.41,2.59,2.59,0,0,1-.95.15h-2.18V21.92Zm-.51,2.63a1.3,1.3,0,0,0,.79-.19,1,1,0,0,0,0-1.3,1.06,1.06,0,0,0-.71-.19h-.47v1.68Zm.14,2.84a1.23,1.23,0,0,0,.75-.21.86.86,0,0,0,.29-.76,1.07,1.07,0,0,0-.08-.47.93.93,0,0,0-.2-.3.81.81,0,0,0-.31-.15,1.62,1.62,0,0,0-.4-.05h-.56v1.94Z"/><path class="cls-23" d="M337.51,26.62V25.51h1.72V23.79h1.12v1.72h1.72v1.11h-1.72v1.72h-1.12V26.62Z"/><path class="cls-23" d="M269.6,21.92a2.82,2.82,0,0,1,.73.08,1.35,1.35,0,0,1,.58.27,1.13,1.13,0,0,1,.38.5,2,2,0,0,1,.14.77,1.56,1.56,0,0,1-.25.9,1.2,1.2,0,0,1-.72.51v0a1.25,1.25,0,0,1,.85.45,1.61,1.61,0,0,1,.32,1,2.84,2.84,0,0,1-.1.72,1.49,1.49,0,0,1-.34.6,1.72,1.72,0,0,1-.62.41,2.63,2.63,0,0,1-.95.15h-2.19V21.92Zm-.5,2.63a1.24,1.24,0,0,0,.78-.19.77.77,0,0,0,.25-.65.8.8,0,0,0-.22-.65,1.08,1.08,0,0,0-.71-.19h-.47v1.68Zm.13,2.84a1.27,1.27,0,0,0,.76-.21.88.88,0,0,0,.29-.76,1.24,1.24,0,0,0-.08-.47.81.81,0,0,0-.21-.3.75.75,0,0,0-.31-.15,1.6,1.6,0,0,0-.39-.05h-.56v1.94Z"/><path class="cls-23" d="M274.6,21.92a2.9,2.9,0,0,1,.74.08,1.41,1.41,0,0,1,.58.27,1.21,1.21,0,0,1,.38.5,2,2,0,0,1,.13.77,1.63,1.63,0,0,1-.24.9,1.23,1.23,0,0,1-.73.51v0a1.25,1.25,0,0,1,.85.45,1.61,1.61,0,0,1,.32,1,2.46,2.46,0,0,1-.1.72,1.49,1.49,0,0,1-.34.6,1.64,1.64,0,0,1-.62.41,2.59,2.59,0,0,1-.95.15h-2.18V21.92Zm-.5,2.63a1.3,1.3,0,0,0,.79-.19,1,1,0,0,0,0-1.3,1.08,1.08,0,0,0-.71-.19h-.47v1.68Zm.14,2.84a1.23,1.23,0,0,0,.75-.21.88.88,0,0,0,.29-.76,1.24,1.24,0,0,0-.08-.47.93.93,0,0,0-.2-.3.81.81,0,0,0-.31-.15,1.68,1.68,0,0,0-.4-.05h-.56v1.94Z"/><path class="cls-23" d="M279.92,26.27h-2.53V25.21h2.53Z"/><path class="cls-23" d="M301.36,21.92a2.82,2.82,0,0,1,.73.08,1.35,1.35,0,0,1,.58.27,1.21,1.21,0,0,1,.38.5,2,2,0,0,1,.14.77,1.64,1.64,0,0,1-.25.9,1.2,1.2,0,0,1-.73.51v0a1.28,1.28,0,0,1,.86.45,1.61,1.61,0,0,1,.31,1,2.46,2.46,0,0,1-.1.72,1.36,1.36,0,0,1-.33.6,1.72,1.72,0,0,1-.62.41,2.67,2.67,0,0,1-.95.15h-2.19V21.92Zm-.51,2.63a1.28,1.28,0,0,0,.79-.19.77.77,0,0,0,.25-.65.8.8,0,0,0-.23-.65,1.06,1.06,0,0,0-.71-.19h-.46v1.68Zm.14,2.84a1.29,1.29,0,0,0,.76-.21.88.88,0,0,0,.28-.76A1.26,1.26,0,0,0,302,26a.71.71,0,0,0-.52-.45,1.62,1.62,0,0,0-.4-.05h-.55v1.94Z"/><path class="cls-23" d="M306.36,21.92a2.9,2.9,0,0,1,.74.08,1.47,1.47,0,0,1,.58.27,1.19,1.19,0,0,1,.37.5,2,2,0,0,1,.14.77,1.63,1.63,0,0,1-.24.9,1.26,1.26,0,0,1-.73.51v0a1.25,1.25,0,0,1,.85.45,1.61,1.61,0,0,1,.32,1,2.84,2.84,0,0,1-.1.72,1.49,1.49,0,0,1-.34.6,1.64,1.64,0,0,1-.62.41,2.59,2.59,0,0,1-.95.15h-2.19V21.92Zm-.5,2.63a1.3,1.3,0,0,0,.79-.19,1,1,0,0,0,0-1.3,1.08,1.08,0,0,0-.71-.19h-.47v1.68Zm.13,2.84a1.25,1.25,0,0,0,.76-.21.88.88,0,0,0,.29-.76A1.24,1.24,0,0,0,307,26a.81.81,0,0,0-.21-.3.75.75,0,0,0-.31-.15,1.6,1.6,0,0,0-.39-.05h-.56v1.94Z"/><path class="cls-23" d="M236.86,21.92a2.82,2.82,0,0,1,.73.08,1.35,1.35,0,0,1,.58.27,1.21,1.21,0,0,1,.38.5,2,2,0,0,1,.13.77,1.63,1.63,0,0,1-.24.9,1.2,1.2,0,0,1-.73.51v0a1.28,1.28,0,0,1,.86.45,1.61,1.61,0,0,1,.31,1,2.46,2.46,0,0,1-.1.72,1.47,1.47,0,0,1-.33.6,1.72,1.72,0,0,1-.62.41,2.67,2.67,0,0,1-1,.15h-2.19V21.92Zm-.51,2.63a1.28,1.28,0,0,0,.79-.19.77.77,0,0,0,.25-.65.8.8,0,0,0-.23-.65,1.06,1.06,0,0,0-.71-.19H236v1.68Zm.14,2.84a1.23,1.23,0,0,0,.75-.21.86.86,0,0,0,.29-.76,1.26,1.26,0,0,0-.07-.47.71.71,0,0,0-.52-.45,1.62,1.62,0,0,0-.4-.05H236v1.94Z"/><path class="cls-23" d="M239.67,26.62V25.51h1.71V23.79h1.12v1.72h1.72v1.11H242.5v1.72h-1.12V26.62Z"/><path class="cls-23" d="M207.9,21.92a2.9,2.9,0,0,1,.74.08,1.47,1.47,0,0,1,.58.27,1.19,1.19,0,0,1,.37.5,2,2,0,0,1,.14.77,1.63,1.63,0,0,1-.24.9,1.26,1.26,0,0,1-.73.51v0a1.25,1.25,0,0,1,.85.45,1.61,1.61,0,0,1,.32,1,2.84,2.84,0,0,1-.1.72,1.49,1.49,0,0,1-.34.6,1.64,1.64,0,0,1-.62.41,2.59,2.59,0,0,1-1,.15h-2.19V21.92Zm-.5,2.63a1.3,1.3,0,0,0,.79-.19,1,1,0,0,0,0-1.3,1.08,1.08,0,0,0-.71-.19H207v1.68Zm.13,2.84a1.25,1.25,0,0,0,.76-.21.88.88,0,0,0,.29-.76,1.24,1.24,0,0,0-.08-.47.81.81,0,0,0-.21-.3.75.75,0,0,0-.31-.15,1.6,1.6,0,0,0-.39-.05H207v1.94Z"/><path class="cls-23" d="M174.63,21.92a2.9,2.9,0,0,1,.74.08,1.47,1.47,0,0,1,.58.27,1.19,1.19,0,0,1,.37.5,2,2,0,0,1,.14.77,1.63,1.63,0,0,1-.24.9,1.26,1.26,0,0,1-.73.51v0a1.22,1.22,0,0,1,.85.46,1.57,1.57,0,0,1,.32,1,2.84,2.84,0,0,1-.1.72,1.49,1.49,0,0,1-.34.6,1.72,1.72,0,0,1-.62.41,2.63,2.63,0,0,1-.95.15h-2.19V21.92Zm-.5,2.63a1.3,1.3,0,0,0,.79-.19,1,1,0,0,0,0-1.3,1.08,1.08,0,0,0-.71-.19h-.47v1.68Zm.13,2.84a1.25,1.25,0,0,0,.76-.21.88.88,0,0,0,.29-.76,1.28,1.28,0,0,0-.08-.47.81.81,0,0,0-.21-.3.75.75,0,0,0-.31-.15,1.6,1.6,0,0,0-.39-.05h-.56v1.94Z"/><path class="cls-23" d="M180,26.27h-2.54V25.21H180Z"/><path class="cls-23" d="M137.41,23.23a.61.61,0,0,0-.61-.32.6.6,0,0,0-.4.13.88.88,0,0,0-.24.42,3.39,3.39,0,0,0-.13.77c0,.31,0,.7,0,1.15s0,.88,0,1.18a2.92,2.92,0,0,0,.16.7.64.64,0,0,0,.26.33.69.69,0,0,0,.36.09.83.83,0,0,0,.32-.06.54.54,0,0,0,.26-.24,1.46,1.46,0,0,0,.17-.49,4.68,4.68,0,0,0,.06-.84h1.3a6.2,6.2,0,0,1-.08,1,2.58,2.58,0,0,1-.3.82,1.62,1.62,0,0,1-.63.55,2.34,2.34,0,0,1-1,.19,2.43,2.43,0,0,1-1.17-.23,1.66,1.66,0,0,1-.66-.68,2.88,2.88,0,0,1-.29-1.05,13,13,0,0,1,0-2.69,2.94,2.94,0,0,1,.29-1.06,1.75,1.75,0,0,1,.66-.69,2.42,2.42,0,0,1,1.17-.25,2.24,2.24,0,0,1,1.09.23,1.5,1.5,0,0,1,.6.57,1.94,1.94,0,0,1,.24.75,4.89,4.89,0,0,1,.05.75h-1.29A2.32,2.32,0,0,0,137.41,23.23Z"/><path class="cls-23" d="M142.24,23.23a.6.6,0,0,0-.6-.32.58.58,0,0,0-.4.13.81.81,0,0,0-.25.42,4.06,4.06,0,0,0-.13.77c0,.31,0,.7,0,1.15a9.56,9.56,0,0,0,0,1.18,2.55,2.55,0,0,0,.15.7.7.7,0,0,0,.26.33.75.75,0,0,0,.37.09.78.78,0,0,0,.31-.06.54.54,0,0,0,.26-.24,1.46,1.46,0,0,0,.17-.49,4.54,4.54,0,0,0,.07-.84h1.29a6.2,6.2,0,0,1-.08,1,2.17,2.17,0,0,1-.3.82,1.66,1.66,0,0,1-.62.55,2.42,2.42,0,0,1-1,.19,2.39,2.39,0,0,1-1.16-.23,1.55,1.55,0,0,1-.66-.68,2.7,2.7,0,0,1-.3-1.05,13,13,0,0,1,0-2.69,2.75,2.75,0,0,1,.3-1.06,1.63,1.63,0,0,1,.66-.69,2.38,2.38,0,0,1,1.16-.25,2.24,2.24,0,0,1,1.09.23,1.5,1.5,0,0,1,.6.57,2.14,2.14,0,0,1,.25.75,6.59,6.59,0,0,1,.05.75h-1.3A2.18,2.18,0,0,0,142.24,23.23Z"/><path class="cls-23" d="M147.08,23.23a.62.62,0,0,0-.61-.32.58.58,0,0,0-.4.13.81.81,0,0,0-.25.42,3.46,3.46,0,0,0-.12.77c0,.31,0,.7,0,1.15s0,.88.05,1.18a2.55,2.55,0,0,0,.15.7.7.7,0,0,0,.26.33.75.75,0,0,0,.37.09.87.87,0,0,0,.32-.06.52.52,0,0,0,.25-.24,1.44,1.44,0,0,0,.18-.49,4.68,4.68,0,0,0,.06-.84h1.29a5.23,5.23,0,0,1-.08,1,2.17,2.17,0,0,1-.3.82,1.58,1.58,0,0,1-.62.55,3,3,0,0,1-2.2,0,1.55,1.55,0,0,1-.66-.68,3.09,3.09,0,0,1-.3-1.05c0-.41-.07-.86-.07-1.35s0-.93.07-1.34a3.15,3.15,0,0,1,.3-1.06,1.63,1.63,0,0,1,.66-.69,2.38,2.38,0,0,1,1.16-.25,2.21,2.21,0,0,1,1.09.23,1.5,1.5,0,0,1,.6.57,1.8,1.8,0,0,1,.25.75,6.59,6.59,0,0,1,0,.75h-1.3A2.34,2.34,0,0,0,147.08,23.23Z"/><path class="cls-23" d="M149.3,26.79V25.67H151V24h1.12v1.72h1.72v1.12h-1.72V28.5H151V26.79Z"/><path class="cls-23" d="M108.73,23.23a.63.63,0,0,0-.61-.32.58.58,0,0,0-.4.13.81.81,0,0,0-.25.42,4.06,4.06,0,0,0-.13.77c0,.31,0,.7,0,1.15a9.56,9.56,0,0,0,0,1.18,2.55,2.55,0,0,0,.15.7.7.7,0,0,0,.26.33.75.75,0,0,0,.37.09.87.87,0,0,0,.32-.06.52.52,0,0,0,.25-.24,1.46,1.46,0,0,0,.17-.49,3.81,3.81,0,0,0,.07-.84h1.29a5.23,5.23,0,0,1-.08,1,2.17,2.17,0,0,1-.3.82,1.58,1.58,0,0,1-.62.55,3,3,0,0,1-2.2,0,1.55,1.55,0,0,1-.66-.68,2.7,2.7,0,0,1-.3-1.05c0-.41-.07-.86-.07-1.35s0-.93.07-1.34a2.75,2.75,0,0,1,.3-1.06,1.63,1.63,0,0,1,.66-.69A2.38,2.38,0,0,1,108.2,22a2.21,2.21,0,0,1,1.09.23,1.5,1.5,0,0,1,.6.57,2,2,0,0,1,.25.75,6.59,6.59,0,0,1,0,.75h-1.3A2.34,2.34,0,0,0,108.73,23.23Z"/><path class="cls-23" d="M113.56,23.23a.61.61,0,0,0-.61-.32.6.6,0,0,0-.4.13.88.88,0,0,0-.25.42,3.46,3.46,0,0,0-.12.77c0,.31,0,.7,0,1.15s0,.88,0,1.18a2.55,2.55,0,0,0,.15.7.7.7,0,0,0,.26.33.75.75,0,0,0,.37.09.87.87,0,0,0,.32-.06.59.59,0,0,0,.26-.24,1.72,1.72,0,0,0,.17-.49,4.68,4.68,0,0,0,.06-.84h1.3a5.21,5.21,0,0,1-.09,1,2.17,2.17,0,0,1-.3.82,1.52,1.52,0,0,1-.62.55,2.39,2.39,0,0,1-1,.19,2.42,2.42,0,0,1-1.16-.23,1.55,1.55,0,0,1-.66-.68,3.09,3.09,0,0,1-.3-1.05q-.06-.62-.06-1.35c0-.48,0-.93.06-1.34a3.15,3.15,0,0,1,.3-1.06,1.63,1.63,0,0,1,.66-.69A2.4,2.4,0,0,1,113,22a2.28,2.28,0,0,1,1.1.23,1.54,1.54,0,0,1,.59.57,1.8,1.8,0,0,1,.25.75,6.59,6.59,0,0,1,0,.75h-1.29A2.32,2.32,0,0,0,113.56,23.23Z"/><path class="cls-23" d="M118.39,23.23a.61.61,0,0,0-.61-.32.6.6,0,0,0-.4.13.88.88,0,0,0-.24.42,3.39,3.39,0,0,0-.13.77c0,.31,0,.7,0,1.15s0,.88,0,1.18a2.92,2.92,0,0,0,.16.7.64.64,0,0,0,.26.33.69.69,0,0,0,.36.09.83.83,0,0,0,.32-.06.54.54,0,0,0,.26-.24,1.46,1.46,0,0,0,.17-.49,4.68,4.68,0,0,0,.06-.84h1.3a6.2,6.2,0,0,1-.08,1,2.58,2.58,0,0,1-.3.82,1.62,1.62,0,0,1-.63.55,2.34,2.34,0,0,1-1,.19,2.43,2.43,0,0,1-1.17-.23,1.66,1.66,0,0,1-.66-.68,2.88,2.88,0,0,1-.29-1.05,13,13,0,0,1,0-2.69,2.94,2.94,0,0,1,.29-1.06,1.75,1.75,0,0,1,.66-.69,2.42,2.42,0,0,1,1.17-.25,2.24,2.24,0,0,1,1.09.23,1.5,1.5,0,0,1,.6.57,1.94,1.94,0,0,1,.24.75,4.89,4.89,0,0,1,0,.75h-1.29A2.32,2.32,0,0,0,118.39,23.23Z"/><path class="cls-23" d="M75.49,23.23a.61.61,0,0,0-.61-.32.6.6,0,0,0-.4.13.88.88,0,0,0-.24.42,3.39,3.39,0,0,0-.13.77c0,.31,0,.7,0,1.15s0,.88.05,1.18a2.92,2.92,0,0,0,.16.7.64.64,0,0,0,.26.33.69.69,0,0,0,.36.09.83.83,0,0,0,.32-.06.54.54,0,0,0,.26-.24,1.46,1.46,0,0,0,.17-.49,4.68,4.68,0,0,0,.06-.84H77a6.2,6.2,0,0,1-.08,1,2.58,2.58,0,0,1-.3.82,1.62,1.62,0,0,1-.63.55,2.36,2.36,0,0,1-1,.19,2.42,2.42,0,0,1-1.16-.23,1.66,1.66,0,0,1-.66-.68,2.88,2.88,0,0,1-.29-1.05,13,13,0,0,1,0-2.69,2.94,2.94,0,0,1,.29-1.06,1.75,1.75,0,0,1,.66-.69A2.4,2.4,0,0,1,75,22a2.25,2.25,0,0,1,1.1.23,1.5,1.5,0,0,1,.6.57,1.94,1.94,0,0,1,.24.75,4.89,4.89,0,0,1,0,.75H75.66A2.32,2.32,0,0,0,75.49,23.23Z"/><path class="cls-23" d="M80.32,23.23a.6.6,0,0,0-.6-.32.58.58,0,0,0-.4.13.81.81,0,0,0-.25.42,4.06,4.06,0,0,0-.13.77c0,.31,0,.7,0,1.15a9.56,9.56,0,0,0,0,1.18,2.55,2.55,0,0,0,.15.7.7.7,0,0,0,.26.33.74.74,0,0,0,.36.09.79.79,0,0,0,.32-.06.54.54,0,0,0,.26-.24,1.46,1.46,0,0,0,.17-.49,4.68,4.68,0,0,0,.06-.84h1.3a6.2,6.2,0,0,1-.08,1,2.17,2.17,0,0,1-.3.82,1.66,1.66,0,0,1-.62.55,2.42,2.42,0,0,1-1,.19,2.37,2.37,0,0,1-1.16-.23,1.55,1.55,0,0,1-.66-.68,2.7,2.7,0,0,1-.3-1.05,13,13,0,0,1,0-2.69,2.75,2.75,0,0,1,.3-1.06,1.63,1.63,0,0,1,.66-.69A2.35,2.35,0,0,1,79.8,22a2.24,2.24,0,0,1,1.09.23,1.5,1.5,0,0,1,.6.57,2.14,2.14,0,0,1,.25.75,6.59,6.59,0,0,1,.05.75h-1.3A2.18,2.18,0,0,0,80.32,23.23Z"/><path class="cls-23" d="M85.16,23.23a.62.62,0,0,0-.61-.32.58.58,0,0,0-.4.13.81.81,0,0,0-.25.42,3.46,3.46,0,0,0-.12.77c0,.31,0,.7,0,1.15s0,.88.05,1.18a2.55,2.55,0,0,0,.15.7.7.7,0,0,0,.26.33.75.75,0,0,0,.37.09.87.87,0,0,0,.32-.06.52.52,0,0,0,.25-.24,1.27,1.27,0,0,0,.17-.49,3.81,3.81,0,0,0,.07-.84h1.29a5.23,5.23,0,0,1-.08,1,2.17,2.17,0,0,1-.3.82,1.58,1.58,0,0,1-.62.55,3,3,0,0,1-2.2,0,1.55,1.55,0,0,1-.66-.68,3.09,3.09,0,0,1-.3-1.05c0-.41-.07-.86-.07-1.35s0-.93.07-1.34a3.15,3.15,0,0,1,.3-1.06,1.63,1.63,0,0,1,.66-.69A2.38,2.38,0,0,1,84.63,22a2.21,2.21,0,0,1,1.09.23,1.5,1.5,0,0,1,.6.57,2,2,0,0,1,.25.75,6.59,6.59,0,0,1,.05.75h-1.3A2.34,2.34,0,0,0,85.16,23.23Z"/><path class="cls-23" d="M89.9,26.44H87.36V25.37H89.9Z"/><path class="cls-23" d="M47.9,23.23a.63.63,0,0,0-.61-.32.58.58,0,0,0-.4.13.81.81,0,0,0-.25.42,4.06,4.06,0,0,0-.13.77c0,.31,0,.7,0,1.15a9.56,9.56,0,0,0,.05,1.18,2.55,2.55,0,0,0,.15.7.7.7,0,0,0,.26.33.75.75,0,0,0,.37.09.87.87,0,0,0,.32-.06.57.57,0,0,0,.25-.24,1.46,1.46,0,0,0,.17-.49,4.54,4.54,0,0,0,.07-.84h1.29a6.2,6.2,0,0,1-.08,1,2.17,2.17,0,0,1-.3.82,1.58,1.58,0,0,1-.62.55,2.42,2.42,0,0,1-1,.19,2.39,2.39,0,0,1-1.16-.23,1.55,1.55,0,0,1-.66-.68,2.7,2.7,0,0,1-.3-1.05,13,13,0,0,1,0-2.69,2.75,2.75,0,0,1,.3-1.06,1.63,1.63,0,0,1,.66-.69A2.38,2.38,0,0,1,47.37,22a2.21,2.21,0,0,1,1.09.23,1.5,1.5,0,0,1,.6.57,2,2,0,0,1,.25.75,6.59,6.59,0,0,1,0,.75h-1.3A2.34,2.34,0,0,0,47.9,23.23Z"/><path class="cls-23" d="M52.73,23.23a.62.62,0,0,0-.61-.32.6.6,0,0,0-.4.13.88.88,0,0,0-.25.42,3.46,3.46,0,0,0-.12.77c0,.31,0,.7,0,1.15s0,.88,0,1.18a2.55,2.55,0,0,0,.15.7.7.7,0,0,0,.26.33.75.75,0,0,0,.37.09.87.87,0,0,0,.32-.06.52.52,0,0,0,.25-.24,1.44,1.44,0,0,0,.18-.49,4.68,4.68,0,0,0,.06-.84h1.29a5.23,5.23,0,0,1-.08,1,2.17,2.17,0,0,1-.3.82,1.52,1.52,0,0,1-.62.55,2.39,2.39,0,0,1-1,.19A2.42,2.42,0,0,1,51,28.37a1.55,1.55,0,0,1-.66-.68,3.09,3.09,0,0,1-.3-1.05c0-.41-.07-.86-.07-1.35s0-.93.07-1.34a3.15,3.15,0,0,1,.3-1.06A1.63,1.63,0,0,1,51,22.2,2.4,2.4,0,0,1,52.2,22a2.28,2.28,0,0,1,1.1.23,1.54,1.54,0,0,1,.59.57,1.8,1.8,0,0,1,.25.75,6.59,6.59,0,0,1,0,.75h-1.3A2.34,2.34,0,0,0,52.73,23.23Z"/><path class="cls-23" d="M18.09,21.92a2.3,2.3,0,0,1,1.09.22,1.5,1.5,0,0,1,.64.63,2.57,2.57,0,0,1,.31,1A8.5,8.5,0,0,1,20.21,25a9.09,9.09,0,0,1-.1,1.47,2.77,2.77,0,0,1-.36,1,1.5,1.5,0,0,1-.67.6,2.41,2.41,0,0,1-1.07.2H16V21.92Zm-.25,5.47a1.09,1.09,0,0,0,.55-.12.93.93,0,0,0,.33-.39,2.34,2.34,0,0,0,.16-.71c0-.29,0-.66,0-1.1a9.21,9.21,0,0,0,0-1,2.2,2.2,0,0,0-.15-.69A.8.8,0,0,0,18.4,23a1.12,1.12,0,0,0-.59-.14h-.55v4.52Z"/><path class="cls-24" d="M354,3.35h1.72v8.56H354Z"/><path class="cls-24" d="M358.5,5.46v.75h0a1.64,1.64,0,0,1,.68-.7,2,2,0,0,1,1-.22,1.62,1.62,0,0,1,1.22.43,2,2,0,0,1,.43,1.41v4.78h-1.66V7.46a1.12,1.12,0,0,0-.17-.7.67.67,0,0,0-.54-.2c-.58,0-.87.36-.87,1.07v4.28h-1.66V5.46Z"/><path class="cls-24" d="M367.64,5.46,366,11.91H364.1l-1.67-6.45h1.73l.92,4.62h0L366,5.46Z"/><path class="cls-24" d="M369.66,9.45a3.33,3.33,0,0,0,0,.56,1.69,1.69,0,0,0,.13.48,1,1,0,0,0,.26.34.6.6,0,0,0,.38.12.67.67,0,0,0,.61-.3,2.18,2.18,0,0,0,.27-.91h1.48a2.58,2.58,0,0,1-.6,1.72,2.27,2.27,0,0,1-1.74.59,2.75,2.75,0,0,1-1.4-.3,1.84,1.84,0,0,1-.74-.8,3.13,3.13,0,0,1-.3-1.1c0-.41-.05-.82-.05-1.22a8.36,8.36,0,0,1,.09-1.25,3,3,0,0,1,.36-1.07,2,2,0,0,1,.77-.74,2.76,2.76,0,0,1,1.35-.28,2.69,2.69,0,0,1,1.18.23,1.77,1.77,0,0,1,.72.66,2.67,2.67,0,0,1,.36,1,7.91,7.91,0,0,1,.1,1.35v.37h-3.28Zm1.65-2.15a1.84,1.84,0,0,0-.13-.48.68.68,0,0,0-.25-.3.76.76,0,0,0-.41-.1.77.77,0,0,0-.42.11.94.94,0,0,0-.26.3,1.38,1.38,0,0,0-.13.42,2.3,2.3,0,0,0,0,.45V8h1.7C371.35,7.71,371.33,7.49,371.31,7.3Z"/><path class="cls-24" d="M375,10a1,1,0,0,0,.23.68.8.8,0,0,0,.64.25.89.89,0,0,0,.61-.19.72.72,0,0,0,.23-.57.62.62,0,0,0-.18-.48,1.49,1.49,0,0,0-.42-.26L375,9a2.27,2.27,0,0,1-1-.67,1.79,1.79,0,0,1-.34-1.13,2.11,2.11,0,0,1,.13-.75,1.49,1.49,0,0,1,.42-.61,2,2,0,0,1,.74-.42A3.15,3.15,0,0,1,376,5.29a2.47,2.47,0,0,1,1.67.48,1.72,1.72,0,0,1,.54,1.36v.26h-1.49a1.31,1.31,0,0,0-.16-.74.66.66,0,0,0-.57-.23.94.94,0,0,0-.55.17.63.63,0,0,0-.23.52.71.71,0,0,0,.15.44,1.24,1.24,0,0,0,.57.32l1,.34a2.22,2.22,0,0,1,1.1.69,1.83,1.83,0,0,1,.32,1.15,2.06,2.06,0,0,1-.18.9,1.79,1.79,0,0,1-.49.63,2,2,0,0,1-.76.36,4.57,4.57,0,0,1-2.12,0,1.68,1.68,0,0,1-.74-.39,1.42,1.42,0,0,1-.37-.64,2.87,2.87,0,0,1-.11-.85V9.8H375Z"/><path class="cls-24" d="M381.15,3.61V5.46h1V6.59h-1v3.49a.93.93,0,0,0,.11.54.57.57,0,0,0,.48.17h.19l.18,0v1.15l-.54,0L381,12a3.5,3.5,0,0,1-.79-.07.81.81,0,0,1-.47-.26,1.24,1.24,0,0,1-.22-.52,4.67,4.67,0,0,1-.06-.82V6.59h-.84V5.46h.84V3.61Z"/><path class="cls-24" d="M384.27,5.46v.66h0a1.91,1.91,0,0,1,.7-.64,2.06,2.06,0,0,1,.93-.19,1.73,1.73,0,0,1,1,.26,1.32,1.32,0,0,1,.52.77h0a1.5,1.5,0,0,1,.62-.77,2,2,0,0,1,1-.26,1.48,1.48,0,0,1,1.22.5,2.28,2.28,0,0,1,.39,1.43v4.69H389V7.4a1.07,1.07,0,0,0-.15-.62.56.56,0,0,0-.5-.22.8.8,0,0,0-.63.27,1.26,1.26,0,0,0-.23.84v4.24h-1.66V7.4a1.07,1.07,0,0,0-.15-.62.56.56,0,0,0-.5-.22.8.8,0,0,0-.63.27,1.26,1.26,0,0,0-.23.84v4.24h-1.66V5.46Z"/><path class="cls-24" d="M393.19,9.45a3.33,3.33,0,0,0,.05.56,1.42,1.42,0,0,0,.14.48.86.86,0,0,0,.25.34A.6.6,0,0,0,394,11a.67.67,0,0,0,.61-.3,2.18,2.18,0,0,0,.27-.91h1.49a2.63,2.63,0,0,1-.61,1.72,2.27,2.27,0,0,1-1.74.59,2.75,2.75,0,0,1-1.4-.3,1.9,1.9,0,0,1-.74-.8,3.13,3.13,0,0,1-.3-1.1c0-.41,0-.82,0-1.22a8.36,8.36,0,0,1,.09-1.25A3,3,0,0,1,392,6.31a2,2,0,0,1,.77-.74,2.76,2.76,0,0,1,1.35-.28,2.69,2.69,0,0,1,1.18.23,1.77,1.77,0,0,1,.72.66,2.84,2.84,0,0,1,.37,1,9.16,9.16,0,0,1,.09,1.35v.37h-3.28Zm1.65-2.15a1.84,1.84,0,0,0-.13-.48.68.68,0,0,0-.25-.3.73.73,0,0,0-.41-.1.77.77,0,0,0-.42.11.81.81,0,0,0-.25.3,1.16,1.16,0,0,0-.14.42,2.3,2.3,0,0,0-.05.45V8h1.7C394.88,7.71,394.86,7.49,394.84,7.3Z"/><path class="cls-24" d="M398.92,5.46v.75h0a1.72,1.72,0,0,1,.69-.7,2,2,0,0,1,1-.22,1.65,1.65,0,0,1,1.22.43,2,2,0,0,1,.42,1.41v4.78h-1.66V7.46a1.13,1.13,0,0,0-.16-.7.7.7,0,0,0-.54-.2c-.59,0-.88.36-.88,1.07v4.28h-1.66V5.46Z"/><path class="cls-24" d="M405.35,3.61V5.46h1V6.59h-1v3.49a1,1,0,0,0,.11.54.57.57,0,0,0,.48.17h.19l.18,0v1.15l-.53,0-.55,0a3.5,3.5,0,0,1-.79-.07.75.75,0,0,1-.46-.26,1.13,1.13,0,0,1-.23-.52,4.67,4.67,0,0,1-.06-.82V6.59h-.84V5.46h.84V3.61Z"/><path class="cls-24" d="M414.6,11.59a2.51,2.51,0,0,1-.62,1.87,2.82,2.82,0,0,1-2.07.63,2.56,2.56,0,0,1-1.62-.45,1.54,1.54,0,0,1-.57-1.28h1.58a.58.58,0,0,0,.25.49.91.91,0,0,0,.26.13.94.94,0,0,0,.3,0,.77.77,0,0,0,.7-.32,1.48,1.48,0,0,0,.21-.81v-.85h0a2,2,0,0,1-.61.58,1.54,1.54,0,0,1-.77.21,1.66,1.66,0,0,1-1.48-.75,4.75,4.75,0,0,1-.5-2.51,11.26,11.26,0,0,1,.07-1.15A3.5,3.5,0,0,1,410,6.36a1.92,1.92,0,0,1,.61-.77,1.74,1.74,0,0,1,1.07-.3,1.55,1.55,0,0,1,.72.19,1.43,1.43,0,0,1,.61.7h0V5.46h1.58Zm-3.28-2.06a2.06,2.06,0,0,0,.12.53.84.84,0,0,0,.25.37.65.65,0,0,0,.43.14.72.72,0,0,0,.44-.14,1,1,0,0,0,.27-.38,2.13,2.13,0,0,0,.15-.58c0-.23,0-.48,0-.75a5.07,5.07,0,0,0-.19-1.67.68.68,0,0,0-.68-.49.74.74,0,0,0-.44.12.77.77,0,0,0-.26.39,2.51,2.51,0,0,0-.13.72c0,.3,0,.67,0,1.1C411.29,9.11,411.3,9.33,411.32,9.53Z"/><path class="cls-24" d="M417.35,5.46v.86h0a2.44,2.44,0,0,1,.62-.75,1.35,1.35,0,0,1,.87-.28h.3V6.9l-.26,0h-.25a1.67,1.67,0,0,0-.44.06,1.2,1.2,0,0,0-.39.2.94.94,0,0,0-.29.36,1.28,1.28,0,0,0-.11.55v3.87h-1.65V5.46Z"/><path class="cls-24" d="M419.75,7.28a2.19,2.19,0,0,1,.18-.94,1.56,1.56,0,0,1,.49-.61,1.85,1.85,0,0,1,.72-.34,3.54,3.54,0,0,1,.88-.1,4.39,4.39,0,0,1,1.2.14,1.8,1.8,0,0,1,.71.41,1.49,1.49,0,0,1,.34.63,3.38,3.38,0,0,1,.09.8v3.4a4.23,4.23,0,0,0,0,.7,2.51,2.51,0,0,0,.16.54H423a1.2,1.2,0,0,1-.13-.33c0-.11-.05-.23-.08-.34h0a1.37,1.37,0,0,1-.67.66,2.63,2.63,0,0,1-1,.15,1.65,1.65,0,0,1-.74-.15,1.22,1.22,0,0,1-.48-.42,1.86,1.86,0,0,1-.26-.59,2.48,2.48,0,0,1-.08-.66,3,3,0,0,1,.09-.78,1.55,1.55,0,0,1,.3-.57,1.81,1.81,0,0,1,.5-.39,4.15,4.15,0,0,1,.74-.27l.93-.25a1.09,1.09,0,0,0,.52-.27.7.7,0,0,0,.14-.49.85.85,0,0,0-.17-.58.73.73,0,0,0-.59-.21.69.69,0,0,0-.58.23.89.89,0,0,0-.19.61v.18h-1.49Zm2.66,1.62a1.9,1.9,0,0,1-.34.11,1.22,1.22,0,0,0-.72.36,1,1,0,0,0-.22.68,1.41,1.41,0,0,0,.14.64.5.5,0,0,0,.48.26,1.06,1.06,0,0,0,.35,0,1,1,0,0,0,.33-.17,1,1,0,0,0,.25-.32,1,1,0,0,0,.09-.45V8.69A2.12,2.12,0,0,1,422.41,8.9Z"/><path class="cls-24" d="M428.82,11.23a1.66,1.66,0,0,1-.62.64,1.77,1.77,0,0,1-.84.18,1.63,1.63,0,0,1-1.5-.78,5.16,5.16,0,0,1-.48-2.58,5.27,5.27,0,0,1,.48-2.6,1.63,1.63,0,0,1,1.5-.8,1.55,1.55,0,0,1,.8.19,1.91,1.91,0,0,1,.59.58h0V3.35h1.66v8.56h-1.58v-.68Zm-1.62-1a.67.67,0,0,0,.7.53.68.68,0,0,0,.71-.53,5.82,5.82,0,0,0,.16-1.59,5.72,5.72,0,0,0-.16-1.59.68.68,0,0,0-.71-.54.67.67,0,0,0-.7.54A5.65,5.65,0,0,0,427,8.69,5.75,5.75,0,0,0,427.2,10.28Z"/><path class="cls-24" d="M433,9.45a3.36,3.36,0,0,0,0,.56,2.09,2.09,0,0,0,.14.48,1,1,0,0,0,.25.34.62.62,0,0,0,.39.12.67.67,0,0,0,.61-.3,2.2,2.2,0,0,0,.26-.91h1.49a2.58,2.58,0,0,1-.6,1.72,2.3,2.3,0,0,1-1.74.59,2.72,2.72,0,0,1-1.4-.3,1.86,1.86,0,0,1-.75-.8,2.93,2.93,0,0,1-.29-1.1c0-.41-.06-.82-.06-1.22a8.36,8.36,0,0,1,.09-1.25,3,3,0,0,1,.36-1.07,1.92,1.92,0,0,1,.78-.74,2.7,2.7,0,0,1,1.34-.28,2.66,2.66,0,0,1,1.18.23,1.87,1.87,0,0,1,.73.66,2.67,2.67,0,0,1,.36,1,9.07,9.07,0,0,1,.1,1.35v.37H433Zm1.64-2.15a1.53,1.53,0,0,0-.12-.48.75.75,0,0,0-.25-.3.77.77,0,0,0-.42-.1.73.73,0,0,0-.41.11.83.83,0,0,0-.26.3,1.73,1.73,0,0,0-.14.42,2.28,2.28,0,0,0,0,.45V8h1.69A5.94,5.94,0,0,0,434.59,7.3Z"/><polygon class="cls-24" points="448.02 8.37 440.41 3.97 440.41 12.76 448.02 8.37"/></g></svg>