<svg xmlns="http://www.w3.org/2000/svg" viewBox="0 0 668.12 33.8"><defs><style>.cls-1{fill:#f6ea55;}.cls-1,.cls-10,.cls-11,.cls-12,.cls-13,.cls-14,.cls-15,.cls-16,.cls-17,.cls-18,.cls-19,.cls-2,.cls-20,.cls-21,.cls-3,.cls-4,.cls-5,.cls-6,.cls-7,.cls-8,.cls-9{stroke:#fffaf6;}.cls-1,.cls-10,.cls-11,.cls-12,.cls-13,.cls-14,.cls-15,.cls-16,.cls-17,.cls-18,.cls-19,.cls-2,.cls-20,.cls-21,.cls-22,.cls-3,.cls-4,.cls-5,.cls-6,.cls-7,.cls-8,.cls-9{stroke-miterlimit:10;}.cls-2{fill:#e0e451;}.cls-3{fill:#c4da55;}.cls-4{fill:#a8d05c;}.cls-5{fill:#91ca66;}.cls-6{fill:#79c36f;}.cls-7{fill:#67be79;}.cls-8{fill:#59b180;}.cls-9{fill:#4ea586;}.cls-10{fill:#4a9c8a;}.cls-11{fill:#48918d;}.cls-12{fill:#45828d;}.cls-13{fill:#41788f;}.cls-14{fill:#416c8c;}.cls-15{fill:#3f5f8a;}.cls-16{fill:#40548a;}.cls-17{fill:#434684;}.cls-18{fill:#45357d;}.cls-19{fill:#452a71;}.cls-20{fill:#402461;}.cls-21{fill:#3c1a51;}.cls-22{fill:none;stroke:#6e5950;}.cls-23{fill:#fffaf6;}.cls-24{fill:#6e5950;}</style></defs><g id="Layer_1" data-name="Layer 1"><rect class="cls-1" x="2.28" y="18.66" width="31.62" height="13.03"/><rect class="cls-2" x="33.9" y="18.66" width="31.62" height="13.03"/><rect class="cls-3" x="65.53" y="18.66" width="31.62" height="13.03"/><rect class="cls-4" x="97.15" y="18.66" width="31.62" height="13.03"/><rect class="cls-5" x="128.77" y="18.66" width="31.62" height="13.03"/><rect class="cls-6" x="160.4" y="18.66" width="31.62" height="13.03"/><rect class="cls-7" x="192.02" y="18.66" width="31.62" height="13.03"/><rect class="cls-8" x="223.64" y="18.66" width="31.62" height="13.03"/><rect class="cls-9" x="255.27" y="18.66" width="31.62" height="13.03"/><rect class="cls-10" x="286.89" y="18.66" width="31.62" height="13.03"/><rect class="cls-11" x="318.51" y="18.66" width="31.62" height="13.03"/><rect class="cls-12" x="350.14" y="18.66" width="31.62" height="13.03"/><rect class="cls-13" x="381.76" y="18.66" width="31.62" height="13.03"/><rect class="cls-14" x="413.38" y="18.66" width="31.62" height="13.03"/><rect class="cls-15" x="445.01" y="18.66" width="31.62" height="13.03"/><rect class="cls-16" x="476.63" y="18.66" width="31.62" height="13.03"/><rect class="cls-17" x="508.25" y="18.66" width="31.62" height="13.03"/><rect class="cls-18" x="539.88" y="18.66" width="31.62" height="13.03"/><rect class="cls-19" x="571.5" y="18.66" width="31.62" height="13.03"/><rect class="cls-20" x="603.12" y="18.66" width="31.62" height="13.03"/><rect class="cls-21" x="634.75" y="18.66" width="31.62" height="13.03"/></g><g id="Layer_2" data-name="Layer 2"><line class="cls-22" x1="350.14" y1="8.45" x2="350.14" y2="32.51"/><path class="cls-23" d="M646.72,21.92l1.7,6.42h-1.35L646.78,27h-1.71l-.3,1.36h-1.35l1.7-6.42Zm-.17,4L645.93,23h0l-.62,2.89Z"/><path class="cls-23" d="M651.73,21.92l1.7,6.42h-1.35l-.3-1.36h-1.71l-.3,1.36h-1.35l1.7-6.42Zm-.18,4L650.93,23h0l-.63,2.89Z"/><path class="cls-23" d="M656.73,21.92l1.7,6.42h-1.35l-.3-1.36h-1.71l-.29,1.36h-1.35l1.7-6.42Zm-.17,4L655.94,23h0l-.62,2.89Z"/><path class="cls-23" d="M615.63,21.92l1.71,6.42H616l-.3-1.36H614l-.3,1.36h-1.35l1.7-6.42Zm-.17,4L614.84,23h0l-.63,2.89Z"/><path class="cls-23" d="M620.64,21.92l1.7,6.42H621l-.3-1.36H619l-.29,1.36h-1.35l1.7-6.42Zm-.17,4L619.85,23h0l-.62,2.89Z"/><path class="cls-23" d="M622.76,26.62V25.51h1.72V23.79h1.12v1.72h1.72v1.11H625.6v1.72h-1.12V26.62Z"/><path class="cls-23" d="M585.94,21.92l1.7,6.42h-1.35L586,27h-1.71l-.3,1.36h-1.35l1.7-6.42Zm-.17,4L585.15,23h0l-.62,2.89Z"/><path class="cls-23" d="M591,21.92l1.7,6.42H591.3L591,27h-1.71l-.3,1.36h-1.35l1.7-6.42Zm-.18,4L590.15,23h0l-.63,2.89Z"/><path class="cls-23" d="M554.26,21.92l1.7,6.42h-1.35L554.32,27h-1.71l-.3,1.36H551l1.7-6.42Zm-.17,4L553.47,23h0l-.62,2.89Z"/><path class="cls-23" d="M559.27,21.92l1.7,6.42h-1.35l-.3-1.36h-1.71l-.3,1.36H556l1.71-6.42Zm-.17,4L558.48,23h0l-.62,2.89Z"/><path class="cls-23" d="M563.9,26.27h-2.54V25.21h2.54Z"/><path class="cls-23" d="M524.86,21.92l1.7,6.42h-1.35l-.3-1.36H523.2l-.3,1.36h-1.35l1.7-6.42Zm-.18,4L524.06,23h0l-.62,2.89Z"/><path class="cls-23" d="M527,26.62V25.51h1.72V23.79h1.12v1.72h1.71v1.11h-1.71v1.72H528.7V26.62Z"/><path class="cls-23" d="M493.24,21.92l1.7,6.42h-1.35L493.3,27h-1.71l-.3,1.36h-1.35l1.7-6.42Zm-.17,4L492.45,23h0l-.62,2.89Z"/><path class="cls-23" d="M461.12,21.92l1.7,6.42h-1.35l-.3-1.36h-1.71l-.3,1.36h-1.35l1.7-6.42Zm-.18,4L460.32,23h0l-.63,2.89Z"/><path class="cls-23" d="M465.75,26.27h-2.54V25.21h2.54Z"/><path class="cls-23" d="M422.35,21.92a2.82,2.82,0,0,1,.73.08,1.35,1.35,0,0,1,.58.27,1.13,1.13,0,0,1,.38.5,2,2,0,0,1,.14.77,1.56,1.56,0,0,1-.25.9,1.2,1.2,0,0,1-.73.51v0a1.28,1.28,0,0,1,.86.45,1.61,1.61,0,0,1,.31,1,2.84,2.84,0,0,1-.09.72,1.49,1.49,0,0,1-.34.6,1.72,1.72,0,0,1-.62.41,2.63,2.63,0,0,1-.95.15h-2.19V21.92Zm-.5,2.63a1.24,1.24,0,0,0,.78-.19.77.77,0,0,0,.25-.65.8.8,0,0,0-.22-.65,1.09,1.09,0,0,0-.72-.19h-.46v1.68Zm.13,2.84a1.29,1.29,0,0,0,.76-.21.88.88,0,0,0,.28-.76A1.26,1.26,0,0,0,423,26a.71.71,0,0,0-.52-.45,1.62,1.62,0,0,0-.4-.05h-.55v1.94Z"/><path class="cls-23" d="M427.35,21.92a2.9,2.9,0,0,1,.74.08,1.41,1.41,0,0,1,.58.27,1.21,1.21,0,0,1,.38.5,2,2,0,0,1,.13.77,1.63,1.63,0,0,1-.24.9,1.23,1.23,0,0,1-.73.51v0a1.25,1.25,0,0,1,.85.45,1.61,1.61,0,0,1,.32,1,2.46,2.46,0,0,1-.1.72,1.49,1.49,0,0,1-.34.6,1.64,1.64,0,0,1-.62.41,2.59,2.59,0,0,1-.95.15h-2.19V21.92Zm-.5,2.63a1.3,1.3,0,0,0,.79-.19,1,1,0,0,0,0-1.3,1.08,1.08,0,0,0-.71-.19h-.47v1.68Zm.13,2.84a1.25,1.25,0,0,0,.76-.21.88.88,0,0,0,.29-.76A1.24,1.24,0,0,0,428,26a.81.81,0,0,0-.21-.3.75.75,0,0,0-.31-.15,1.6,1.6,0,0,0-.39-.05h-.56v1.94Z"/><path class="cls-23" d="M432.36,21.92a2.82,2.82,0,0,1,.73.08,1.35,1.35,0,0,1,.58.27,1.21,1.21,0,0,1,.38.5,2,2,0,0,1,.13.77,1.63,1.63,0,0,1-.24.9,1.2,1.2,0,0,1-.73.51v0a1.28,1.28,0,0,1,.86.45,1.61,1.61,0,0,1,.31,1,2.46,2.46,0,0,1-.1.72,1.47,1.47,0,0,1-.33.6,1.68,1.68,0,0,1-.63.41,2.57,2.57,0,0,1-.94.15h-2.19V21.92Zm-.51,2.63a1.28,1.28,0,0,0,.79-.19.77.77,0,0,0,.25-.65.8.8,0,0,0-.23-.65,1.06,1.06,0,0,0-.71-.19h-.47v1.68Zm.14,2.84a1.23,1.23,0,0,0,.75-.21.86.86,0,0,0,.29-.76A1.26,1.26,0,0,0,433,26a1,1,0,0,0-.21-.3.81.81,0,0,0-.31-.15,1.62,1.62,0,0,0-.4-.05h-.56v1.94Z"/><path class="cls-23" d="M435.17,26.62V25.51h1.71V23.79H438v1.72h1.72v1.11H438v1.72h-1.12V26.62Z"/><path class="cls-23" d="M391.77,21.92a2.82,2.82,0,0,1,.73.08,1.35,1.35,0,0,1,.58.27,1.21,1.21,0,0,1,.38.5,2,2,0,0,1,.13.77,1.63,1.63,0,0,1-.24.9,1.2,1.2,0,0,1-.73.51v0a1.28,1.28,0,0,1,.86.45,1.61,1.61,0,0,1,.31,1,2.46,2.46,0,0,1-.1.72,1.47,1.47,0,0,1-.33.6,1.72,1.72,0,0,1-.62.41,2.67,2.67,0,0,1-.95.15H389.6V21.92Zm-.51,2.63a1.28,1.28,0,0,0,.79-.19.77.77,0,0,0,.25-.65.8.8,0,0,0-.23-.65,1.06,1.06,0,0,0-.71-.19h-.47v1.68Zm.14,2.84a1.23,1.23,0,0,0,.75-.21.86.86,0,0,0,.29-.76,1.26,1.26,0,0,0-.07-.47.71.71,0,0,0-.52-.45,1.62,1.62,0,0,0-.4-.05h-.56v1.94Z"/><path class="cls-23" d="M396.77,21.92a2.9,2.9,0,0,1,.74.08,1.47,1.47,0,0,1,.58.27,1.19,1.19,0,0,1,.37.5,2,2,0,0,1,.14.77,1.63,1.63,0,0,1-.24.9,1.26,1.26,0,0,1-.73.51v0a1.25,1.25,0,0,1,.85.45,1.61,1.61,0,0,1,.32,1,2.84,2.84,0,0,1-.1.72,1.49,1.49,0,0,1-.34.6,1.72,1.72,0,0,1-.62.41,2.63,2.63,0,0,1-.95.15H394.6V21.92Zm-.5,2.63a1.24,1.24,0,0,0,.78-.19.77.77,0,0,0,.25-.65.8.8,0,0,0-.22-.65,1.08,1.08,0,0,0-.71-.19h-.47v1.68Zm.13,2.84a1.27,1.27,0,0,0,.76-.21.88.88,0,0,0,.29-.76,1.24,1.24,0,0,0-.08-.47.81.81,0,0,0-.21-.3.75.75,0,0,0-.31-.15,1.6,1.6,0,0,0-.39-.05h-.56v1.94Z"/><path class="cls-23" d="M401.78,21.92a2.87,2.87,0,0,1,.73.08,1.41,1.41,0,0,1,.58.27,1.21,1.21,0,0,1,.38.5,2,2,0,0,1,.13.77,1.63,1.63,0,0,1-.24.9,1.23,1.23,0,0,1-.73.51v0a1.28,1.28,0,0,1,.86.45,1.61,1.61,0,0,1,.31,1,2.46,2.46,0,0,1-.1.72,1.38,1.38,0,0,1-.34.6,1.64,1.64,0,0,1-.62.41,2.59,2.59,0,0,1-.95.15h-2.18V21.92Zm-.51,2.63a1.3,1.3,0,0,0,.79-.19,1,1,0,0,0,0-1.3,1.08,1.08,0,0,0-.71-.19h-.47v1.68Zm.14,2.84a1.23,1.23,0,0,0,.75-.21.88.88,0,0,0,.29-.76,1.24,1.24,0,0,0-.08-.47.93.93,0,0,0-.2-.3.81.81,0,0,0-.31-.15,1.68,1.68,0,0,0-.4-.05h-.56v1.94Z"/><path class="cls-23" d="M360,21.92a2.82,2.82,0,0,1,.73.08,1.35,1.35,0,0,1,.58.27,1.21,1.21,0,0,1,.38.5,2,2,0,0,1,.14.77,1.64,1.64,0,0,1-.25.9,1.2,1.2,0,0,1-.73.51v0a1.28,1.28,0,0,1,.86.45,1.61,1.61,0,0,1,.31,1,2.46,2.46,0,0,1-.1.72,1.36,1.36,0,0,1-.33.6,1.72,1.72,0,0,1-.62.41,2.67,2.67,0,0,1-.95.15H357.8V21.92Zm-.51,2.63a1.28,1.28,0,0,0,.79-.19.77.77,0,0,0,.25-.65.8.8,0,0,0-.23-.65,1.06,1.06,0,0,0-.71-.19h-.46v1.68Zm.14,2.84a1.29,1.29,0,0,0,.76-.21.88.88,0,0,0,.28-.76,1.26,1.26,0,0,0-.07-.47.71.71,0,0,0-.52-.45,1.62,1.62,0,0,0-.4-.05h-.55v1.94Z"/><path class="cls-23" d="M365,21.92a2.9,2.9,0,0,1,.74.08,1.47,1.47,0,0,1,.58.27,1.19,1.19,0,0,1,.37.5,2,2,0,0,1,.14.77,1.63,1.63,0,0,1-.24.9,1.26,1.26,0,0,1-.73.51v0a1.25,1.25,0,0,1,.85.45,1.61,1.61,0,0,1,.32,1,2.84,2.84,0,0,1-.1.72,1.49,1.49,0,0,1-.34.6,1.72,1.72,0,0,1-.62.41,2.63,2.63,0,0,1-.95.15H362.8V21.92Zm-.5,2.63a1.3,1.3,0,0,0,.79-.19,1,1,0,0,0,0-1.3,1.08,1.08,0,0,0-.71-.19h-.47v1.68Zm.13,2.84a1.25,1.25,0,0,0,.76-.21.88.88,0,0,0,.29-.76,1.24,1.24,0,0,0-.08-.47.81.81,0,0,0-.21-.3.75.75,0,0,0-.31-.15,1.6,1.6,0,0,0-.39-.05h-.56v1.94Z"/><path class="cls-23" d="M370,21.92a2.87,2.87,0,0,1,.73.08,1.41,1.41,0,0,1,.58.27,1.21,1.21,0,0,1,.38.5,2,2,0,0,1,.13.77,1.63,1.63,0,0,1-.24.9,1.2,1.2,0,0,1-.73.51v0a1.28,1.28,0,0,1,.86.45,1.61,1.61,0,0,1,.31,1,2.46,2.46,0,0,1-.1.72,1.38,1.38,0,0,1-.34.6,1.56,1.56,0,0,1-.62.41,2.59,2.59,0,0,1-.95.15h-2.18V21.92Zm-.51,2.63a1.3,1.3,0,0,0,.79-.19,1,1,0,0,0,0-1.3,1.06,1.06,0,0,0-.71-.19h-.47v1.68Zm.14,2.84a1.23,1.23,0,0,0,.75-.21.86.86,0,0,0,.29-.76,1.07,1.07,0,0,0-.08-.47.93.93,0,0,0-.2-.3.81.81,0,0,0-.31-.15,1.62,1.62,0,0,0-.4-.05h-.56v1.94Z"/><path class="cls-23" d="M375.3,26.27h-2.54V25.21h2.54Z"/><path class="cls-23" d="M329.7,21.92a2.9,2.9,0,0,1,.74.08,1.47,1.47,0,0,1,.58.27,1.19,1.19,0,0,1,.37.5,2,2,0,0,1,.14.77,1.63,1.63,0,0,1-.24.9,1.26,1.26,0,0,1-.73.51v0a1.25,1.25,0,0,1,.85.45,1.61,1.61,0,0,1,.32,1,2.84,2.84,0,0,1-.1.72,1.49,1.49,0,0,1-.34.6,1.64,1.64,0,0,1-.62.41,2.63,2.63,0,0,1-.95.15h-2.19V21.92Zm-.5,2.63a1.3,1.3,0,0,0,.79-.19,1,1,0,0,0,0-1.3,1.08,1.08,0,0,0-.71-.19h-.47v1.68Zm.13,2.84a1.25,1.25,0,0,0,.76-.21.88.88,0,0,0,.29-.76,1.24,1.24,0,0,0-.08-.47.81.81,0,0,0-.21-.3.75.75,0,0,0-.31-.15,1.6,1.6,0,0,0-.39-.05h-.56v1.94Z"/><path class="cls-23" d="M334.71,21.92a2.87,2.87,0,0,1,.73.08,1.41,1.41,0,0,1,.58.27,1.21,1.21,0,0,1,.38.5,2,2,0,0,1,.13.77,1.63,1.63,0,0,1-.24.9,1.2,1.2,0,0,1-.73.51v0a1.28,1.28,0,0,1,.86.45,1.61,1.61,0,0,1,.31,1,2.46,2.46,0,0,1-.1.72,1.38,1.38,0,0,1-.34.6,1.56,1.56,0,0,1-.62.41,2.59,2.59,0,0,1-.95.15h-2.18V21.92Zm-.51,2.63a1.3,1.3,0,0,0,.79-.19,1,1,0,0,0,0-1.3,1.06,1.06,0,0,0-.71-.19h-.47v1.68Zm.14,2.84a1.23,1.23,0,0,0,.75-.21.86.86,0,0,0,.29-.76,1.07,1.07,0,0,0-.08-.47.93.93,0,0,0-.2-.3.81.81,0,0,0-.31-.15,1.62,1.62,0,0,0-.4-.05h-.56v1.94Z"/><path class="cls-23" d="M337.51,26.62V25.51h1.72V23.79h1.12v1.72h1.72v1.11h-1.72v1.72h-1.12V26.62Z"/><path class="cls-23" d="M269.6,21.92a2.82,2.82,0,0,1,.73.08,1.35,1.35,0,0,1,.58.27,1.13,1.13,0,0,1,.38.5,2,2,0,0,1,.14.77,1.56,1.56,0,0,1-.25.9,1.2,1.2,0,0,1-.72.51v0a1.25,1.25,0,0,1,.85.45,1.61,1.61,0,0,1,.32,1,2.84,2.84,0,0,1-.1.72,1.49,1.49,0,0,1-.34.6,1.72,1.72,0,0,1-.62.41,2.63,2.63,0,0,1-.95.15h-2.19V21.92Zm-.5,2.63a1.24,1.24,0,0,0,.78-.19.77.77,0,0,0,.25-.65.8.8,0,0,0-.22-.65,1.08,1.08,0,0,0-.71-.19h-.47v1.68Zm.13,2.84a1.27,1.27,0,0,0,.76-.21.88.88,0,0,0,.29-.76,1.24,1.24,0,0,0-.08-.47.81.81,0,0,0-.21-.3.75.75,0,0,0-.31-.15,1.6,1.6,0,0,0-.39-.05h-.56v1.94Z"/><path class="cls-23" d="M274.6,21.92a2.9,2.9,0,0,1,.74.08,1.41,1.41,0,0,1,.58.27,1.21,1.21,0,0,1,.38.5,2,2,0,0,1,.13.77,1.63,1.63,0,0,1-.24.9,1.23,1.23,0,0,1-.73.51v0a1.25,1.25,0,0,1,.85.45,1.61,1.61,0,0,1,.32,1,2.46,2.46,0,0,1-.1.72,1.49,1.49,0,0,1-.34.6,1.64,1.64,0,0,1-.62.41,2.59,2.59,0,0,1-.95.15h-2.18V21.92Zm-.5,2.63a1.3,1.3,0,0,0,.79-.19,1,1,0,0,0,0-1.3,1.08,1.08,0,0,0-.71-.19h-.47v1.68Zm.14,2.84a1.23,1.23,0,0,0,.75-.21.88.88,0,0,0,.29-.76,1.24,1.24,0,0,0-.08-.47.93.93,0,0,0-.2-.3.81.81,0,0,0-.31-.15,1.68,1.68,0,0,0-.4-.05h-.56v1.94Z"/><path class="cls-23" d="M279.92,26.27h-2.53V25.21h2.53Z"/><path class="cls-23" d="M301.36,21.92a2.82,2.82,0,0,1,.73.08,1.35,1.35,0,0,1,.58.27,1.21,1.21,0,0,1,.38.5,2,2,0,0,1,.14.77,1.64,1.64,0,0,1-.25.9,1.2,1.2,0,0,1-.73.51v0a1.28,1.28,0,0,1,.86.45,1.61,1.61,0,0,1,.31,1,2.46,2.46,0,0,1-.1.72,1.36,1.36,0,0,1-.33.6,1.72,1.72,0,0,1-.62.41,2.67,2.67,0,0,1-.95.15h-2.19V21.92Zm-.51,2.63a1.28,1.28,0,0,0,.79-.19.77.77,0,0,0,.25-.65.8.8,0,0,0-.23-.65,1.06,1.06,0,0,0-.71-.19h-.46v1.68Zm.14,2.84a1.29,1.29,0,0,0,.76-.21.88.88,0,0,0,.28-.76A1.26,1.26,0,0,0,302,26a.71.71,0,0,0-.52-.45,1.62,1.62,0,0,0-.4-.05h-.55v1.94Z"/><path class="cls-23" d="M306.36,21.92a2.9,2.9,0,0,1,.74.08,1.47,1.47,0,0,1,.58.27,1.19,1.19,0,0,1,.37.5,2,2,0,0,1,.14.77,1.63,1.63,0,0,1-.24.9,1.26,1.26,0,0,1-.73.51v0a1.25,1.25,0,0,1,.85.45,1.61,1.61,0,0,1,.32,1,2.84,2.84,0,0,1-.1.72,1.49,1.49,0,0,1-.34.6,1.64,1.64,0,0,1-.62.41,2.59,2.59,0,0,1-.95.15h-2.19V21.92Zm-.5,2.63a1.3,1.3,0,0,0,.79-.19,1,1,0,0,0,0-1.3,1.08,1.08,0,0,0-.71-.19h-.47v1.68Zm.13,2.84a1.25,1.25,0,0,0,.76-.21.88.88,0,0,0,.29-.76A1.24,1.24,0,0,0,307,26a.81.81,0,0,0-.21-.3.75.75,0,0,0-.31-.15,1.6,1.6,0,0,0-.39-.05h-.56v1.94Z"/><path class="cls-23" d="M236.86,21.92a2.82,2.82,0,0,1,.73.08,1.35,1.35,0,0,1,.58.27,1.21,1.21,0,0,1,.38.5,2,2,0,0,1,.13.77,1.63,1.63,0,0,1-.24.9,1.2,1.2,0,0,1-.73.51v0a1.28,1.28,0,0,1,.86.45,1.61,1.61,0,0,1,.31,1,2.46,2.46,0,0,1-.1.72,1.47,1.47,0,0,1-.33.6,1.72,1.72,0,0,1-.62.41,2.67,2.67,0,0,1-1,.15h-2.19V21.92Zm-.51,2.63a1.28,1.28,0,0,0,.79-.19.77.77,0,0,0,.25-.65.8.8,0,0,0-.23-.65,1.06,1.06,0,0,0-.71-.19H236v1.68Zm.14,2.84a1.23,1.23,0,0,0,.75-.21.86.86,0,0,0,.29-.76,1.26,1.26,0,0,0-.07-.47.71.71,0,0,0-.52-.45,1.62,1.62,0,0,0-.4-.05H236v1.94Z"/><path class="cls-23" d="M239.67,26.62V25.51h1.71V23.79h1.12v1.72h1.72v1.11H242.5v1.72h-1.12V26.62Z"/><path class="cls-23" d="M207.9,21.92a2.9,2.9,0,0,1,.74.08,1.47,1.47,0,0,1,.58.27,1.19,1.19,0,0,1,.37.5,2,2,0,0,1,.14.77,1.63,1.63,0,0,1-.24.9,1.26,1.26,0,0,1-.73.51v0a1.25,1.25,0,0,1,.85.45,1.61,1.61,0,0,1,.32,1,2.84,2.84,0,0,1-.1.72,1.49,1.49,0,0,1-.34.6,1.64,1.64,0,0,1-.62.41,2.59,2.59,0,0,1-1,.15h-2.19V21.92Zm-.5,2.63a1.3,1.3,0,0,0,.79-.19,1,1,0,0,0,0-1.3,1.08,1.08,0,0,0-.71-.19H207v1.68Zm.13,2.84a1.25,1.25,0,0,0,.76-.21.88.88,0,0,0,.29-.76,1.24,1.24,0,0,0-.08-.47.81.81,0,0,0-.21-.3.75.75,0,0,0-.31-.15,1.6,1.6,0,0,0-.39-.05H207v1.94Z"/><path class="cls-23" d="M174.63,21.92a2.9,2.9,0,0,1,.74.08,1.47,1.47,0,0,1,.58.27,1.19,1.19,0,0,1,.37.5,2,2,0,0,1,.14.77,1.63,1.63,0,0,1-.24.9,1.26,1.26,0,0,1-.73.51v0a1.22,1.22,0,0,1,.85.46,1.57,1.57,0,0,1,.32,1,2.84,2.84,0,0,1-.1.72,1.49,1.49,0,0,1-.34.6,1.72,1.72,0,0,1-.62.41,2.63,2.63,0,0,1-.95.15h-2.19V21.92Zm-.5,2.63a1.3,1.3,0,0,0,.79-.19,1,1,0,0,0,0-1.3,1.08,1.08,0,0,0-.71-.19h-.47v1.68Zm.13,2.84a1.25,1.25,0,0,0,.76-.21.88.88,0,0,0,.29-.76,1.28,1.28,0,0,0-.08-.47.81.81,0,0,0-.21-.3.75.75,0,0,0-.31-.15,1.6,1.6,0,0,0-.39-.05h-.56v1.94Z"/><path class="cls-23" d="M180,26.27h-2.54V25.21H180Z"/><path class="cls-23" d="M137.41,23.23a.61.61,0,0,0-.61-.32.6.6,0,0,0-.4.13.88.88,0,0,0-.24.42,3.39,3.39,0,0,0-.13.77c0,.31,0,.7,0,1.15s0,.88,0,1.18a2.92,2.92,0,0,0,.16.7.64.64,0,0,0,.26.33.69.69,0,0,0,.36.09.83.83,0,0,0,.32-.06.54.54,0,0,0,.26-.24,1.46,1.46,0,0,0,.17-.49,4.68,4.68,0,0,0,.06-.84h1.3a6.2,6.2,0,0,1-.08,1,2.58,2.58,0,0,1-.3.82,1.62,1.62,0,0,1-.63.55,2.34,2.34,0,0,1-1,.19,2.43,2.43,0,0,1-1.17-.23,1.66,1.66,0,0,1-.66-.68,2.88,2.88,0,0,1-.29-1.05,13,13,0,0,1,0-2.69,2.94,2.94,0,0,1,.29-1.06,1.75,1.75,0,0,1,.66-.69,2.42,2.42,0,0,1,1.17-.25,2.24,2.24,0,0,1,1.09.23,1.5,1.5,0,0,1,.6.57,1.94,1.94,0,0,1,.24.75,4.89,4.89,0,0,1,.05.75h-1.29A2.32,2.32,0,0,0,137.41,23.23Z"/><path class="cls-23" d="M142.24,23.23a.6.6,0,0,0-.6-.32.58.58,0,0,0-.4.13.81.81,0,0,0-.25.42,4.06,4.06,0,0,0-.13.77c0,.31,0,.7,0,1.15a9.56,9.56,0,0,0,0,1.18,2.55,2.55,0,0,0,.15.7.7.7,0,0,0,.26.33.75.75,0,0,0,.37.09.78.78,0,0,0,.31-.06.54.54,0,0,0,.26-.24,1.46,1.46,0,0,0,.17-.49,4.54,4.54,0,0,0,.07-.84h1.29a6.2,6.2,0,0,1-.08,1,2.17,2.17,0,0,1-.3.82,1.66,1.66,0,0,1-.62.55,2.42,2.42,0,0,1-1,.19,2.39,2.39,0,0,1-1.16-.23,1.55,1.55,0,0,1-.66-.68,2.7,2.7,0,0,1-.3-1.05,13,13,0,0,1,0-2.69,2.75,2.75,0,0,1,.3-1.06,1.63,1.63,0,0,1,.66-.69,2.38,2.38,0,0,1,1.16-.25,2.24,2.24,0,0,1,1.09.23,1.5,1.5,0,0,1,.6.57,2.14,2.14,0,0,1,.25.75,6.59,6.59,0,0,1,.05.75h-1.3A2.18,2.18,0,0,0,142.24,23.23Z"/><path class="cls-23" d="M147.08,23.23a.62.62,0,0,0-.61-.32.58.58,0,0,0-.4.13.81.81,0,0,0-.25.42,3.46,3.46,0,0,0-.12.77c0,.31,0,.7,0,1.15s0,.88.05,1.18a2.55,2.55,0,0,0,.15.7.7.7,0,0,0,.26.33.75.75,0,0,0,.37.09.87.87,0,0,0,.32-.06.52.52,0,0,0,.25-.24,1.44,1.44,0,0,0,.18-.49,4.68,4.68,0,0,0,.06-.84h1.29a5.23,5.23,0,0,1-.08,1,2.17,2.17,0,0,1-.3.82,1.58,1.58,0,0,1-.62.55,3,3,0,0,1-2.2,0,1.55,1.55,0,0,1-.66-.68,3.09,3.09,0,0,1-.3-1.05c0-.41-.07-.86-.07-1.35s0-.93.07-1.34a3.15,3.15,0,0,1,.3-1.06,1.63,1.63,0,0,1,.66-.69,2.38,2.38,0,0,1,1.16-.25,2.21,2.21,0,0,1,1.09.23,1.5,1.5,0,0,1,.6.57,1.8,1.8,0,0,1,.25.75,6.59,6.59,0,0,1,0,.75h-1.3A2.34,2.34,0,0,0,147.08,23.23Z"/><path class="cls-23" d="M149.3,26.79V25.67H151V24h1.12v1.72h1.72v1.12h-1.72V28.5H151V26.79Z"/><path class="cls-23" d="M108.73,23.23a.63.63,0,0,0-.61-.32.58.58,0,0,0-.4.13.81.81,0,0,0-.25.42,4.06,4.06,0,0,0-.13.77c0,.31,0,.7,0,1.15a9.56,9.56,0,0,0,0,1.18,2.55,2.55,0,0,0,.15.7.7.7,0,0,0,.26.33.75.75,0,0,0,.37.09.87.87,0,0,0,.32-.06.52.52,0,0,0,.25-.24,1.46,1.46,0,0,0,.17-.49,3.81,3.81,0,0,0,.07-.84h1.29a5.23,5.23,0,0,1-.08,1,2.17,2.17,0,0,1-.3.82,1.58,1.58,0,0,1-.62.55,3,3,0,0,1-2.2,0,1.55,1.55,0,0,1-.66-.68,2.7,2.7,0,0,1-.3-1.05c0-.41-.07-.86-.07-1.35s0-.93.07-1.34a2.75,2.75,0,0,1,.3-1.06,1.63,1.63,0,0,1,.66-.69A2.38,2.38,0,0,1,108.2,22a2.21,2.21,0,0,1,1.09.23,1.5,1.5,0,0,1,.6.57,2,2,0,0,1,.25.75,6.59,6.59,0,0,1,0,.75h-1.3A2.34,2.34,0,0,0,108.73,23.23Z"/><path class="cls-23" d="M113.56,23.23a.61.61,0,0,0-.61-.32.6.6,0,0,0-.4.13.88.88,0,0,0-.25.42,3.46,3.46,0,0,0-.12.77c0,.31,0,.7,0,1.15s0,.88,0,1.18a2.55,2.55,0,0,0,.15.7.7.7,0,0,0,.26.33.75.75,0,0,0,.37.09.87.87,0,0,0,.32-.06.59.59,0,0,0,.26-.24,1.72,1.72,0,0,0,.17-.49,4.68,4.68,0,0,0,.06-.84h1.3a5.21,5.21,0,0,1-.09,1,2.17,2.17,0,0,1-.3.82,1.52,1.52,0,0,1-.62.55,2.39,2.39,0,0,1-1,.19,2.42,2.42,0,0,1-1.16-.23,1.55,1.55,0,0,1-.66-.68,3.09,3.09,0,0,1-.3-1.05q-.06-.62-.06-1.35c0-.48,0-.93.06-1.34a3.15,3.15,0,0,1,.3-1.06,1.63,1.63,0,0,1,.66-.69A2.4,2.4,0,0,1,113,22a2.28,2.28,0,0,1,1.1.23,1.54,1.54,0,0,1,.59.57,1.8,1.8,0,0,1,.25.75,6.59,6.59,0,0,1,0,.75h-1.29A2.32,2.32,0,0,0,113.56,23.23Z"/><path class="cls-23" d="M118.39,23.23a.61.61,0,0,0-.61-.32.6.6,0,0,0-.4.13.88.88,0,0,0-.24.42,3.39,3.39,0,0,0-.13.77c0,.31,0,.7,0,1.15s0,.88,0,1.18a2.92,2.92,0,0,0,.16.7.64.64,0,0,0,.26.33.69.69,0,0,0,.36.09.83.83,0,0,0,.32-.06.54.54,0,0,0,.26-.24,1.46,1.46,0,0,0,.17-.49,4.68,4.68,0,0,0,.06-.84h1.3a6.2,6.2,0,0,1-.08,1,2.58,2.58,0,0,1-.3.82,1.62,1.62,0,0,1-.63.55,2.34,2.34,0,0,1-1,.19,2.43,2.43,0,0,1-1.17-.23,1.66,1.66,0,0,1-.66-.68,2.88,2.88,0,0,1-.29-1.05,13,13,0,0,1,0-2.69,2.94,2.94,0,0,1,.29-1.06,1.75,1.75,0,0,1,.66-.69,2.42,2.42,0,0,1,1.17-.25,2.24,2.24,0,0,1,1.09.23,1.5,1.5,0,0,1,.6.57,1.94,1.94,0,0,1,.24.75,4.89,4.89,0,0,1,0,.75h-1.29A2.32,2.32,0,0,0,118.39,23.23Z"/><path class="cls-23" d="M75.49,23.23a.61.61,0,0,0-.61-.32.6.6,0,0,0-.4.13.88.88,0,0,0-.24.42,3.39,3.39,0,0,0-.13.77c0,.31,0,.7,0,1.15s0,.88.05,1.18a2.92,2.92,0,0,0,.16.7.64.64,0,0,0,.26.33.69.69,0,0,0,.36.09.83.83,0,0,0,.32-.06.54.54,0,0,0,.26-.24,1.46,1.46,0,0,0,.17-.49,4.68,4.68,0,0,0,.06-.84H77a6.2,6.2,0,0,1-.08,1,2.58,2.58,0,0,1-.3.82,1.62,1.62,0,0,1-.63.55,2.36,2.36,0,0,1-1,.19,2.42,2.42,0,0,1-1.16-.23,1.66,1.66,0,0,1-.66-.68,2.88,2.88,0,0,1-.29-1.05,13,13,0,0,1,0-2.69,2.94,2.94,0,0,1,.29-1.06,1.75,1.75,0,0,1,.66-.69A2.4,2.4,0,0,1,75,22a2.25,2.25,0,0,1,1.1.23,1.5,1.5,0,0,1,.6.57,1.94,1.94,0,0,1,.24.75,4.89,4.89,0,0,1,0,.75H75.66A2.32,2.32,0,0,0,75.49,23.23Z"/><path class="cls-23" d="M80.32,23.23a.6.6,0,0,0-.6-.32.58.58,0,0,0-.4.13.81.81,0,0,0-.25.42,4.06,4.06,0,0,0-.13.77c0,.31,0,.7,0,1.15a9.56,9.56,0,0,0,0,1.18,2.55,2.55,0,0,0,.15.7.7.7,0,0,0,.26.33.74.74,0,0,0,.36.09.79.79,0,0,0,.32-.06.54.54,0,0,0,.26-.24,1.46,1.46,0,0,0,.17-.49,4.68,4.68,0,0,0,.06-.84h1.3a6.2,6.2,0,0,1-.08,1,2.17,2.17,0,0,1-.3.82,1.66,1.66,0,0,1-.62.55,2.42,2.42,0,0,1-1,.19,2.37,2.37,0,0,1-1.16-.23,1.55,1.55,0,0,1-.66-.68,2.7,2.7,0,0,1-.3-1.05,13,13,0,0,1,0-2.69,2.75,2.75,0,0,1,.3-1.06,1.63,1.63,0,0,1,.66-.69A2.35,2.35,0,0,1,79.8,22a2.24,2.24,0,0,1,1.09.23,1.5,1.5,0,0,1,.6.57,2.14,2.14,0,0,1,.25.75,6.59,6.59,0,0,1,.05.75h-1.3A2.18,2.18,0,0,0,80.32,23.23Z"/><path class="cls-23" d="M85.16,23.23a.62.62,0,0,0-.61-.32.58.58,0,0,0-.4.13.81.81,0,0,0-.25.42,3.46,3.46,0,0,0-.12.77c0,.31,0,.7,0,1.15s0,.88.05,1.18a2.55,2.55,0,0,0,.15.7.7.7,0,0,0,.26.33.75.75,0,0,0,.37.09.87.87,0,0,0,.32-.06.52.52,0,0,0,.25-.24,1.27,1.27,0,0,0,.17-.49,3.81,3.81,0,0,0,.07-.84h1.29a5.23,5.23,0,0,1-.08,1,2.17,2.17,0,0,1-.3.82,1.58,1.58,0,0,1-.62.55,3,3,0,0,1-2.2,0,1.55,1.55,0,0,1-.66-.68,3.09,3.09,0,0,1-.3-1.05c0-.41-.07-.86-.07-1.35s0-.93.07-1.34a3.15,3.15,0,0,1,.3-1.06,1.63,1.63,0,0,1,.66-.69A2.38,2.38,0,0,1,84.63,22a2.21,2.21,0,0,1,1.09.23,1.5,1.5,0,0,1,.6.57,2,2,0,0,1,.25.75,6.59,6.59,0,0,1,.05.75h-1.3A2.34,2.34,0,0,0,85.16,23.23Z"/><path class="cls-23" d="M89.9,26.44H87.36V25.37H89.9Z"/><path class="cls-23" d="M47.9,23.23a.63.63,0,0,0-.61-.32.58.58,0,0,0-.4.13.81.81,0,0,0-.25.42,4.06,4.06,0,0,0-.13.77c0,.31,0,.7,0,1.15a9.56,9.56,0,0,0,.05,1.18,2.55,2.55,0,0,0,.15.7.7.7,0,0,0,.26.33.75.75,0,0,0,.37.09.87.87,0,0,0,.32-.06.57.57,0,0,0,.25-.24,1.46,1.46,0,0,0,.17-.49,4.54,4.54,0,0,0,.07-.84h1.29a6.2,6.2,0,0,1-.08,1,2.17,2.17,0,0,1-.3.82,1.58,1.58,0,0,1-.62.55,2.42,2.42,0,0,1-1,.19,2.39,2.39,0,0,1-1.16-.23,1.55,1.55,0,0,1-.66-.68,2.7,2.7,0,0,1-.3-1.05,13,13,0,0,1,0-2.69,2.75,2.75,0,0,1,.3-1.06,1.63,1.63,0,0,1,.66-.69A2.38,2.38,0,0,1,47.37,22a2.21,2.21,0,0,1,1.09.23,1.5,1.5,0,0,1,.6.57,2,2,0,0,1,.25.75,6.59,6.59,0,0,1,0,.75h-1.3A2.34,2.34,0,0,0,47.9,23.23Z"/><path class="cls-23" d="M52.73,23.23a.62.62,0,0,0-.61-.32.6.6,0,0,0-.4.13.88.88,0,0,0-.25.42,3.46,3.46,0,0,0-.12.77c0,.31,0,.7,0,1.15s0,.88,0,1.18a2.55,2.55,0,0,0,.15.7.7.7,0,0,0,.26.33.75.75,0,0,0,.37.09.87.87,0,0,0,.32-.06.52.52,0,0,0,.25-.24,1.44,1.44,0,0,0,.18-.49,4.68,4.68,0,0,0,.06-.84h1.29a5.23,5.23,0,0,1-.08,1,2.17,2.17,0,0,1-.3.82,1.52,1.52,0,0,1-.62.55,2.39,2.39,0,0,1-1,.19A2.42,2.42,0,0,1,51,28.37a1.55,1.55,0,0,1-.66-.68,3.09,3.09,0,0,1-.3-1.05c0-.41-.07-.86-.07-1.35s0-.93.07-1.34a3.15,3.15,0,0,1,.3-1.06A1.63,1.63,0,0,1,51,22.2,2.4,2.4,0,0,1,52.2,22a2.28,2.28,0,0,1,1.1.23,1.54,1.54,0,0,1,.59.57,1.8,1.8,0,0,1,.25.75,6.59,6.59,0,0,1,0,.75h-1.3A2.34,2.34,0,0,0,52.73,23.23Z"/><path class="cls-23" d="M18.09,21.92a2.3,2.3,0,0,1,1.09.22,1.5,1.5,0,0,1,.64.63,2.57,2.57,0,0,1,.31,1A8.5,8.5,0,0,1,20.21,25a9.09,9.09,0,0,1-.1,1.47,2.77,2.77,0,0,1-.36,1,1.5,1.5,0,0,1-.67.6,2.41,2.41,0,0,1-1.07.2H16V21.92Zm-.25,5.47a1.09,1.09,0,0,0,.55-.12.93.93,0,0,0,.33-.39,2.34,2.34,0,0,0,.16-.71c0-.29,0-.66,0-1.1a9.21,9.21,0,0,0,0-1,2.2,2.2,0,0,0-.15-.69A.8.8,0,0,0,18.4,23a1.12,1.12,0,0,0-.59-.14h-.55v4.52Z"/><path class="cls-24" d="M354.88,8.45h1.26v6.26h-1.26Z"/><path class="cls-24" d="M358.2,10v.56h0a1.26,1.26,0,0,1,.5-.52,1.47,1.47,0,0,1,.7-.16,1.18,1.18,0,0,1,.89.32,1.4,1.4,0,0,1,.31,1v3.5h-1.21V11.46a.84.84,0,0,0-.12-.52.5.5,0,0,0-.39-.14c-.43,0-.64.26-.64.78v3.13h-1.21V10Z"/><path class="cls-24" d="M364.88,10l-1.19,4.72h-1.4L361.07,10h1.26l.68,3.38h0l.64-3.38Z"/><path class="cls-24" d="M366.36,12.91a2.73,2.73,0,0,0,0,.41,1.2,1.2,0,0,0,.1.35.94.94,0,0,0,.18.25A.45.45,0,0,0,367,14a.48.48,0,0,0,.45-.22,1.63,1.63,0,0,0,.19-.67h1.09a1.89,1.89,0,0,1-.44,1.26,1.69,1.69,0,0,1-1.27.43,2,2,0,0,1-1-.22,1.39,1.39,0,0,1-.55-.58,2.11,2.11,0,0,1-.21-.81,8.83,8.83,0,0,1,0-.89,6.62,6.62,0,0,1,.06-.91,2.06,2.06,0,0,1,.27-.78,1.48,1.48,0,0,1,.56-.55,2.1,2.1,0,0,1,1-.2,2,2,0,0,1,.87.17,1.45,1.45,0,0,1,.53.48,2.07,2.07,0,0,1,.26.76,5.86,5.86,0,0,1,.07,1v.28h-2.39Zm1.2-1.57a1.36,1.36,0,0,0-.09-.35.52.52,0,0,0-.19-.22.56.56,0,0,0-.3-.08.49.49,0,0,0-.3.09.59.59,0,0,0-.19.22,1,1,0,0,0-.1.3,1.84,1.84,0,0,0,0,.33v.19h1.23A3.43,3.43,0,0,0,367.56,11.34Z"/><path class="cls-24" d="M370.27,13.32a.73.73,0,0,0,.16.5.57.57,0,0,0,.47.19.71.71,0,0,0,.45-.14.54.54,0,0,0,.16-.42.45.45,0,0,0-.13-.35,1.08,1.08,0,0,0-.31-.19l-.85-.3a1.68,1.68,0,0,1-.75-.5,1.27,1.27,0,0,1-.25-.82,1.71,1.71,0,0,1,.09-.55,1.25,1.25,0,0,1,.31-.45,1.56,1.56,0,0,1,.54-.31,2.6,2.6,0,0,1,.79-.11,1.81,1.81,0,0,1,1.22.35,1.25,1.25,0,0,1,.39,1v.19h-1.08a.92.92,0,0,0-.12-.53.47.47,0,0,0-.42-.18.71.71,0,0,0-.4.13.46.46,0,0,0-.17.38.54.54,0,0,0,.11.32.94.94,0,0,0,.42.24l.73.24a1.7,1.7,0,0,1,.8.5,1.36,1.36,0,0,1,.24.85,1.45,1.45,0,0,1-.13.65,1.2,1.2,0,0,1-.37.46,1.35,1.35,0,0,1-.55.27,3.06,3.06,0,0,1-.7.08,3.3,3.3,0,0,1-.85-.1,1.22,1.22,0,0,1-.54-.29,1,1,0,0,1-.27-.47,2.33,2.33,0,0,1-.08-.62v-.16h1.09Z"/><path class="cls-24" d="M374.75,8.64V10h.7v.83h-.7v2.55a.68.68,0,0,0,.08.4.41.41,0,0,0,.35.12h.27v.84h-.39l-.4,0a2.86,2.86,0,0,1-.57-.05.58.58,0,0,1-.35-.2.78.78,0,0,1-.16-.38,3.2,3.2,0,0,1,0-.59v-2.7h-.62V10h.62V8.64Z"/><path class="cls-24" d="M377,10v.49h0a1.42,1.42,0,0,1,.52-.47,1.55,1.55,0,0,1,.68-.14,1.2,1.2,0,0,1,.7.19.93.93,0,0,1,.38.56h0a1,1,0,0,1,.45-.56,1.38,1.38,0,0,1,.74-.19,1.06,1.06,0,0,1,.89.36,1.7,1.7,0,0,1,.29,1v3.43H380.5v-3.3a.78.78,0,0,0-.11-.45.42.42,0,0,0-.37-.16.59.59,0,0,0-.46.19,1,1,0,0,0-.17.62v3.1h-1.21v-3.3a.71.71,0,0,0-.11-.45.39.39,0,0,0-.36-.16.58.58,0,0,0-.46.19,1,1,0,0,0-.17.62v3.1h-1.21V10Z"/><path class="cls-24" d="M383.55,12.91a2.73,2.73,0,0,0,0,.41,1.2,1.2,0,0,0,.1.35.94.94,0,0,0,.18.25.45.45,0,0,0,.28.09.48.48,0,0,0,.45-.22,1.63,1.63,0,0,0,.19-.67h1.09a1.89,1.89,0,0,1-.44,1.26,1.69,1.69,0,0,1-1.27.43,2,2,0,0,1-1-.22,1.39,1.39,0,0,1-.55-.58,2.3,2.3,0,0,1-.21-.81,8.83,8.83,0,0,1,0-.89,6.62,6.62,0,0,1,.06-.91,2.25,2.25,0,0,1,.27-.78,1.48,1.48,0,0,1,.56-.55,2.13,2.13,0,0,1,1-.2,2,2,0,0,1,.87.17,1.45,1.45,0,0,1,.53.48,2.07,2.07,0,0,1,.26.76,5.86,5.86,0,0,1,.07,1v.28h-2.39Zm1.2-1.57a1.36,1.36,0,0,0-.09-.35.52.52,0,0,0-.19-.22.56.56,0,0,0-.3-.08.49.49,0,0,0-.3.09.59.59,0,0,0-.19.22,1,1,0,0,0-.1.3,1.84,1.84,0,0,0,0,.33v.19h1.23A3.43,3.43,0,0,0,384.75,11.34Z"/><path class="cls-24" d="M387.73,10v.56h0a1.2,1.2,0,0,1,.5-.52,1.45,1.45,0,0,1,.7-.16,1.21,1.21,0,0,1,.89.32,1.4,1.4,0,0,1,.31,1v3.5h-1.21V11.46a.84.84,0,0,0-.12-.52.54.54,0,0,0-.4-.14c-.42,0-.64.26-.64.78v3.13h-1.21V10Z"/><path class="cls-24" d="M392.43,8.64V10h.7v.83h-.7v2.55a.77.77,0,0,0,.08.4.41.41,0,0,0,.35.12h.27v.84h-.39l-.4,0a2.94,2.94,0,0,1-.57-.05.53.53,0,0,1-.34-.2.79.79,0,0,1-.17-.38,3.2,3.2,0,0,1,0-.59v-2.7h-.61V10h.61V8.64Z"/><path class="cls-24" d="M399.19,14.47a1.87,1.87,0,0,1-.45,1.37,2.12,2.12,0,0,1-1.52.46A1.84,1.84,0,0,1,396,16a1.12,1.12,0,0,1-.42-.94h1.16a.4.4,0,0,0,.18.36.69.69,0,0,0,.19.1l.21,0a.56.56,0,0,0,.52-.23,1.1,1.1,0,0,0,.15-.59v-.62h0a1.51,1.51,0,0,1-.45.42,1.12,1.12,0,0,1-.55.16,1.24,1.24,0,0,1-1.09-.55,3.51,3.51,0,0,1-.36-1.84,6.1,6.1,0,0,1,.05-.84,2.56,2.56,0,0,1,.2-.77,1.33,1.33,0,0,1,.45-.57,1.29,1.29,0,0,1,1.31-.08,1,1,0,0,1,.44.51h0V10h1.16ZM396.79,13a1.24,1.24,0,0,0,.09.4.64.64,0,0,0,.18.27.5.5,0,0,0,.31.1.53.53,0,0,0,.32-.1.65.65,0,0,0,.2-.28,1.61,1.61,0,0,0,.11-.42,4.68,4.68,0,0,0,0-.55,3.52,3.52,0,0,0-.14-1.22.49.49,0,0,0-.49-.36.56.56,0,0,0-.33.09.6.6,0,0,0-.19.28,2.14,2.14,0,0,0-.09.53c0,.22,0,.48,0,.8C396.77,12.66,396.78,12.82,396.79,13Z"/><path class="cls-24" d="M401.2,10v.63h0a1.73,1.73,0,0,1,.45-.54,1,1,0,0,1,.64-.21h.11l.11,0V11h-.38a1.1,1.1,0,0,0-.31,0,.73.73,0,0,0-.29.15.61.61,0,0,0-.21.26.82.82,0,0,0-.08.4v2.83H400V10Z"/><path class="cls-24" d="M403,11.33a1.55,1.55,0,0,1,.13-.69,1.16,1.16,0,0,1,.36-.45,1.4,1.4,0,0,1,.52-.25,3.32,3.32,0,0,1,.65-.07,2.93,2.93,0,0,1,.87.11,1.18,1.18,0,0,1,.52.29,1,1,0,0,1,.25.46,2.73,2.73,0,0,1,.07.59V13.8a3.3,3.3,0,0,0,0,.51,2.19,2.19,0,0,0,.11.4h-1.15a2.44,2.44,0,0,1-.1-.24c0-.09,0-.17,0-.25h0a1.07,1.07,0,0,1-.49.48,2,2,0,0,1-.71.11,1.27,1.27,0,0,1-.54-.11,1,1,0,0,1-.35-.31,1.4,1.4,0,0,1-.19-.43,2,2,0,0,1-.06-.48,1.93,1.93,0,0,1,.07-.57,1.22,1.22,0,0,1,.21-.41,1.19,1.19,0,0,1,.37-.29A3.65,3.65,0,0,1,404,12l.69-.18a.75.75,0,0,0,.37-.2.53.53,0,0,0,.11-.36.6.6,0,0,0-.13-.42.54.54,0,0,0-.43-.16.51.51,0,0,0-.42.17.64.64,0,0,0-.14.45v.13H403Zm1.94,1.17-.25.09a.94.94,0,0,0-.53.26.76.76,0,0,0-.15.5,1,1,0,0,0,.1.47.38.38,0,0,0,.35.19,1.27,1.27,0,0,0,.26,0,.8.8,0,0,0,.24-.13.71.71,0,0,0,.18-.23.81.81,0,0,0,.07-.33v-.93A.72.72,0,0,1,404.89,12.5Z"/><path class="cls-24" d="M409.58,14.21a1.19,1.19,0,0,1-.46.46,1.25,1.25,0,0,1-.61.14,1.19,1.19,0,0,1-1.1-.57,3.83,3.83,0,0,1-.35-1.89,3.9,3.9,0,0,1,.35-1.9,1.31,1.31,0,0,1,1.68-.44,1.31,1.31,0,0,1,.43.42h0v-2h1.21v6.26h-1.16v-.5Zm-1.19-.7a.54.54,0,0,0,1,0,4.17,4.17,0,0,0,.12-1.16,4.22,4.22,0,0,0-.12-1.16.54.54,0,0,0-1,0,4.22,4.22,0,0,0-.12,1.16A4.17,4.17,0,0,0,408.39,13.51Z"/><path class="cls-24" d="M412.59,12.91a2.73,2.73,0,0,0,0,.41,1.61,1.61,0,0,0,.1.35.79.79,0,0,0,.19.25.43.43,0,0,0,.28.09.5.5,0,0,0,.45-.22,1.8,1.8,0,0,0,.19-.67h1.09a1.94,1.94,0,0,1-.44,1.26,1.71,1.71,0,0,1-1.27.43,2.1,2.1,0,0,1-1-.22,1.31,1.31,0,0,1-.54-.58,2.31,2.31,0,0,1-.22-.81c0-.3,0-.59,0-.89a5.33,5.33,0,0,1,.07-.91,2.05,2.05,0,0,1,.26-.78,1.44,1.44,0,0,1,.57-.55,2.07,2.07,0,0,1,1-.2,1.93,1.93,0,0,1,.86.17,1.37,1.37,0,0,1,.53.48,2.07,2.07,0,0,1,.27.76,7.16,7.16,0,0,1,.07,1v.28h-2.4Zm1.2-1.57a1,1,0,0,0-.09-.35.44.44,0,0,0-.18-.22.57.57,0,0,0-.31-.08.49.49,0,0,0-.3.09.59.59,0,0,0-.19.22,1.32,1.32,0,0,0-.1.3,1.84,1.84,0,0,0,0,.33v.19h1.24C413.82,11.64,413.81,11.48,413.79,11.34Z"/><polygon class="cls-24" points="423.6 12.12 418.04 8.91 418.04 15.33 423.6 12.12"/><path class="cls-24" d="M4.69,8.57a2.07,2.07,0,0,1,1,.2,1.43,1.43,0,0,1,.59.58,2.58,2.58,0,0,1,.29.9,8.66,8.66,0,0,1,.07,1.19,8.78,8.78,0,0,1-.09,1.35,2.78,2.78,0,0,1-.33,1,1.43,1.43,0,0,1-.62.55,2.21,2.21,0,0,1-1,.19H2.73V8.57Zm-.23,5a1,1,0,0,0,.5-.11.7.7,0,0,0,.3-.35,1.89,1.89,0,0,0,.15-.66,9.62,9.62,0,0,0,0-1c0-.33,0-.63,0-.88A2.44,2.44,0,0,0,5.28,10,.78.78,0,0,0,5,9.57a1,1,0,0,0-.54-.13h-.5V13.6Z"/><path class="cls-24" d="M8.37,12.78a2.34,2.34,0,0,0,0,.38,1.13,1.13,0,0,0,.1.34.66.66,0,0,0,.17.23.38.38,0,0,0,.26.08.46.46,0,0,0,.43-.2A1.64,1.64,0,0,0,9.54,13h1a1.73,1.73,0,0,1-.41,1.18,1.57,1.57,0,0,1-1.2.41,1.89,1.89,0,0,1-1-.21,1.28,1.28,0,0,1-.51-.55,2,2,0,0,1-.2-.76,7.87,7.87,0,0,1,0-.84,5.9,5.9,0,0,1,.06-.86,2.16,2.16,0,0,1,.25-.74,1.3,1.3,0,0,1,.53-.51A1.92,1.92,0,0,1,9,9.91a1.82,1.82,0,0,1,.82.16,1.28,1.28,0,0,1,.5.45,1.91,1.91,0,0,1,.24.72,5.18,5.18,0,0,1,.07.93v.25H8.37Zm1.14-1.49A1.31,1.31,0,0,0,9.42,11a.39.39,0,0,0-.18-.2A.49.49,0,0,0,9,10.69a.52.52,0,0,0-.29.07A.68.68,0,0,0,8.5,11a.91.91,0,0,0-.1.29,1.63,1.63,0,0,0,0,.31v.17H9.54Q9.52,11.49,9.51,11.29Z"/><path class="cls-24" d="M10.9,10.8V10h.58v-.5A1.3,1.3,0,0,1,11.56,9a.73.73,0,0,1,.23-.33,1.11,1.11,0,0,1,.38-.18,2.57,2.57,0,0,1,.5-.05l.61,0v.82h-.22a.56.56,0,0,0-.34.08.33.33,0,0,0-.1.27V10h.66v.78h-.66v3.68H11.48V10.8Z"/><path class="cls-24" d="M13.67,11.28a1.57,1.57,0,0,1,.12-.65,1.28,1.28,0,0,1,.34-.42,1.21,1.21,0,0,1,.5-.23,2.35,2.35,0,0,1,.6-.07,2.68,2.68,0,0,1,.83.1,1.11,1.11,0,0,1,.49.28,1,1,0,0,1,.24.43,2.38,2.38,0,0,1,.06.55v2.35a2.88,2.88,0,0,0,0,.48,1.59,1.59,0,0,0,.11.38H15.9a1.09,1.09,0,0,1-.09-.23,2,2,0,0,1-.05-.24h0a1,1,0,0,1-.46.45,1.8,1.8,0,0,1-.67.11,1.13,1.13,0,0,1-.51-.11.83.83,0,0,1-.33-.28,1.38,1.38,0,0,1-.18-.41,1.92,1.92,0,0,1,0-1,.9.9,0,0,1,.2-.39,1,1,0,0,1,.35-.27,2.61,2.61,0,0,1,.5-.19l.65-.18a.67.67,0,0,0,.36-.18.55.55,0,0,0,.1-.34.62.62,0,0,0-.12-.4.5.5,0,0,0-.41-.14.51.51,0,0,0-.4.15.64.64,0,0,0-.13.42v.13h-1Zm1.84,1.11a1,1,0,0,1-.24.08.94.94,0,0,0-.5.25.7.7,0,0,0-.15.47.87.87,0,0,0,.1.44.35.35,0,0,0,.33.18,1,1,0,0,0,.24,0,.84.84,0,0,0,.23-.12.62.62,0,0,0,.17-.22.74.74,0,0,0,.07-.31v-.88A.89.89,0,0,1,15.51,12.39Z"/><path class="cls-24" d="M19.93,14a1.12,1.12,0,0,1-.47.47,1.6,1.6,0,0,1-.67.14,1.17,1.17,0,0,1-.84-.29,1.32,1.32,0,0,1-.29-.95V10H18.8v3.07a.74.74,0,0,0,.12.49.45.45,0,0,0,.37.13c.4,0,.6-.24.6-.73V10H21v4.46h-1.1V14Z"/><path class="cls-24" d="M23,8.57v5.91H21.84V8.57Z"/><path class="cls-24" d="M25.18,8.75V10h.66v.78h-.66v2.41a.73.73,0,0,0,.07.38.42.42,0,0,0,.33.11h.26v.8h-.75a2.7,2.7,0,0,1-.54,0,.54.54,0,0,1-.32-.19.75.75,0,0,1-.16-.36,4.06,4.06,0,0,1,0-.56V10.8h-.58V10H24V8.75Z"/><path class="cls-24" d="M27.21,12.78a2.34,2.34,0,0,0,0,.38,1.13,1.13,0,0,0,.1.34.66.66,0,0,0,.17.23.4.4,0,0,0,.27.08.46.46,0,0,0,.42-.2,1.48,1.48,0,0,0,.18-.63h1A1.78,1.78,0,0,1,29,14.16a1.57,1.57,0,0,1-1.2.41,1.91,1.91,0,0,1-1-.21,1.28,1.28,0,0,1-.51-.55,2,2,0,0,1-.2-.76,7.87,7.87,0,0,1,0-.84,5.9,5.9,0,0,1,.06-.86,2.16,2.16,0,0,1,.25-.74,1.3,1.3,0,0,1,.53-.51,1.92,1.92,0,0,1,.93-.19,1.82,1.82,0,0,1,.82.16,1.28,1.28,0,0,1,.5.45,2.11,2.11,0,0,1,.25.72,6.41,6.41,0,0,1,.06.93v.25H27.21Zm1.14-1.49a1.31,1.31,0,0,0-.09-.33.42.42,0,0,0-.17-.2.64.64,0,0,0-.58,0,.68.68,0,0,0-.17.21.91.91,0,0,0-.1.29,1.63,1.63,0,0,0,0,.31v.17h1.17Q28.37,11.49,28.35,11.29Z"/><path class="cls-24" d="M32.34,14a1.14,1.14,0,0,1-.43.44,1.16,1.16,0,0,1-.58.13,1.13,1.13,0,0,1-1-.54A3.57,3.57,0,0,1,30,12.25a3.61,3.61,0,0,1,.33-1.79,1.12,1.12,0,0,1,1-.55,1.07,1.07,0,0,1,.55.13,1.29,1.29,0,0,1,.41.4h0V8.57h1.15v5.91h-1.1V14Zm-1.13-.65a.47.47,0,0,0,.49.36.47.47,0,0,0,.49-.36,3.86,3.86,0,0,0,.11-1.1,3.86,3.86,0,0,0-.11-1.1.48.48,0,0,0-.49-.37.48.48,0,0,0-.49.37,4.27,4.27,0,0,0-.11,1.1A4.27,4.27,0,0,0,31.21,13.35Z"/></g></svg>